SplineFontDB: 3.2
FontName: FunkySample
FullName: FunkySample
FamilyName: FunkySample
Weight: Regular
Copyright: Copyright (c) 2021 Mikhail Merkuryev\nYou just DO WHAT THE FUNK YOU WANT TO.
UComments: "2021-9-15: Created with FontForge (http://fontforge.org)"
Version: 001.000
ItalicAngle: 0
UnderlinePosition: -125
UnderlineWidth: 50
Ascent: 800
Descent: 200
InvalidEm: 0
LayerCount: 2
Layer: 0 1 "+BBcEMAQ0BD0EOAQ5 +BD8EOwQwBD0A" 1
Layer: 1 1 "+BB8ENQRABDUENAQ9BDgEOQAA +BD8EOwQwBD0A" 0
XUID: [1021 59 1751208496 15025]
FSType: 0
OS2Version: 0
OS2_WeightWidthSlopeOnly: 0
OS2_UseTypoMetrics: 0
CreationTime: 1631732133
ModificationTime: 1665312258
PfmFamily: 33
TTFWeight: 400
TTFWidth: 5
LineGap: 0
VLineGap: 0
OS2TypoAscent: 0
OS2TypoAOffset: 1
OS2TypoDescent: 0
OS2TypoDOffset: 1
OS2TypoLinegap: 0
OS2WinAscent: 1069
OS2WinAOffset: 0
OS2WinDescent: 0
OS2WinDOffset: 1
HheadAscent: 0
HheadAOffset: 1
HheadDescent: 0
HheadDOffset: 1
OS2Vendor: 'Merc'
OS2CodePages: 00000007.00000000
OS2UnicodeRanges: a8200241.9200a086.01000008.00000000
Lookup: 4 0 1 "Umlaut RLIG" { "Umlaut RLIG-1"  "GothRLIG"  } ['rlig' ('DFLT' <'dflt' > 'GOTH' <'goth' > ) ]
Lookup: 260 1 0 "Arab Mark GPOS" { "Arab Mark GPOS-1"  } ['blwm' ('DFLT' <'dflt' > 'arab' <'dflt' > ) ]
Lookup: 258 0 0 "Toto KERN" { "Toto KERN-1" [150,15,0] } ['kern' ('DFLT' <'dflt' > 'toto' <'dflt' > ) ]
Lookup: 257 1 0 "Single Positioning in 'Chrs' lookup 0" { "Chrs"  } ['Chrs' ('Chrs' <'dflt' > ) ]
MarkAttachClasses: 1
DEI: 91125
ShortTable: maxp 16
  0
  0
  0
  0
  0
  0
  0
  2
  1
  2
  22
  0
  256
  0
  0
  0
EndShort
TtTable: prep
PUSHW_1
 511
SCANCTRL
PUSHB_1
 1
SCANTYPE
SVTCA[y-axis]
MPPEM
PUSHB_1
 8
LT
IF
PUSHB_2
 1
 1
INSTCTRL
EIF
PUSHB_2
 70
 6
CALL
IF
POP
PUSHB_1
 16
EIF
MPPEM
PUSHB_1
 20
GT
IF
POP
PUSHB_1
 128
EIF
SCVTCI
PUSHB_1
 6
CALL
NOT
IF
EIF
PUSHB_1
 20
CALL
EndTTInstrs
TtTable: fpgm
PUSHB_1
 0
FDEF
PUSHB_1
 0
SZP0
MPPEM
PUSHB_1
 42
LT
IF
PUSHB_1
 74
SROUND
EIF
PUSHB_1
 0
SWAP
MIAP[rnd]
RTG
PUSHB_1
 6
CALL
IF
RTDG

StartChar: SmallCircle
Encoding: 1114112 -1 0
Width: 0
HStem: -39.9922 79.9844<-27.9172 27.9172>
VStem: -39.9922 79.9844<-27.9172 27.9172>
LayerCount: 2
Fore
SplineSet
-39.9921875 -0 m 132,-1,1
 -39.9921875 16.5776366577 -39.9921875 16.5776366577 -28.2841796875 28.2841796875 c 128,-1,2
 -16.5776366577 39.9921875 -16.5776366577 39.9921875 0 39.9921875 c 128,-1,3
 16.5776366577 39.9921875 16.5776366577 39.9921875 28.2841796875 28.2841796875 c 128,-1,4
 39.9921875 16.5776366577 39.9921875 16.5776366577 39.9921875 0 c 128,-1,5
 39.9921875 -16.5776366577 39.9921875 -16.5776366577 28.2841796875 -28.2841796875 c 128,-1,6
 16.5776366577 -39.9921875 16.5776366577 -39.9921875 0 -39.9921875 c 128,-1,7
 -16.5776366577 -39.9921875 -16.5776366577 -39.9921875 -28.2841796875 -28.2841796875 c 128,-1,0
 -39.9921875 -16.5776366577 -39.9921875 -16.5776366577 -39.9921875 -0 c 132,-1,1
EndSplineSet
Validated: 3073
EndChar

StartChar: uni25CC
Encoding: 9676 9676 1
Width: 594
Flags: W
HStem: 42 52<271.383 315.265> 60 52<187.383 231.265 355.383 399.265> 107 52<113.383 157.265 429.383 473.265> 181 52<66.3828 110.265 476.383 520.265> 265 52<48.3828 92.2648 494.383 538.265> 349 52<66.3828 110.265 476.383 520.265> 423 52<113.383 157.265 429.383 473.265> 470 52<187.383 231.265 355.383 399.265> 488 52<271.383 315.265>
VStem: 48 52<265.383 309.265> 66 52<181.383 225.265 349.383 393.265> 113 52<107.383 151.265 423.383 467.265> 187 52<60.3828 104.265 470.383 514.265> 271 52<42.3828 86.2648 488.383 532.265> 355 52<60.3828 104.265 470.383 514.265> 429 52<107.383 151.265 423.383 467.265> 476 52<181.383 225.265 349.383 393.265> 494 52<265.383 309.265>
AnchorPoint: "Arab Low" 297 0 basechar 0
LayerCount: 2
Fore
SplineSet
297 488 m 0,0,1
 286.9995 488 286.9995 488 279 496 c 128,-1,2
 271.0005 503.9995 271.0005 503.9995 271 514 c 0,3,4
 271 524.9995 271 524.9995 279 532.5 c 128,-1,5
 286.9995 540 286.9995 540 297 540 c 0,6,7
 307.9995 540 307.9995 540 315.5 532.5 c 128,-1,8
 323 525 323 525 323 514 c 0,9,10
 323 503.9995 323 503.9995 315.5 496 c 128,-1,11
 308 488.0005 308 488.0005 297 488 c 0,0,1
213 470 m 0,12,13
 202.9995 470 202.9995 470 195 478 c 128,-1,14
 187.0005 485.9995 187.0005 485.9995 187 496 c 0,15,16
 187 506.9995 187 506.9995 195 514.5 c 128,-1,17
 202.9995 522 202.9995 522 213 522 c 0,18,19
 223.9995 522 223.9995 522 231.5 514.5 c 128,-1,20
 239 507 239 507 239 496 c 0,21,22
 239 485.9995 239 485.9995 231.5 478 c 128,-1,23
 224 470.0005 224 470.0005 213 470 c 0,12,13
381 470 m 0,24,25
 370.9995 470 370.9995 470 363 478 c 128,-1,26
 355.0005 485.9995 355.0005 485.9995 355 496 c 0,27,28
 355 506.9995 355 506.9995 363 514.5 c 128,-1,29
 370.9995 522 370.9995 522 381 522 c 0,30,31
 391.9995 522 391.9995 522 399.5 514.5 c 128,-1,32
 407 507 407 507 407 496 c 0,33,34
 407 485.9995 407 485.9995 399.5 478 c 128,-1,35
 392 470.0005 392 470.0005 381 470 c 0,24,25
455 423 m 0,36,37
 444.9995 423 444.9995 423 437 431 c 128,-1,38
 429.0005 438.9995 429.0005 438.9995 429 449 c 0,39,40
 429 459.9995 429 459.9995 437 467.5 c 128,-1,41
 444.9995 475 444.9995 475 455 475 c 0,42,43
 465.9995 475 465.9995 475 473.5 467.5 c 128,-1,44
 481 460 481 460 481 449 c 0,45,46
 481 438.9995 481 438.9995 473.5 431 c 128,-1,47
 466 423.0005 466 423.0005 455 423 c 0,36,37
139 423 m 0,48,49
 128.9995 423 128.9995 423 121 431 c 128,-1,50
 113.0005 438.9995 113.0005 438.9995 113 449 c 0,51,52
 113 459.9995 113 459.9995 121 467.5 c 128,-1,53
 128.9995 475 128.9995 475 139 475 c 0,54,55
 149.9995 475 149.9995 475 157.5 467.5 c 128,-1,56
 165 460 165 460 165 449 c 0,57,58
 165 438.9995 165 438.9995 157.5 431 c 128,-1,59
 150 423.0005 150 423.0005 139 423 c 0,48,49
92 349 m 0,60,61
 81.99995 349 81.99995 349 74 357 c 128,-1,62
 66.00005 364.9995 66.00005 364.9995 66 375 c 0,63,64
 66 385.9995 66 385.9995 74 393.5 c 128,-1,65
 81.99995 401 81.99995 401 92 401 c 0,66,67
 102.99995 401 102.99995 401 110.5 393.5 c 128,-1,68
 118 386 118 386 118 375 c 0,69,70
 118 364.9995 118 364.9995 110.5 357 c 128,-1,71
 103 349.0005 103 349.0005 92 349 c 0,60,61
502 349 m 0,72,73
 491.9995 349 491.9995 349 484 357 c 128,-1,74
 476.0005 364.9995 476.0005 364.9995 476 375 c 0,75,76
 476 385.9995 476 385.9995 484 393.5 c 128,-1,77
 491.9995 401 491.9995 401 502 401 c 0,78,79
 512.9995 401 512.9995 401 520.5 393.5 c 128,-1,80
 528 386 528 386 528 375 c 0,81,82
 528 364.9995 528 364.9995 520.5 357 c 128,-1,83
 513 349.0005 513 349.0005 502 349 c 0,72,73
74 265 m 0,84,85
 63.99995 265 63.99995 265 56 273 c 128,-1,86
 48.00005 280.9995 48.00005 280.9995 48 291 c 4,87,88
 48 301.9995 48 301.9995 56 309.5 c 128,-1,89
 63.99995 317 63.99995 317 74 317 c 0,90,91
 84.99995 317 84.99995 317 92.5 309.5 c 128,-1,92
 100 302 100 302 100 291 c 0,93,94
 100 280.9995 100 280.9995 92.5 273 c 128,-1,95
 85 265.0005 85 265.0005 74 265 c 0,84,85
520 265 m 0,96,97
 509.9995 265 509.9995 265 502 273 c 128,-1,98
 494.0005 280.9995 494.0005 280.9995 494 291 c 0,99,100
 494 301.9995 494 301.9995 502 309.5 c 128,-1,101
 509.9995 317 509.9995 317 520 317 c 0,102,103
 530.9995 317 530.9995 317 538.5 309.5 c 128,-1,104
 546 302 546 302 546 291 c 0,105,106
 546 280.9995 546 280.9995 538.5 273 c 128,-1,107
 531 265.0005 531 265.0005 520 265 c 0,96,97
92 181 m 0,108,109
 81.99995 181 81.99995 181 74 189 c 128,-1,110
 66.00005 196.9995 66.00005 196.9995 66 207 c 0,111,112
 66 217.9995 66 217.9995 74 225.5 c 128,-1,113
 81.99995 233 81.99995 233 92 233 c 0,114,115
 102.99995 233 102.99995 233 110.5 225.5 c 128,-1,116
 118 218 118 218 118 207 c 0,117,118
 118 196.9995 118 196.9995 110.5 189 c 128,-1,119
 103 181.0005 103 181.0005 92 181 c 0,108,109
502 181 m 0,120,121
 491.9995 181 491.9995 181 484 189 c 128,-1,122
 476.0005 196.9995 476.0005 196.9995 476 207 c 0,123,124
 476 217.9995 476 217.9995 484 225.5 c 128,-1,125
 491.9995 233 491.9995 233 502 233 c 0,126,127
 512.9995 233 512.9995 233 520.5 225.5 c 128,-1,128
 528 218 528 218 528 207 c 0,129,130
 528 196.9995 528 196.9995 520.5 189 c 128,-1,131
 513 181.0005 513 181.0005 502 181 c 0,120,121
139 107 m 0,132,133
 128.9995 107 128.9995 107 121 115 c 128,-1,134
 113.0005 122.9995 113.0005 122.9995 113 133 c 0,135,136
 113 143.9995 113 143.9995 121 151.5 c 128,-1,137
 128.9995 159 128.9995 159 139 159 c 0,138,139
 149.9995 159 149.9995 159 157.5 151.5 c 128,-1,140
 165 144 165 144 165 133 c 0,141,142
 165 122.9995 165 122.9995 157.5 115 c 128,-1,143
 150 107.0005 150 107.0005 139 107 c 0,132,133
455 107 m 0,144,145
 444.9995 107 444.9995 107 437 115 c 128,-1,146
 429.0005 122.9995 429.0005 122.9995 429 133 c 0,147,148
 429 143.9995 429 143.9995 437 151.5 c 128,-1,149
 444.9995 159 444.9995 159 455 159 c 0,150,151
 465.9995 159 465.9995 159 473.5 151.5 c 128,-1,152
 481 144 481 144 481 133 c 0,153,154
 481 122.9995 481 122.9995 473.5 115 c 128,-1,155
 466 107.0005 466 107.0005 455 107 c 0,144,145
213 60 m 0,156,157
 202.9995 60 202.9995 60 195 68 c 128,-1,158
 187.0005 75.99995 187.0005 75.99995 187 86 c 0,159,160
 187 96.99995 187 96.99995 195 104.5 c 128,-1,161
 202.9995 112 202.9995 112 213 112 c 0,162,163
 223.9995 112 223.9995 112 231.5 104.5 c 128,-1,164
 239 97 239 97 239 86 c 0,165,166
 239 75.99995 239 75.99995 231.5 68 c 128,-1,167
 224 60.00005 224 60.00005 213 60 c 0,156,157
381 60 m 0,168,169
 370.9995 60 370.9995 60 363 68 c 128,-1,170
 355.0005 75.99995 355.0005 75.99995 355 86 c 0,171,172
 355 96.99995 355 96.99995 363 104.5 c 128,-1,173
 370.9995 112 370.9995 112 381 112 c 0,174,175
 391.9995 112 391.9995 112 399.5 104.5 c 128,-1,176
 407 97 407 97 407 86 c 0,177,178
 407 75.99995 407 75.99995 399.5 68 c 128,-1,179
 392 60.00005 392 60.00005 381 60 c 0,168,169
297 42 m 0,180,181
 286.9995 42 286.9995 42 279 50 c 128,-1,182
 271.0005 57.99995 271.0005 57.99995 271 68 c 0,183,184
 271 78.99995 271 78.99995 279 86.5 c 128,-1,185
 286.9995 94 286.9995 94 297 94 c 0,186,187
 307.9995 94 307.9995 94 315.5 86.5 c 128,-1,188
 323 79 323 79 323 68 c 0,189,190
 323 57.99995 323 57.99995 315.5 50 c 128,-1,191
 308 42.00005 308 42.00005 297 42 c 0,180,181
EndSplineSet
EndChar

StartChar: uniFE73
Encoding: 65139 65139 2
Width: 356
Flags: W
LayerCount: 2
Fore
SplineSet
364 72 m 5,0,-1
 378 0 l 1,1,2
 343.999511718 -18 343.999511718 -18 314.5 -27 c 128,-1,3
 284.999511718 -36 284.999511718 -36 249 -36 c 0,4,5
 163.999511718 -36 163.999511718 -36 116 13 c 128,-1,6
 68 62.0004882812 68 62.0004882812 68 152 c 0,7,8
 68 171.999511718 68 171.999511718 69.5 189 c 128,-1,9
 71 205.999511718 71 205.999511718 75 227.5 c 128,-1,10
 79.0004882812 248.999511718 79.0004882812 248.999511718 87 282 c 1,11,-1
 124 273 l 1,12,13
 113.000488282 226.999511718 113.000488282 226.999511718 113 202 c 0,14,15
 113 128.999511718 113 128.999511718 149.5 88 c 128,-1,16
 185.999511718 47.0004882812 185.999511718 47.0004882812 251 47 c 0,17,18
 284.999511718 47 284.999511718 47 319 54.5 c 128,-1,19
 353.000488282 62 353.000488282 62 364 72 c 5,0,-1
EndSplineSet
Validated: 1
EndChar

StartChar: CC_CC
Encoding: 127341 127341 3
Width: 960
Flags: W
LayerCount: 2
Fore
SplineSet
156 630 m 0,0,1
 288 764 288 764 481 764 c 128,-1,2
 674 764 674 764 808 630 c 0,3,4
 872 566 872 566 906 482 c 128,-1,5
 940 398 940 398 940 304 c 0,6,7
 940 111 940 111 809 -18 c 0,8,9
 740 -86 740 -86 656 -120 c 0,10,11
 570 -156 570 -156 479 -156 c 128,-1,12
 388 -156 388 -156 304.5 -121 c 128,-1,13
 221 -86 221 -86 155 -20 c 0,14,15
 20 115 20 115 20 304 c 0,16,17
 20 395 20 395 54.5 479 c 128,-1,18
 89 563 89 563 156 630 c 0,0,1
480 681 m 128,-1,20
 323 681 323 681 213 569 c 128,-1,21
 103 457 103 457 103 304 c 0,22,23
 103 230 103 230 132 162 c 0,24,25
 162 95 162 95 216 40 c 0,26,27
 326 -71 326 -71 481 -71 c 0,28,29
 555 -71 555 -71 624.5 -42.5 c 128,-1,30
 694 -14 694 -14 749 41 c 0,31,32
 857 146 857 146 857 303.5 c 128,-1,33
 857 461 857 461 747 571 c 128,-1,19
 637 681 637 681 480 681 c 128,-1,20
363 386 m 0,34,35
 301 386 301 386 301 304 c 0,36,37
 301 223 301 223 368 223 c 0,38,39
 404 223 404 223 419 262 c 1,40,-1
 476 234 l 1,41,42
 458 200 458 200 426 180.5 c 128,-1,43
 394 161 394 161 355 161 c 0,44,45
 293 161 293 161 255.5 199 c 128,-1,46
 218 237 218 237 218 303.5 c 128,-1,47
 218 370 218 370 256 408.5 c 128,-1,48
 294 447 294 447 355 447 c 0,49,50
 438 447 438 447 475 381 c 1,51,-1
 413 349 l 1,52,53
 395 386 395 386 363 386 c 0,34,35
628 386 m 0,54,55
 566 386 566 386 566 304.5 c 128,-1,56
 566 223 566 223 632 223 c 0,57,58
 668 223 668 223 684 262 c 1,59,-1
 742 234 l 1,60,61
 723 200 723 200 691 180.5 c 128,-1,62
 659 161 659 161 621 161 c 0,63,64
 559 161 559 161 521.5 199 c 128,-1,65
 484 237 484 237 484 303.5 c 128,-1,66
 484 370 484 370 522 408.5 c 128,-1,67
 560 447 560 447 621 447 c 0,68,69
 704 447 704 447 740 381 c 1,70,-1
 680 349 l 1,71,72
 662 386 662 386 628 386 c 0,54,55
EndSplineSet
Validated: 3073
EndChar

StartChar: CC_PD
Encoding: 127342 127342 4
Width: 960
Flags: W
LayerCount: 2
Fore
SplineSet
479.979492188 759.958007812 m 128,-1,1
 573.559570312 759.958007812 573.559570312 759.958007812 658.741210938 723.529296875 c 128,-1,2
 743.922851562 687.100585938 743.922851562 687.100585938 805.512695312 625.51171875 c 128,-1,3
 867.1015625 563.922851562 867.1015625 563.922851562 903.53125 478.740234375 c 128,-1,4
 939.959960938 393.55859375 939.959960938 393.55859375 939.959960938 299.977539062 c 128,-1,5
 939.959960938 206.407226562 939.959960938 206.407226562 903.530273438 121.227539062 c 128,-1,6
 867.1015625 36.0478515625 867.1015625 36.0478515625 805.512695312 -25.5439453125 c 128,-1,7
 743.923828125 -87.13671875 743.923828125 -87.13671875 658.741210938 -123.569335938 c 128,-1,8
 573.55859375 -160.001953125 573.55859375 -160.001953125 479.979492188 -160.001953125 c 128,-1,9
 386.400390625 -160.001953125 386.400390625 -160.001953125 301.217773438 -123.569335938 c 128,-1,10
 216.03515625 -87.13671875 216.03515625 -87.13671875 154.447265625 -25.5439453125 c 128,-1,11
 92.8583984375 36.0478515625 92.8583984375 36.0478515625 56.4287109375 121.227539062 c 128,-1,12
 20 206.407226562 20 206.407226562 20 299.977539062 c 128,-1,13
 20 393.557617188 20 393.557617188 56.4287109375 478.739257812 c 128,-1,14
 92.857421875 563.920898438 92.857421875 563.920898438 154.447265625 625.510742188 c 128,-1,15
 216.036132812 687.099609375 216.036132812 687.099609375 301.217773438 723.529296875 c 128,-1,0
 386.399414062 759.958007812 386.399414062 759.958007812 479.979492188 759.958007812 c 128,-1,1
479.979492188 -73.7509765625 m 0,16,17
 584.108398438 -73.7509765625 584.108398438 -73.7509765625 671.645507812 -20.7578125 c 128,-1,18
 759.18359375 32.2353515625 759.18359375 32.2353515625 807.69921875 120.564453125 c 1,19,20
 806.658203125 120.693359375 806.658203125 120.693359375 806.435546875 120.732421875 c 2,21,-1
 403.577148438 300.092773438 l 1,22,23
 403.7890625 268.139648438 403.7890625 268.139648438 413.610351562 239.006835938 c 128,-1,24
 423.430664062 209.874023438 423.430664062 209.874023438 446.95703125 188.321289062 c 128,-1,25
 470.482421875 166.767578125 470.482421875 166.767578125 503.501953125 166.767578125 c 0,26,27
 538.575195312 166.767578125 538.575195312 166.767578125 564.65625 191.499023438 c 0,28,29
 567.66015625 194.225585938 567.66015625 194.225585938 570.783203125 197.795898438 c 1,30,-1
 637.83984375 116.319335938 l 1,31,32
 629.534179688 108.997070312 629.534179688 108.997070312 619.909179688 102.09765625 c 0,33,34
 561.970703125 61.6005859375 561.970703125 61.6005859375 490.58984375 61.6005859375 c 0,35,36
 462.638671875 61.6005859375 462.638671875 61.6005859375 434.0859375 68.1845703125 c 128,-1,37
 405.533203125 74.7685546875 405.533203125 74.7685546875 374.900390625 91.83203125 c 128,-1,38
 344.267578125 108.895507812 344.267578125 108.895507812 320.889648438 134.52734375 c 128,-1,39
 297.510742188 160.158203125 297.510742188 160.158203125 282.400390625 202.24609375 c 128,-1,40
 267.290039062 244.333984375 267.290039062 244.333984375 267.290039062 296.973632812 c 0,41,42
 267.290039062 327.844726562 267.290039062 327.844726562 273.360351562 358.013671875 c 1,43,-1
 127.190429688 423.103515625 l 1,44,45
 106.236328125 363.34375 106.236328125 363.34375 106.236328125 299.977539062 c 0,46,47
 106.236328125 198.634765625 106.236328125 198.634765625 156.315429688 112.5234375 c 128,-1,48
 206.393554688 26.412109375 206.393554688 26.412109375 292.509765625 -23.6689453125 c 128,-1,49
 378.625 -73.7509765625 378.625 -73.7509765625 479.979492188 -73.7509765625 c 0,16,17
840.134765625 204.481445312 m 2,50,51
 840.303710938 204.3125 840.303710938 204.3125 840.583984375 204.002929688 c 128,-1,52
 840.864257812 203.692382812 840.864257812 203.692382812 841.033203125 203.5234375 c 1,53,54
 853.737304688 251.041992188 853.737304688 251.041992188 853.737304688 299.977539062 c 0,55,56
 853.737304688 401.344726562 853.737304688 401.344726562 803.654296875 487.463867188 c 128,-1,57
 753.5703125 573.58203125 753.5703125 573.58203125 667.453125 623.659179688 c 128,-1,58
 581.336914062 673.735351562 581.336914062 673.735351562 479.979492188 673.735351562 c 0,59,60
 383.75 673.735351562 383.75 673.735351562 301.176757812 628.078125 c 128,-1,61
 218.603515625 582.421875 218.603515625 582.421875 167.490234375 504.661132812 c 1,62,-1
 306.438476562 442.69140625 l 1,63,64
 367.2421875 538.385742188 367.2421875 538.385742188 493.190429688 538.385742188 c 0,65,66
 578.798828125 538.385742188 578.798828125 538.385742188 638.092773438 487.405273438 c 1,67,-1
 563.1953125 410.315429688 l 1,68,69
 557.397460938 416.07421875 557.397460938 416.07421875 549.228515625 421.978515625 c 0,70,71
 526.064453125 437.4921875 526.064453125 437.4921875 499.189453125 437.4921875 c 0,72,73
 450.890625 437.4921875 450.890625 437.4921875 424.62890625 389.939453125 c 1,74,-1
 840.134765625 204.481445312 l 2,50,51
EndSplineSet
Validated: 3073
EndChar

StartChar: CC_BY
Encoding: 130671 130671 5
Width: 960
Flags: W
LayerCount: 2
Fore
SplineSet
479.180664062 763.723632812 m 0,0,1
 673.027343752 763.723632812 673.027343752 763.723632812 806.096679688 630.654296875 c 0,2,3
 940 496.750976562 940 496.750976562 940 303.723632812 c 0,4,5
 940 109.85546843 940 109.85546843 808.541015625 -19.0810546875 c 0,6,7
 668.661670299 -156.276367188 668.661670299 -156.276367188 479.180664062 -156.276367188 c 0,8,9
 292.686523438 -156.276367188 292.686523438 -156.276367188 155.541992188 -20.7197265625 c 0,10,11
 20 113.252929563 20 113.252929563 20 303.723632812 c 0,12,13
 20 492.6328125 20 492.6328125 155.541992188 630.639648438 c 0,14,15
 288.604492188 763.723632812 288.604492188 763.723632812 479.180664062 763.723632812 c 0,0,1
480.819335938 680.750976562 m 0,16,17
 323.217013854 680.750976562 323.217013854 680.750976562 215.5 570.681640625 c 0,18,19
 102.958007812 455.681958569 102.958007812 455.681958569 102.958007812 303.708984375 c 0,20,21
 102.958007812 150.888671875 102.958007812 150.888671875 214.647956002 39.2094726562 c 128,-1,22
 326.337904192 -72.4697265625 326.337904192 -72.4697265625 480.791015625 -72.4697265625 c 0,23,24
 634.459903524 -72.4697265625 634.459903524 -72.4697265625 748.58203125 40.0576171875 c 0,25,26
 857.012695312 146.973031849 857.012695312 146.973031849 857.012695312 303.73828125 c 128,-1,27
 857.012695312 460.576171875 857.012695312 460.576171875 746.958007812 570.663574219 c 128,-1,28
 636.903320312 680.750976562 636.903320312 680.750976562 480.819335938 680.750976562 c 0,16,17
604.041992188 417.904296875 m 2,29,-1
 604.041992188 229.807617188 l 1,30,-1
 551.487304688 229.807617188 l 1,31,-1
 551.487304688 6.3916015625 l 1,32,-1
 408.541992188 6.3916015625 l 1,33,-1
 408.541992188 229.79296875 l 1,34,-1
 355.987304688 229.79296875 l 1,35,-1
 355.987304688 417.904296875 l 2,36,37
 355.987304688 430.216796875 355.987304688 430.216796875 364.59765625 438.848632812 c 128,-1,38
 373.265625 447.473632812 373.265625 447.473632812 385.541992188 447.473632812 c 2,39,-1
 574.487304688 447.473632812 l 2,40,41
 586.000976562 447.473632812 586.000976562 447.473632812 595.014648438 438.848632812 c 128,-1,42
 604.041992188 430.189453125 604.041992188 430.189453125 604.041992188 417.904296875 c 2,29,-1
415.916015625 536.181640625 m 0,43,44
 415.916015625 601.0703125 415.916015625 601.0703125 480 601.0703125 c 128,-1,45
 544.069335938 601.0703125 544.069335938 601.0703125 544.069335938 536.181640625 c 0,46,47
 544.069335938 472.112304688 544.069335938 472.112304688 480 472.112304688 c 128,-1,48
 415.916015625 472.112304688 415.916015625 472.112304688 415.916015625 536.181640625 c 0,43,44
EndSplineSet
Validated: 3073
EndChar

StartChar: MaskWork
Encoding: 127405 127405 6
Width: 800
Flags: W
LayerCount: 2
Fore
SplineSet
20 303.723632812 m 128,-1,1
 20 380.017578125 20 380.017578125 49.6982421875 449.461914062 c 128,-1,2
 79.396484375 518.907226562 79.396484375 518.907226562 129.606445312 569.1171875 c 128,-1,3
 179.817382812 619.328125 179.817382812 619.328125 249.26171875 649.025390625 c 128,-1,4
 318.70703125 678.723632812 318.70703125 678.723632812 395 678.723632812 c 128,-1,5
 471.293945312 678.723632812 471.293945312 678.723632812 540.73828125 649.025390625 c 128,-1,6
 610.18359375 619.328125 610.18359375 619.328125 660.393554688 569.1171875 c 128,-1,7
 710.604492188 518.907226562 710.604492188 518.907226562 740.301757812 449.461914062 c 128,-1,8
 770 380.017578125 770 380.017578125 770 303.723632812 c 128,-1,9
 770 227.4296875 770 227.4296875 740.301757812 157.985351562 c 128,-1,10
 710.604492188 88.5400390625 710.604492188 88.5400390625 660.393554688 38.330078125 c 128,-1,11
 610.18359375 -11.880859375 610.18359375 -11.880859375 540.73828125 -41.578125 c 128,-1,12
 471.293945312 -71.2763671875 471.293945312 -71.2763671875 395 -71.2763671875 c 128,-1,13
 318.70703125 -71.2763671875 318.70703125 -71.2763671875 249.26171875 -41.578125 c 128,-1,14
 179.817382812 -11.880859375 179.817382812 -11.880859375 129.606445312 38.330078125 c 128,-1,15
 79.396484375 88.5400390625 79.396484375 88.5400390625 49.6982421875 157.985351562 c 128,-1,0
 20 227.4296875 20 227.4296875 20 303.723632812 c 128,-1,1
67.7255859375 303.723632812 m 128,-1,17
 67.7255859375 237.139648438 67.7255859375 237.139648438 93.64453125 176.533203125 c 128,-1,18
 119.5625 115.926757812 119.5625 115.926757812 163.3828125 72.1064453125 c 128,-1,19
 207.203125 28.2861328125 207.203125 28.2861328125 267.809570312 2.3671875 c 128,-1,20
 328.416992188 -23.55078125 328.416992188 -23.55078125 395 -23.55078125 c 128,-1,21
 461.583984375 -23.55078125 461.583984375 -23.55078125 522.190429688 2.3671875 c 128,-1,22
 582.796875 28.2861328125 582.796875 28.2861328125 626.6171875 72.1064453125 c 128,-1,23
 670.4375 115.926757812 670.4375 115.926757812 696.356445312 176.533203125 c 128,-1,24
 722.274414062 237.139648438 722.274414062 237.139648438 722.274414062 303.723632812 c 128,-1,25
 722.274414062 370.307617188 722.274414062 370.307617188 696.356445312 430.9140625 c 128,-1,26
 670.4375 491.520507812 670.4375 491.520507812 626.6171875 535.340820312 c 128,-1,27
 582.796875 579.161132812 582.796875 579.161132812 522.190429688 605.079101562 c 128,-1,28
 461.583984375 630.998046875 461.583984375 630.998046875 395 630.998046875 c 128,-1,29
 328.416992188 630.998046875 328.416992188 630.998046875 267.809570312 605.079101562 c 128,-1,30
 207.203125 579.161132812 207.203125 579.161132812 163.3828125 535.340820312 c 128,-1,31
 119.5625 491.520507812 119.5625 491.520507812 93.64453125 430.9140625 c 128,-1,16
 67.7255859375 370.307617188 67.7255859375 370.307617188 67.7255859375 303.723632812 c 128,-1,17
209.299804688 506.6875 m 1,32,-1
 291.138671875 506.6875 l 1,33,-1
 394.728515625 230.44921875 l 1,34,-1
 498.862304688 506.6875 l 1,35,-1
 580.700195312 506.6875 l 1,36,-1
 580.700195312 100.758789062 l 1,37,-1
 527.138671875 100.758789062 l 1,38,-1
 527.138671875 457.205078125 l 1,39,-1
 422.461914062 178.791015625 l 1,40,-1
 367.267578125 178.791015625 l 1,41,-1
 262.590820312 457.205078125 l 1,42,-1
 262.590820312 100.758789062 l 1,43,-1
 209.299804688 100.758789062 l 1,44,-1
 209.299804688 506.6875 l 1,32,-1
EndSplineSet
Validated: 3073
EndChar

StartChar: Circle00
Encoding: 129280 129280 7
Width: 1000
LayerCount: 2
Fore
SplineSet
500 774.619140625 m 128,-1,1
 596.4921875 774.619140625 596.4921875 774.619140625 684.37890625 737.006835938 c 128,-1,2
 772.266601562 699.39453125 772.266601562 699.39453125 835.831054688 635.831054688 c 128,-1,3
 899.39453125 572.266601562 899.39453125 572.266601562 937.006835938 484.37890625 c 128,-1,4
 974.619140625 396.4921875 974.619140625 396.4921875 974.619140625 300 c 128,-1,5
 974.619140625 203.5078125 974.619140625 203.5078125 937.006835938 115.62109375 c 128,-1,6
 899.39453125 27.7333984375 899.39453125 27.7333984375 835.831054688 -35.8310546875 c 128,-1,7
 772.266601562 -99.39453125 772.266601562 -99.39453125 684.37890625 -137.006835938 c 128,-1,8
 596.4921875 -174.619140625 596.4921875 -174.619140625 500 -174.619140625 c 128,-1,9
 403.5078125 -174.619140625 403.5078125 -174.619140625 315.62109375 -137.006835938 c 128,-1,10
 227.733398438 -99.39453125 227.733398438 -99.39453125 164.168945312 -35.8310546875 c 128,-1,11
 100.60546875 27.7333984375 100.60546875 27.7333984375 62.9931640625 115.62109375 c 128,-1,12
 25.3798828125 203.5078125 25.3798828125 203.5078125 25.3798828125 300 c 128,-1,13
 25.3798828125 396.4921875 25.3798828125 396.4921875 62.9931640625 484.37890625 c 128,-1,14
 100.60546875 572.266601562 100.60546875 572.266601562 164.168945312 635.831054688 c 128,-1,15
 227.733398438 699.39453125 227.733398438 699.39453125 315.62109375 737.006835938 c 128,-1,0
 403.5078125 774.619140625 403.5078125 774.619140625 500 774.619140625 c 128,-1,1
716.694335938 679.37109375 m 1,16,17
 622.392578125 647.28515625 622.392578125 647.28515625 580.391601562 568.796875 c 0,18,19
 542.860351562 498.659179688 542.860351562 498.659179688 533.181640625 398.041015625 c 1,20,-1
 530.479492188 330.479492188 l 1,21,-1
 598.051757812 333.18359375 l 1,22,23
 764.661132812 349.211914062 764.661132812 349.211914062 835.15625 435.17578125 c 0,24,25
 863.319335938 469.518554688 863.319335938 469.518554688 879.37109375 516.694335938 c 1,26,27
 820.225585938 620.225585938 820.225585938 620.225585938 716.694335938 679.37109375 c 1,16,17
284.489257812 678.95703125 m 1,28,29
 180.354492188 619.645507812 180.354492188 619.645507812 121.04296875 515.510742188 c 1,30,31
 153.325195312 421.885742188 153.325195312 421.885742188 231.65234375 380.140625 c 0,32,33
 301.661132812 342.829101562 301.661132812 342.829101562 401.955078125 333.181640625 c 1,34,-1
 469.522460938 330.479492188 l 1,35,-1
 466.818359375 398.044921875 l 1,36,37
 450.845703125 564.091796875 450.845703125 564.091796875 365.436523438 634.634765625 c 0,38,39
 331.328125 662.806640625 331.328125 662.806640625 284.489257812 678.95703125 c 1,28,29
281.5 585 m 128,-1,41
 309.049804688 585 309.049804688 585 328.525390625 565.525390625 c 128,-1,42
 348 546.049804688 348 546.049804688 348 518.5 c 128,-1,43
 348 490.950195312 348 490.950195312 328.525390625 471.474609375 c 128,-1,44
 309.049804688 452 309.049804688 452 281.5 452 c 128,-1,45
 253.950195312 452 253.950195312 452 234.474609375 471.474609375 c 128,-1,46
 215 490.950195312 215 490.950195312 215 518.5 c 128,-1,47
 215 546.049804688 215 546.049804688 234.474609375 565.525390625 c 128,-1,40
 253.950195312 585 253.950195312 585 281.5 585 c 128,-1,41
718.5 585 m 128,-1,49
 746.049804688 585 746.049804688 585 765.525390625 565.525390625 c 128,-1,50
 785 546.049804688 785 546.049804688 785 518.5 c 128,-1,51
 785 490.950195312 785 490.950195312 765.525390625 471.474609375 c 128,-1,52
 746.049804688 452 746.049804688 452 718.5 452 c 128,-1,53
 690.950195312 452 690.950195312 452 671.474609375 471.474609375 c 128,-1,54
 652 490.950195312 652 490.950195312 652 518.5 c 128,-1,55
 652 546.049804688 652 546.049804688 671.474609375 565.525390625 c 128,-1,48
 690.950195312 585 690.950195312 585 718.5 585 c 128,-1,49
469.520507812 269.520507812 m 1,56,-1
 401.944335938 266.81640625 l 1,57,58
 235.90234375 250.841796875 235.90234375 250.841796875 165.36328125 165.434570312 c 0,59,60
 137.192382812 131.326171875 137.192382812 131.326171875 121.04296875 84.4892578125 c 1,61,62
 180.354492188 -19.6455078125 180.354492188 -19.6455078125 284.489257812 -78.95703125 c 1,63,64
 378.114257812 -46.6748046875 378.114257812 -46.6748046875 419.859375 31.65234375 c 0,65,66
 457.170898438 101.661132812 457.170898438 101.661132812 466.818359375 201.955078125 c 1,67,-1
 469.520507812 269.520507812 l 1,56,-1
530.479492188 269.520507812 m 1,68,-1
 533.18359375 201.947265625 l 1,69,70
 549.211914062 35.3388671875 549.211914062 35.3388671875 635.17578125 -35.15625 c 0,71,72
 669.518554688 -63.3193359375 669.518554688 -63.3193359375 716.694335938 -79.37109375 c 1,73,74
 820.225585938 -20.2255859375 820.225585938 -20.2255859375 879.37109375 83.3056640625 c 1,75,76
 847.286132812 177.607421875 847.286132812 177.607421875 768.797851562 219.608398438 c 0,77,78
 698.662109375 257.139648438 698.662109375 257.139648438 598.044921875 266.818359375 c 1,79,-1
 530.479492188 269.520507812 l 1,68,-1
281.5 148 m 128,-1,81
 309.049804688 148 309.049804688 148 328.525390625 128.525390625 c 128,-1,82
 348 109.049804688 348 109.049804688 348 81.5 c 128,-1,83
 348 53.9501953125 348 53.9501953125 328.525390625 34.474609375 c 128,-1,84
 309.049804688 15 309.049804688 15 281.5 15 c 128,-1,85
 253.950195312 15 253.950195312 15 234.474609375 34.474609375 c 128,-1,86
 215 53.9501953125 215 53.9501953125 215 81.5 c 128,-1,87
 215 109.049804688 215 109.049804688 234.474609375 128.525390625 c 128,-1,80
 253.950195312 148 253.950195312 148 281.5 148 c 128,-1,81
718.5 148 m 128,-1,89
 746.049804688 148 746.049804688 148 765.525390625 128.525390625 c 128,-1,90
 785 109.049804688 785 109.049804688 785 81.5 c 128,-1,91
 785 53.9501953125 785 53.9501953125 765.525390625 34.474609375 c 128,-1,92
 746.049804688 15 746.049804688 15 718.5 15 c 128,-1,93
 690.950195312 15 690.950195312 15 671.474609375 34.474609375 c 128,-1,94
 652 53.9501953125 652 53.9501953125 652 81.5 c 128,-1,95
 652 109.049804688 652 109.049804688 671.474609375 128.525390625 c 128,-1,88
 690.950195312 148 690.950195312 148 718.5 148 c 128,-1,89
EndSplineSet
Validated: 3073
EndChar

StartChar: Circle01
Encoding: 129281 129281 8
Width: 1000
Flags: W
LayerCount: 2
Fore
SplineSet
500 774.619140625 m 128,-1,1
 596.4921875 774.619140625 596.4921875 774.619140625 684.37890625 737.006835938 c 128,-1,2
 772.266601562 699.39453125 772.266601562 699.39453125 835.831054688 635.831054688 c 128,-1,3
 899.39453125 572.266601562 899.39453125 572.266601562 937.006835938 484.37890625 c 128,-1,4
 974.619140625 396.4921875 974.619140625 396.4921875 974.619140625 300 c 128,-1,5
 974.619140625 203.5078125 974.619140625 203.5078125 937.006835938 115.62109375 c 128,-1,6
 899.39453125 27.7333984375 899.39453125 27.7333984375 835.831054688 -35.8310546875 c 128,-1,7
 772.266601562 -99.39453125 772.266601562 -99.39453125 684.37890625 -137.006835938 c 128,-1,8
 596.4921875 -174.619140625 596.4921875 -174.619140625 500 -174.619140625 c 128,-1,9
 403.5078125 -174.619140625 403.5078125 -174.619140625 315.62109375 -137.006835938 c 128,-1,10
 227.733398438 -99.39453125 227.733398438 -99.39453125 164.168945312 -35.8310546875 c 128,-1,11
 100.60546875 27.7333984375 100.60546875 27.7333984375 62.9931640625 115.62109375 c 128,-1,12
 25.3798828125 203.5078125 25.3798828125 203.5078125 25.3798828125 300 c 128,-1,13
 25.3798828125 396.4921875 25.3798828125 396.4921875 62.9931640625 484.37890625 c 128,-1,14
 100.60546875 572.266601562 100.60546875 572.266601562 164.168945312 635.831054688 c 128,-1,15
 227.733398438 699.39453125 227.733398438 699.39453125 315.62109375 737.006835938 c 128,-1,0
 403.5078125 774.619140625 403.5078125 774.619140625 500 774.619140625 c 128,-1,1
716.694335938 679.37109375 m 1,16,17
 622.392578125 647.28515625 622.392578125 647.28515625 580.391601562 568.796875 c 0,18,19
 542.860351562 498.659179688 542.860351562 498.659179688 533.181640625 398.041015625 c 1,20,-1
 530.479492188 330.479492188 l 1,21,-1
 598.051757812 333.18359375 l 1,22,23
 764.661132812 349.211914062 764.661132812 349.211914062 835.15625 435.17578125 c 0,24,25
 863.319335938 469.518554688 863.319335938 469.518554688 879.37109375 516.694335938 c 1,26,27
 820.225585938 620.225585938 820.225585938 620.225585938 716.694335938 679.37109375 c 1,16,17
284.489257812 678.95703125 m 1,28,29
 180.354492188 619.645507812 180.354492188 619.645507812 121.04296875 515.510742188 c 1,30,31
 153.325195312 421.885742188 153.325195312 421.885742188 231.65234375 380.140625 c 0,32,33
 301.661132812 342.829101562 301.661132812 342.829101562 401.955078125 333.181640625 c 1,34,-1
 469.522460938 330.479492188 l 1,35,-1
 466.818359375 398.044921875 l 1,36,37
 450.845703125 564.091796875 450.845703125 564.091796875 365.436523438 634.634765625 c 0,38,39
 331.328125 662.806640625 331.328125 662.806640625 284.489257812 678.95703125 c 1,28,29
281.5 585 m 128,-1,41
 309.049804688 585 309.049804688 585 328.525390625 565.525390625 c 128,-1,42
 348 546.049804688 348 546.049804688 348 518.5 c 128,-1,43
 348 490.950195312 348 490.950195312 328.525390625 471.474609375 c 128,-1,44
 309.049804688 452 309.049804688 452 281.5 452 c 128,-1,45
 253.950195312 452 253.950195312 452 234.474609375 471.474609375 c 128,-1,46
 215 490.950195312 215 490.950195312 215 518.5 c 128,-1,47
 215 546.049804688 215 546.049804688 234.474609375 565.525390625 c 128,-1,40
 253.950195312 585 253.950195312 585 281.5 585 c 128,-1,41
718.5 585 m 128,-1,49
 746.049804688 585 746.049804688 585 765.525390625 565.525390625 c 128,-1,50
 785 546.049804688 785 546.049804688 785 518.5 c 128,-1,51
 785 490.950195312 785 490.950195312 765.525390625 471.474609375 c 128,-1,52
 746.049804688 452 746.049804688 452 718.5 452 c 128,-1,53
 690.950195312 452 690.950195312 452 671.474609375 471.474609375 c 128,-1,54
 652 490.950195312 652 490.950195312 652 518.5 c 128,-1,55
 652 546.049804688 652 546.049804688 671.474609375 565.525390625 c 128,-1,48
 690.950195312 585 690.950195312 585 718.5 585 c 128,-1,49
469.520507812 269.520507812 m 1,56,-1
 401.944335938 266.81640625 l 1,57,58
 235.90234375 250.841796875 235.90234375 250.841796875 165.36328125 165.434570312 c 0,59,60
 137.192382812 131.326171875 137.192382812 131.326171875 121.04296875 84.4892578125 c 1,61,62
 180.354492188 -19.6455078125 180.354492188 -19.6455078125 284.489257812 -78.95703125 c 1,63,64
 378.114257812 -46.6748046875 378.114257812 -46.6748046875 419.859375 31.65234375 c 0,65,66
 457.170898438 101.661132812 457.170898438 101.661132812 466.818359375 201.955078125 c 1,67,-1
 469.520507812 269.520507812 l 1,56,-1
530.479492188 269.520507812 m 1,68,-1
 533.18359375 201.947265625 l 1,69,70
 549.211914062 35.3388671875 549.211914062 35.3388671875 635.17578125 -35.15625 c 0,71,72
 669.518554688 -63.3193359375 669.518554688 -63.3193359375 716.694335938 -79.37109375 c 1,73,74
 820.225585938 -20.2255859375 820.225585938 -20.2255859375 879.37109375 83.3056640625 c 1,75,76
 847.286132812 177.607421875 847.286132812 177.607421875 768.797851562 219.608398438 c 0,77,78
 698.662109375 257.139648438 698.662109375 257.139648438 598.044921875 266.818359375 c 1,79,-1
 530.479492188 269.520507812 l 1,68,-1
EndSplineSet
Validated: 3073
EndChar

StartChar: Circle02
Encoding: 129282 129282 9
Width: 1000
Flags: W
LayerCount: 2
Fore
SplineSet
500 774.619140625 m 128,-1,1
 596.4921875 774.619140625 596.4921875 774.619140625 684.37890625 737.006835938 c 128,-1,2
 772.266601562 699.39453125 772.266601562 699.39453125 835.831054688 635.831054688 c 128,-1,3
 899.39453125 572.266601562 899.39453125 572.266601562 937.006835938 484.37890625 c 128,-1,4
 974.619140625 396.4921875 974.619140625 396.4921875 974.619140625 300 c 128,-1,5
 974.619140625 203.5078125 974.619140625 203.5078125 937.006835938 115.62109375 c 128,-1,6
 899.39453125 27.7333984375 899.39453125 27.7333984375 835.831054688 -35.8310546875 c 128,-1,7
 772.266601562 -99.39453125 772.266601562 -99.39453125 684.37890625 -137.006835938 c 128,-1,8
 596.4921875 -174.619140625 596.4921875 -174.619140625 500 -174.619140625 c 128,-1,9
 403.5078125 -174.619140625 403.5078125 -174.619140625 315.62109375 -137.006835938 c 128,-1,10
 227.733398438 -99.39453125 227.733398438 -99.39453125 164.168945312 -35.8310546875 c 128,-1,11
 100.60546875 27.7333984375 100.60546875 27.7333984375 62.9931640625 115.62109375 c 128,-1,12
 25.3798828125 203.5078125 25.3798828125 203.5078125 25.3798828125 300 c 128,-1,13
 25.3798828125 396.4921875 25.3798828125 396.4921875 62.9931640625 484.37890625 c 128,-1,14
 100.60546875 572.266601562 100.60546875 572.266601562 164.168945312 635.831054688 c 128,-1,15
 227.733398438 699.39453125 227.733398438 699.39453125 315.62109375 737.006835938 c 128,-1,0
 403.5078125 774.619140625 403.5078125 774.619140625 500 774.619140625 c 128,-1,1
716.694335938 679.37109375 m 1,16,17
 622.392578125 647.28515625 622.392578125 647.28515625 580.391601562 568.796875 c 0,18,19
 542.860351562 498.659179688 542.860351562 498.659179688 533.181640625 398.041015625 c 1,20,-1
 530.479492188 330.479492188 l 1,21,-1
 598.051757812 333.18359375 l 1,22,23
 764.661132812 349.211914062 764.661132812 349.211914062 835.15625 435.17578125 c 0,24,25
 863.319335938 469.518554688 863.319335938 469.518554688 879.37109375 516.694335938 c 1,26,27
 820.225585938 620.225585938 820.225585938 620.225585938 716.694335938 679.37109375 c 1,16,17
284.489257812 678.95703125 m 1,28,29
 180.354492188 619.645507812 180.354492188 619.645507812 121.04296875 515.510742188 c 1,30,31
 153.325195312 421.885742188 153.325195312 421.885742188 231.65234375 380.140625 c 0,32,33
 301.661132812 342.829101562 301.661132812 342.829101562 401.955078125 333.181640625 c 1,34,-1
 469.522460938 330.479492188 l 1,35,-1
 466.818359375 398.044921875 l 1,36,37
 450.845703125 564.091796875 450.845703125 564.091796875 365.436523438 634.634765625 c 0,38,39
 331.328125 662.806640625 331.328125 662.806640625 284.489257812 678.95703125 c 1,28,29
469.520507812 269.520507812 m 1,40,-1
 401.944335938 266.81640625 l 1,41,42
 235.90234375 250.841796875 235.90234375 250.841796875 165.36328125 165.434570312 c 0,43,44
 137.192382812 131.326171875 137.192382812 131.326171875 121.04296875 84.4892578125 c 1,45,46
 180.354492188 -19.6455078125 180.354492188 -19.6455078125 284.489257812 -78.95703125 c 1,47,48
 378.114257812 -46.6748046875 378.114257812 -46.6748046875 419.859375 31.65234375 c 0,49,50
 457.170898438 101.661132812 457.170898438 101.661132812 466.818359375 201.955078125 c 1,51,-1
 469.520507812 269.520507812 l 1,40,-1
530.479492188 269.520507812 m 1,52,-1
 533.18359375 201.947265625 l 1,53,54
 549.211914062 35.3388671875 549.211914062 35.3388671875 635.17578125 -35.15625 c 0,55,56
 669.518554688 -63.3193359375 669.518554688 -63.3193359375 716.694335938 -79.37109375 c 1,57,58
 820.225585938 -20.2255859375 820.225585938 -20.2255859375 879.37109375 83.3056640625 c 1,59,60
 847.286132812 177.607421875 847.286132812 177.607421875 768.797851562 219.608398438 c 0,61,62
 698.662109375 257.139648438 698.662109375 257.139648438 598.044921875 266.818359375 c 1,63,-1
 530.479492188 269.520507812 l 1,52,-1
EndSplineSet
Validated: 3073
EndChar

StartChar: Circle03
Encoding: 129283 129283 10
Width: 754
Flags: W
LayerCount: 2
Fore
SplineSet
493.009765625 774.619140625 m 1,0,-1
 493.009765625 718 l 1,1,2
 320.110351562 718 320.110351562 718 197.559570312 595.450195312 c 128,-1,3
 75.009765625 472.900390625 75.009765625 472.900390625 75.009765625 300 c 128,-1,4
 75.009765625 127.099609375 75.009765625 127.099609375 197.559570312 4.5498046875 c 128,-1,5
 320.110351562 -118 320.110351562 -118 493.009765625 -118 c 1,6,-1
 493.009765625 -174.619140625 l 1,7,8
 396.518554688 -174.619140625 396.518554688 -174.619140625 308.630859375 -137.006835938 c 128,-1,9
 220.743164062 -99.39453125 220.743164062 -99.39453125 157.1796875 -35.8310546875 c 128,-1,10
 93.615234375 27.7333984375 93.615234375 27.7333984375 56.0029296875 115.62109375 c 128,-1,11
 18.390625 203.5078125 18.390625 203.5078125 18.390625 300 c 128,-1,12
 18.390625 396.4921875 18.390625 396.4921875 56.0029296875 484.37890625 c 128,-1,13
 93.615234375 572.266601562 93.615234375 572.266601562 157.1796875 635.831054688 c 128,-1,14
 220.743164062 699.39453125 220.743164062 699.39453125 308.630859375 737.006835938 c 128,-1,15
 396.518554688 774.619140625 396.518554688 774.619140625 493.009765625 774.619140625 c 1,0,-1
284.009765625 471 m 128,-1,17
 284.009765625 502.349609375 284.009765625 502.349609375 306.334960938 524.674804688 c 128,-1,18
 328.66015625 547 328.66015625 547 360.009765625 547 c 128,-1,19
 391.360351562 547 391.360351562 547 413.684570312 524.674804688 c 128,-1,20
 436.009765625 502.349609375 436.009765625 502.349609375 436.009765625 471 c 128,-1,21
 436.009765625 439.650390625 436.009765625 439.650390625 413.684570312 417.325195312 c 128,-1,22
 391.360351562 395 391.360351562 395 360.009765625 395 c 128,-1,23
 328.66015625 395 328.66015625 395 306.334960938 417.325195312 c 128,-1,16
 284.009765625 439.650390625 284.009765625 439.650390625 284.009765625 471 c 128,-1,17
360.009765625 53 m 128,-1,25
 328.66015625 53 328.66015625 53 306.334960938 75.3251953125 c 128,-1,26
 284.009765625 97.650390625 284.009765625 97.650390625 284.009765625 129 c 128,-1,27
 284.009765625 160.349609375 284.009765625 160.349609375 306.334960938 182.674804688 c 128,-1,28
 328.66015625 205 328.66015625 205 360.009765625 205 c 128,-1,29
 391.360351562 205 391.360351562 205 413.684570312 182.674804688 c 128,-1,30
 436.009765625 160.349609375 436.009765625 160.349609375 436.009765625 129 c 128,-1,31
 436.009765625 97.650390625 436.009765625 97.650390625 413.684570312 75.3251953125 c 128,-1,24
 391.360351562 53 391.360351562 53 360.009765625 53 c 128,-1,25
702.009765625 129 m 128,-1,33
 702.009765625 97.650390625 702.009765625 97.650390625 679.684570312 75.3251953125 c 128,-1,34
 657.360351562 53 657.360351562 53 626.009765625 53 c 128,-1,35
 594.66015625 53 594.66015625 53 572.334960938 75.3251953125 c 128,-1,36
 550.009765625 97.650390625 550.009765625 97.650390625 550.009765625 129 c 128,-1,37
 550.009765625 160.349609375 550.009765625 160.349609375 572.334960938 182.674804688 c 128,-1,38
 594.66015625 205 594.66015625 205 626.009765625 205 c 128,-1,39
 657.360351562 205 657.360351562 205 679.684570312 182.674804688 c 128,-1,32
 702.009765625 160.349609375 702.009765625 160.349609375 702.009765625 129 c 128,-1,33
626.009765625 547 m 128,-1,41
 657.360351562 547 657.360351562 547 679.684570312 524.674804688 c 128,-1,42
 702.009765625 502.349609375 702.009765625 502.349609375 702.009765625 471 c 128,-1,43
 702.009765625 439.650390625 702.009765625 439.650390625 679.684570312 417.325195312 c 128,-1,44
 657.360351562 395 657.360351562 395 626.009765625 395 c 128,-1,45
 594.66015625 395 594.66015625 395 572.334960938 417.325195312 c 128,-1,46
 550.009765625 439.650390625 550.009765625 439.650390625 550.009765625 471 c 128,-1,47
 550.009765625 502.349609375 550.009765625 502.349609375 572.334960938 524.674804688 c 128,-1,40
 594.66015625 547 594.66015625 547 626.009765625 547 c 128,-1,41
EndSplineSet
Validated: 3073
EndChar

StartChar: Circle04
Encoding: 129284 129284 11
Width: 754
Flags: W
LayerCount: 2
Fore
SplineSet
493.009765625 774.619140625 m 1,0,-1
 493.009765625 718 l 1,1,2
 320.110351562 718 320.110351562 718 197.559570312 595.450195312 c 128,-1,3
 75.009765625 472.900390625 75.009765625 472.900390625 75.009765625 300 c 128,-1,4
 75.009765625 127.099609375 75.009765625 127.099609375 197.559570312 4.5498046875 c 128,-1,5
 320.110351562 -118 320.110351562 -118 493.009765625 -118 c 1,6,-1
 493.009765625 -174.619140625 l 1,7,8
 396.518554688 -174.619140625 396.518554688 -174.619140625 308.630859375 -137.006835938 c 128,-1,9
 220.743164062 -99.39453125 220.743164062 -99.39453125 157.1796875 -35.8310546875 c 128,-1,10
 93.615234375 27.7333984375 93.615234375 27.7333984375 56.0029296875 115.62109375 c 128,-1,11
 18.390625 203.5078125 18.390625 203.5078125 18.390625 300 c 128,-1,12
 18.390625 396.4921875 18.390625 396.4921875 56.0029296875 484.37890625 c 128,-1,13
 93.615234375 572.266601562 93.615234375 572.266601562 157.1796875 635.831054688 c 128,-1,14
 220.743164062 699.39453125 220.743164062 699.39453125 308.630859375 737.006835938 c 128,-1,15
 396.518554688 774.619140625 396.518554688 774.619140625 493.009765625 774.619140625 c 1,0,-1
284.009765625 471 m 128,-1,17
 284.009765625 502.349609375 284.009765625 502.349609375 306.334960938 524.674804688 c 128,-1,18
 328.66015625 547 328.66015625 547 360.009765625 547 c 128,-1,19
 391.360351562 547 391.360351562 547 413.684570312 524.674804688 c 128,-1,20
 436.009765625 502.349609375 436.009765625 502.349609375 436.009765625 471 c 128,-1,21
 436.009765625 439.650390625 436.009765625 439.650390625 413.684570312 417.325195312 c 128,-1,22
 391.360351562 395 391.360351562 395 360.009765625 395 c 128,-1,23
 328.66015625 395 328.66015625 395 306.334960938 417.325195312 c 128,-1,16
 284.009765625 439.650390625 284.009765625 439.650390625 284.009765625 471 c 128,-1,17
360.009765625 53 m 128,-1,25
 328.66015625 53 328.66015625 53 306.334960938 75.3251953125 c 128,-1,26
 284.009765625 97.650390625 284.009765625 97.650390625 284.009765625 129 c 128,-1,27
 284.009765625 160.349609375 284.009765625 160.349609375 306.334960938 182.674804688 c 128,-1,28
 328.66015625 205 328.66015625 205 360.009765625 205 c 128,-1,29
 391.360351562 205 391.360351562 205 413.684570312 182.674804688 c 128,-1,30
 436.009765625 160.349609375 436.009765625 160.349609375 436.009765625 129 c 128,-1,31
 436.009765625 97.650390625 436.009765625 97.650390625 413.684570312 75.3251953125 c 128,-1,24
 391.360351562 53 391.360351562 53 360.009765625 53 c 128,-1,25
626.009765625 376 m 128,-1,33
 657.360351562 376 657.360351562 376 679.684570312 353.674804688 c 128,-1,34
 702.009765625 331.349609375 702.009765625 331.349609375 702.009765625 300 c 128,-1,35
 702.009765625 268.650390625 702.009765625 268.650390625 679.684570312 246.325195312 c 128,-1,36
 657.360351562 224 657.360351562 224 626.009765625 224 c 128,-1,37
 594.66015625 224 594.66015625 224 572.334960938 246.325195312 c 128,-1,38
 550.009765625 268.650390625 550.009765625 268.650390625 550.009765625 300 c 128,-1,39
 550.009765625 331.349609375 550.009765625 331.349609375 572.334960938 353.674804688 c 128,-1,32
 594.66015625 376 594.66015625 376 626.009765625 376 c 128,-1,33
EndSplineSet
Validated: 3073
EndChar

StartChar: Circle05
Encoding: 129285 129285 12
Width: 528
Flags: W
LayerCount: 2
Fore
SplineSet
493.009765625 774.619140625 m 1,0,-1
 493.009765625 718 l 1,1,2
 320.110351562 718 320.110351562 718 197.559570312 595.450195312 c 128,-1,3
 75.009765625 472.900390625 75.009765625 472.900390625 75.009765625 300 c 128,-1,4
 75.009765625 127.099609375 75.009765625 127.099609375 197.559570312 4.5498046875 c 128,-1,5
 320.110351562 -118 320.110351562 -118 493.009765625 -118 c 1,6,-1
 493.009765625 -174.619140625 l 1,7,8
 396.518554688 -174.619140625 396.518554688 -174.619140625 308.630859375 -137.006835938 c 128,-1,9
 220.743164062 -99.39453125 220.743164062 -99.39453125 157.1796875 -35.8310546875 c 128,-1,10
 93.615234375 27.7333984375 93.615234375 27.7333984375 56.0029296875 115.62109375 c 128,-1,11
 18.390625 203.5078125 18.390625 203.5078125 18.390625 300 c 128,-1,12
 18.390625 396.4921875 18.390625 396.4921875 56.0029296875 484.37890625 c 128,-1,13
 93.615234375 572.266601562 93.615234375 572.266601562 157.1796875 635.831054688 c 128,-1,14
 220.743164062 699.39453125 220.743164062 699.39453125 308.630859375 737.006835938 c 128,-1,15
 396.518554688 774.619140625 396.518554688 774.619140625 493.009765625 774.619140625 c 1,0,-1
284.009765625 471 m 128,-1,17
 284.009765625 502.349609375 284.009765625 502.349609375 306.334960938 524.674804688 c 128,-1,18
 328.66015625 547 328.66015625 547 360.009765625 547 c 128,-1,19
 391.360351562 547 391.360351562 547 413.684570312 524.674804688 c 128,-1,20
 436.009765625 502.349609375 436.009765625 502.349609375 436.009765625 471 c 128,-1,21
 436.009765625 439.650390625 436.009765625 439.650390625 413.684570312 417.325195312 c 128,-1,22
 391.360351562 395 391.360351562 395 360.009765625 395 c 128,-1,23
 328.66015625 395 328.66015625 395 306.334960938 417.325195312 c 128,-1,16
 284.009765625 439.650390625 284.009765625 439.650390625 284.009765625 471 c 128,-1,17
360.009765625 53 m 128,-1,25
 328.66015625 53 328.66015625 53 306.334960938 75.3251953125 c 128,-1,26
 284.009765625 97.650390625 284.009765625 97.650390625 284.009765625 129 c 128,-1,27
 284.009765625 160.349609375 284.009765625 160.349609375 306.334960938 182.674804688 c 128,-1,28
 328.66015625 205 328.66015625 205 360.009765625 205 c 128,-1,29
 391.360351562 205 391.360351562 205 413.684570312 182.674804688 c 128,-1,30
 436.009765625 160.349609375 436.009765625 160.349609375 436.009765625 129 c 128,-1,31
 436.009765625 97.650390625 436.009765625 97.650390625 413.684570312 75.3251953125 c 128,-1,24
 391.360351562 53 391.360351562 53 360.009765625 53 c 128,-1,25
EndSplineSet
Validated: 3073
EndChar

StartChar: NameMe.183
Encoding: 129286 129286 13
Width: 528
Flags: W
LayerCount: 2
Fore
SplineSet
487.509765625 774.619140625 m 1,0,-1
 487.509765625 718 l 1,1,2
 314.610351562 718 314.610351562 718 192.059570312 595.450195312 c 128,-1,3
 69.509765625 472.900390625 69.509765625 472.900390625 69.509765625 300 c 128,-1,4
 69.509765625 127.099609375 69.509765625 127.099609375 192.059570312 4.5498046875 c 128,-1,5
 314.610351562 -118 314.610351562 -118 487.509765625 -118 c 1,6,-1
 487.509765625 -174.619140625 l 1,7,8
 391.018554688 -174.619140625 391.018554688 -174.619140625 303.130859375 -137.006835938 c 128,-1,9
 215.243164062 -99.39453125 215.243164062 -99.39453125 151.6796875 -35.8310546875 c 128,-1,10
 88.115234375 27.7333984375 88.115234375 27.7333984375 50.5029296875 115.62109375 c 128,-1,11
 12.890625 203.5078125 12.890625 203.5078125 12.890625 300 c 128,-1,12
 12.890625 396.4921875 12.890625 396.4921875 50.5029296875 484.37890625 c 128,-1,13
 88.115234375 572.266601562 88.115234375 572.266601562 151.6796875 635.831054688 c 128,-1,14
 215.243164062 699.39453125 215.243164062 699.39453125 303.130859375 737.006835938 c 128,-1,15
 391.018554688 774.619140625 391.018554688 774.619140625 487.509765625 774.619140625 c 1,0,-1
278.509765625 300 m 128,-1,17
 278.509765625 331.349609375 278.509765625 331.349609375 300.834960938 353.674804688 c 128,-1,18
 323.16015625 376 323.16015625 376 354.509765625 376 c 128,-1,19
 385.860351562 376 385.860351562 376 408.184570312 353.674804688 c 128,-1,20
 430.509765625 331.349609375 430.509765625 331.349609375 430.509765625 300 c 128,-1,21
 430.509765625 268.650390625 430.509765625 268.650390625 408.184570312 246.325195312 c 128,-1,22
 385.860351562 224 385.860351562 224 354.509765625 224 c 128,-1,23
 323.16015625 224 323.16015625 224 300.834960938 246.325195312 c 128,-1,16
 278.509765625 268.650390625 278.509765625 268.650390625 278.509765625 300 c 128,-1,17
EndSplineSet
Validated: 3073
EndChar

StartChar: Circle07
Encoding: 129287 129287 14
Width: 528
Flags: W
LayerCount: 2
Fore
SplineSet
487.509765625 774.619140625 m 1,0,-1
 487.509765625 718 l 1,1,2
 314.610351562 718 314.610351562 718 192.059570312 595.450195312 c 128,-1,3
 69.509765625 472.900390625 69.509765625 472.900390625 69.509765625 300 c 128,-1,4
 69.509765625 127.099609375 69.509765625 127.099609375 192.059570312 4.5498046875 c 128,-1,5
 314.610351562 -118 314.610351562 -118 487.509765625 -118 c 1,6,-1
 487.509765625 -174.619140625 l 1,7,8
 391.018554688 -174.619140625 391.018554688 -174.619140625 303.130859375 -137.006835938 c 128,-1,9
 215.243164062 -99.39453125 215.243164062 -99.39453125 151.6796875 -35.8310546875 c 128,-1,10
 88.115234375 27.7333984375 88.115234375 27.7333984375 50.5029296875 115.62109375 c 128,-1,11
 12.890625 203.5078125 12.890625 203.5078125 12.890625 300 c 128,-1,12
 12.890625 396.4921875 12.890625 396.4921875 50.5029296875 484.37890625 c 128,-1,13
 88.115234375 572.266601562 88.115234375 572.266601562 151.6796875 635.831054688 c 128,-1,14
 215.243164062 699.39453125 215.243164062 699.39453125 303.130859375 737.006835938 c 128,-1,15
 391.018554688 774.619140625 391.018554688 774.619140625 487.509765625 774.619140625 c 1,0,-1
EndSplineSet
Validated: 3073
EndChar

StartChar: Hook08
Encoding: 129288 129288 16
Width: 692
Flags: W
LayerCount: 2
Fore
SplineSet
656 483.416992188 m 4,0,1
 656 304.205078125 656 304.205078125 502.991210938 127.94921875 c 132,-1,2
 349.982421875 -48.306640625 349.982421875 -48.306640625 95.751953125 -190.137695312 c 4,3,4
 86.3349609375 -195.391601562 86.3349609375 -195.391601562 75.6826171875 -195.391601562 c 132,-1,5
 65.03125 -195.391601562 65.03125 -195.391601562 54.369140625 -184.729492188 c 132,-1,6
 43.7080078125 -174.068359375 43.7080078125 -174.068359375 43.7080078125 -159.563476562 c 4,7,8
 43.7080078125 -139.083007812 43.7080078125 -139.083007812 61.5439453125 -129.049804688 c 4,9,10
 304.465820312 7.59375 304.465820312 7.59375 444.740234375 169.184570312 c 132,-1,11
 585.013671875 330.774414062 585.013671875 330.774414062 585.013671875 483.416992188 c 4,12,13
 585.013671875 585.567382812 585.013671875 585.567382812 534.49609375 654.751953125 c 4,14,15
 511.276367188 686.551757812 511.276367188 686.551757812 471.125976562 705.534179688 c 132,-1,16
 430.975585938 724.517578125 430.975585938 724.517578125 374.119140625 724.517578125 c 132,-1,17
 317.263671875 724.517578125 317.263671875 724.517578125 269.549804688 686.258789062 c 132,-1,18
 221.836914062 648.000976562 221.836914062 648.000976562 197.37109375 588.370117188 c 132,-1,19
 172.90625 528.73828125 172.90625 528.73828125 172.90625 469.280273438 c 132,-1,20
 172.90625 409.823242188 172.90625 409.823242188 189.076171875 366.494140625 c 4,21,22
 191.684570312 359.504882812 191.684570312 359.504882812 191.684570312 349.810546875 c 132,-1,23
 191.684570312 340.1171875 191.684570312 340.1171875 183.668945312 332.102539062 c 4,24,25
 170.048828125 318.481445312 170.048828125 318.481445312 155.649414062 318.481445312 c 132,-1,26
 141.250976562 318.481445312 141.250976562 318.481445312 133.234375 326.498046875 c 132,-1,27
 125.21875 334.513671875 125.21875 334.513671875 122.573242188 341.602539062 c 4,28,29
 101.919921875 396.9453125 101.919921875 396.9453125 101.919921875 469.861328125 c 132,-1,30
 101.919921875 542.77734375 101.919921875 542.77734375 132.495117188 617.333984375 c 132,-1,31
 163.0703125 691.890625 163.0703125 691.890625 227.670898438 743.697265625 c 132,-1,32
 292.270507812 795.502929688 292.270507812 795.502929688 369.635742188 795.502929688 c 4,33,34
 519.641601562 795.502929688 519.641601562 795.502929688 590.983398438 697.7734375 c 4,35,36
 656 608.709960938 656 608.709960938 656 483.416992188 c 4,0,1
EndSplineSet
Validated: 3073
EndChar

StartChar: HookDot
Encoding: 1114113 -1 17
Width: 692
Flags: W
HStem: 406.571 156.123<323.513 431.033>
VStem: 299.212 156.123<430.873 538.392>
LayerCount: 2
Fore
SplineSet
299.211914062 484.6328125 m 132,-1,1
 299.211914062 516.966796875 299.211914062 516.966796875 322.075195312 539.830078125 c 132,-1,2
 344.939453125 562.694335938 344.939453125 562.694335938 377.2734375 562.694335938 c 132,-1,3
 409.607421875 562.694335938 409.607421875 562.694335938 432.471679688 539.830078125 c 132,-1,4
 455.334960938 516.966796875 455.334960938 516.966796875 455.334960938 484.6328125 c 132,-1,5
 455.334960938 452.297851562 455.334960938 452.297851562 432.471679688 429.434570312 c 132,-1,6
 409.607421875 406.571289062 409.607421875 406.571289062 377.2734375 406.571289062 c 132,-1,7
 344.939453125 406.571289062 344.939453125 406.571289062 322.075195312 429.434570312 c 132,-1,0
 299.211914062 452.297851562 299.211914062 452.297851562 299.211914062 484.6328125 c 132,-1,1
EndSplineSet
Validated: 3073
EndChar

StartChar: HookNotch
Encoding: 1114114 -1 18
Width: 692
Flags: W
HStem: -161.422 257.023
VStem: 171.372 204.159
LayerCount: 2
Fore
SplineSet
369.681640625 -120.015625 m 6,0,1
 375.53125 -127.915039062 375.53125 -127.915039062 375.53125 -136.09375 c 132,-1,2
 375.53125 -144.272460938 375.53125 -144.272460938 366.956054688 -152.84765625 c 132,-1,3
 358.380859375 -161.421875 358.380859375 -161.421875 348.874023438 -161.421875 c 4,4,5
 336.876953125 -161.421875 336.876953125 -161.421875 328.661132812 -150.327148438 c 6,6,-1
 177.221679688 54.19140625 l 6,7,8
 171.372070312 62.0908203125 171.372070312 62.0908203125 171.372070312 70.26953125 c 132,-1,9
 171.372070312 78.4482421875 171.372070312 78.4482421875 179.94921875 87.0244140625 c 132,-1,10
 188.526367188 95.6015625 188.526367188 95.6015625 198.029296875 95.6015625 c 4,11,12
 210.025390625 95.6015625 210.025390625 95.6015625 218.2421875 84.50390625 c 6,13,-1
 369.681640625 -120.015625 l 6,0,1
EndSplineSet
Validated: 3073
EndChar

StartChar: TotoPA
Encoding: 123536 123536 21
Width: 618
Flags: W
HStem: 92 110<109.131 188.644> 468 105<217.378 409.593>
VStem: 519 55<210.166 375.868>
LayerCount: 2
Fore
SplineSet
291 31 m 0,0,1
 292.9995 35.00005 292.9995 35.00005 296 42 c 0,2,3
 297.9995 48 297.9995 48 301 54 c 1,4,5
 386.0005 90 386.0005 90 453 153 c 0,6,7
 519 216 519 216 519 295 c 0,8,9
 519 371.9995 519 371.9995 459 420 c 0,10,11
 400.0005 468 400.0005 468 318 468 c 0,12,13
 274.0005 468 274.0005 468 239 455 c 0,14,15
 204.0005 443 204.0005 443 178 422 c 0,16,17
 130 383 130 383 113 322 c 0,18,19
 96.9995 260.9995 96.9995 260.9995 114 202 c 1,20,-1
 148 202 l 1,21,-1
 187 202 l 1,22,23
 214 155.0005 214 155.0005 196 124 c 0,24,25
 176.9995 92.0005 176.9995 92.0005 141 92 c 0,26,27
 123 92 123 92 108 102 c 0,28,29
 94.00005 111 94.00005 111 82 127 c 0,30,31
 61 155.9995 61 155.9995 51 200 c 0,32,33
 40.99995 245 40.99995 245 41 286 c 0,34,35
 41 358 41 358 70 422 c 0,36,37
 100 486.9995 100 486.9995 154 527 c 0,38,39
 184 548 184 548 220 561 c 0,40,41
 256 573 256 573 299 573 c 0,42,43
 348.0005 573 348.0005 573 388 560 c 0,44,45
 428.0005 546.0005 428.0005 546.0005 459 523 c 0,46,47
 517.0005 481 517.0005 481 545 412 c 0,48,49
 573.9995 344.0005 573.9995 344.0005 574 271 c 0,50,51
 574 164.9995 574 164.9995 527 104 c 0,52,53
 479 42.00005 479 42.00005 401 -5 c 1,54,55
 423.9995 -32 423.9995 -32 463 -77 c 0,56,57
 502 -123.0005 502 -123.0005 526 -150 c 1,58,59
 524.9995 -168 524.9995 -168 523 -200 c 0,60,61
 521.0005 -231.0005 521.0005 -231.0005 520 -250 c 0,62,63
 515.9995 -251.9995 515.9995 -251.9995 509 -255 c 0,64,65
 501.9995 -259.0005 501.9995 -259.0005 497 -261 c 1,66,67
 471.9995 -226.0005 471.9995 -226.0005 434 -172 c 128,-1,68
 396.0005 -118 396.0005 -118 360 -66 c 0,69,70
 340.0005 -37.99995 340.0005 -37.99995 322 -13 c 128,-1,71
 304 12.000005 304 12.000005 291 31 c 0,0,1
319 350 m 1,72,73
 329.9995 336.9995 329.9995 336.9995 346 316 c 0,74,75
 361 296.0005 361 296.0005 375 277 c 1,76,77
 355.0005 263.9995 355.0005 263.9995 337 248 c 0,78,79
 317.9995 231.9995 317.9995 231.9995 301 213 c 1,80,-1
 293 213 l 1,81,-1
 285 213 l 1,82,83
 274.9995 225 274.9995 225 260 245 c 0,84,85
 243.9995 264.9995 243.9995 264.9995 234 277 c 1,86,87
 253.0005 298 253.0005 298 275 317 c 0,88,89
 296 335 296 335 319 350 c 1,72,73
EndSplineSet
Validated: 19489
EndChar

StartChar: TotoBA
Encoding: 123537 123537 22
Width: 588
Flags: W
HStem: 1 106<79 80 152 279.986> 475 105<247.883 413.054>
VStem: 80 86<-191 -1.87549> 80 72<-191 0> 80 62<110 356.219> 493 57<244.742 403.031>
LayerCount: 2
Fore
SplineSet
145 110 m 1,0,1
 275.0005 119 275.0005 119 350 151 c 128,-1,2
 425 182.9995 425 182.9995 459 226 c 0,3,4
 477 248.0005 477 248.0005 485 273 c 0,5,6
 492.9995 297 492.9995 297 493 321 c 0,7,8
 493 394.0005 493 394.0005 444 435 c 0,9,10
 394.0005 475.0005 394.0005 475.0005 334 475 c 0,11,12
 250 475 250 475 196 412 c 0,13,14
 142 350.0005 142 350.0005 142 222 c 0,15,16
 142 200 142 200 143 171 c 128,-1,17
 144 142 144 142 145 110 c 1,0,1
80 -191 m 1,18,-1
 80 -95 l 1,19,-1
 80 1 l 1,20,-1
 79 1 l 1,21,-1
 39 41 l 1,22,-1
 -1 81 l 1,23,-1
 -1 93 l 2,24,25
 -1 100.99995 -1 100.99995 0 107 c 1,26,27
 21 105.9995 21 105.9995 41 106 c 128,-1,28
 61 106 61 106 80 107 c 1,29,-1
 80 175 l 1,30,-1
 80 253 l 2,31,32
 80 406 80 406 142 493 c 128,-1,33
 203.9995 580 203.9995 580 316 580 c 0,34,35
 359.0005 580 359.0005 580 394 567 c 0,36,37
 428.9995 553.0005 428.9995 553.0005 456 531 c 0,38,39
 505.0005 489 505.0005 489 528 425 c 0,40,41
 550.0005 360.9995 550.0005 360.9995 550 302 c 0,42,43
 550 237.0005 550 237.0005 518 170 c 0,44,45
 486.0005 102.0005 486.0005 102.0005 403 57 c 0,46,47
 358 31.99995 358 31.99995 296 17 c 128,-1,48
 234.0005 2 234.0005 2 152 0 c 1,49,50
 155 -60 155 -60 159 -122 c 0,51,52
 163.0005 -185 163.0005 -185 166 -242 c 1,53,54
 162 -245 162 -245 155 -249 c 128,-1,55
 147.9995 -253.0005 147.9995 -253.0005 144 -255 c 1,56,-1
 112 -223 l 1,57,-1
 80 -191 l 1,18,-1
EndSplineSet
Validated: 19489
EndChar

StartChar: TotoTA
Encoding: 123538 123538 23
Width: 504
Flags: W
HStem: 149 91<153.094 220 263 343.991> 477 97<176.164 358.715>
VStem: 45 55<286.053 407.125> 220 73<7.64281 137.3> 415 55<305.367 430.297>
LayerCount: 2
Fore
SplineSet
269 477 m 0,0,1
 192.9995 477 192.9995 477 147 435 c 0,2,3
 100.0005 394.0005 100.0005 394.0005 100 344 c 0,4,5
 100 294.9995 100 294.9995 143 267 c 0,6,7
 186.0005 240 186.0005 240 246 240 c 0,8,9
 322.9995 240 322.9995 240 369 279 c 0,10,11
 415.0005 319.0005 415.0005 319.0005 415 373 c 0,12,13
 415 422.0005 415 422.0005 372 449 c 0,14,15
 328.9995 477.0005 328.9995 477.0005 269 477 c 0,0,1
273 -23 m 1,16,17
 262.9995 -12.99995 262.9995 -12.99995 246 3 c 0,18,19
 229.9995 19.99995 229.9995 19.99995 220 30 c 1,20,-1
 220 86 l 1,21,-1
 220 149 l 1,22,23
 131.0005 162.9995 131.0005 162.9995 88 226 c 0,24,25
 44.99995 290.0005 44.99995 290.0005 45 364 c 0,26,27
 45 449.0005 45 449.0005 101 511 c 0,28,29
 156.0005 574 156.0005 574 253 574 c 0,30,31
 362.9995 574 362.9995 574 416 506 c 0,32,33
 470 438.9995 470 438.9995 470 356 c 0,34,35
 470 270.9995 470 270.9995 414 208 c 0,36,37
 358.9995 145 358.9995 145 263 145 c 1,38,39
 269 140.0005 269 140.0005 278 130 c 0,40,41
 288.0005 121 288.0005 121 293 115 c 1,42,-1
 293 51 l 1,43,-1
 293 -13 l 1,44,-1
 283 -18 l 1,45,-1
 273 -23 l 1,16,17
EndSplineSet
Validated: 19489
EndChar

StartChar: TotoDA
Encoding: 123539 123539 24
Width: 546
Flags: W
HStem: -107 95<165.549 352.353> 224 95<184.248 228 304 370.906> 478 100<100 228 274 424>
VStem: 55 55<32.9702 155.715> 228 76<315.484 448> 424 55<54.9758 179.03>
LayerCount: 2
Fore
SplineSet
273 -107 m 0,0,1
 160.9995 -107 160.9995 -107 108 -39 c 128,-1,2
 55.00005 28.999995 55.00005 28.999995 55 112 c 0,3,4
 55 188.0005 55 188.0005 101 248 c 128,-1,5
 147.0005 308 147.0005 308 228 319 c 1,6,-1
 228 399 l 1,7,-1
 228 478 l 1,8,-1
 164 478 l 1,9,-1
 100 478 l 1,10,-1
 60 518 l 1,11,-1
 20 558 l 1,12,13
 21.99995 562.0005 21.99995 562.0005 26 568 c 128,-1,14
 30.00005 574 30.00005 574 32 578 c 1,15,-1
 92 578 l 1,16,-1
 163 578 l 1,17,-1
 304 578 l 1,18,-1
 424 578 l 1,19,-1
 464 538 l 1,20,-1
 504 498 l 1,21,22
 502.0005 493.9995 502.0005 493.9995 498 488 c 128,-1,23
 493.9995 482 493.9995 482 492 478 c 1,24,-1
 383 478 l 1,25,-1
 274 478 l 1,26,-1
 289 463 l 1,27,-1
 304 448 l 1,28,-1
 304 387 l 1,29,-1
 304 319 l 1,30,31
 392.9995 305.0005 392.9995 305.0005 436 241 c 0,32,33
 479.0005 178 479.0005 178 479 103 c 0,34,35
 479 19 479 19 424 -44 c 128,-1,36
 368.9995 -107 368.9995 -107 273 -107 c 0,0,1
278 224 m 0,37,38
 201.9995 224 201.9995 224 156 183 c 0,39,40
 109.9995 141 109.9995 141 110 91 c 0,41,42
 110 41.99995 110 41.99995 153 15 c 128,-1,43
 196.0005 -12 196.0005 -12 256 -12 c 0,44,45
 332.0005 -12 332.0005 -12 378 27 c 0,46,47
 424.0005 67.00005 424.0005 67.00005 424 121 c 0,48,49
 424 170.0005 424 170.0005 381 197 c 128,-1,50
 337.9995 224 337.9995 224 278 224 c 0,37,38
EndSplineSet
Validated: 19489
EndChar

StartChar: TotoKA
Encoding: 123540 123540 25
Width: 567
Flags: W
HStem: 471 105<226.477 395.988>
VStem: 61 86<-195 5.02878> 61 64<-147.119 358.007> 475 56<214.272 398.677>
LayerCount: 2
Fore
SplineSet
147 -246 m 1,0,1
 142.9995 -247.9995 142.9995 -247.9995 136 -252 c 128,-1,2
 128.9995 -256.0005 128.9995 -256.0005 125 -259 c 1,3,-1
 93 -227 l 1,4,-1
 61 -195 l 1,5,-1
 61 13 l 1,6,-1
 61 249 l 2,7,8
 61 403.0005 61 403.0005 124 490 c 0,9,10
 185.9995 575.9995 185.9995 575.9995 297 576 c 0,11,12
 340.9995 576 340.9995 576 376 563 c 128,-1,13
 410.9995 549.9995 410.9995 549.9995 437 527 c 0,14,15
 486.9995 483.9995 486.9995 483.9995 509 419 c 128,-1,16
 531.0005 354.0005 531.0005 354.0005 531 291 c 0,17,18
 531 231 531 231 506 149 c 0,19,20
 480.9995 66.00005 480.9995 66.00005 410 -3 c 1,21,22
 387.0005 15 387.0005 15 366 37 c 0,23,24
 343.9995 58 343.9995 58 330 77 c 1,25,26
 385.9995 114.0005 385.9995 114.0005 431 175 c 0,27,28
 474.9995 236.9995 474.9995 236.9995 475 314 c 0,29,30
 475 390.0005 475 390.0005 425 431 c 0,31,32
 375.9995 471.0005 375.9995 471.0005 315 471 c 0,33,34
 231 471 231 471 177 409 c 0,35,36
 123 346 123 346 123 218 c 0,37,38
 123 192.0005 123 192.0005 125 156 c 0,39,40
 126.0005 121.0005 126.0005 121.0005 128 81 c 0,41,42
 132.0005 4.99995 132.0005 4.99995 138 -81 c 0,43,44
 142.9995 -166.9995 142.9995 -166.9995 147 -246 c 1,0,1
EndSplineSet
Validated: 19489
EndChar

StartChar: TotoGA
Encoding: 123541 123541 26
Width: 453
Flags: W
HStem: -258 93<115.129 302.708> 15 89<146.614 192 260 341.231> 211 91<115.129 192 233 302.708> 482 92<147.65 340.672>
VStem: 24 55<-137.65 -41.9871 330.546 425.052> 192 68<103.615 203.947> 373 55<-106.202 -13.3096 361.446 453.761>
CounterMasks: 1 0e
LayerCount: 2
Fore
SplineSet
24 -79 m 0,0,1
 24 -11.00005 24 -11.00005 68 41 c 0,2,3
 113 92 113 92 192 104 c 1,4,-1
 192 154 l 1,5,-1
 192 211 l 1,6,7
 102 218.0005 102 218.0005 63 270 c 128,-1,8
 24 322.0005 24 322.0005 24 388 c 0,9,10
 24 464.9995 24 464.9995 79 519 c 0,11,12
 134.9995 574.0005 134.9995 574.0005 232 574 c 0,13,14
 338.0005 574 338.0005 574 383 519 c 0,15,16
 428 465 428 465 428 396 c 0,17,18
 428 321 428 321 376 268 c 0,19,20
 323.9995 214 323.9995 214 233 210 c 1,21,22
 237.9995 204 237.9995 204 246 195 c 0,23,24
 255 184.9995 255 184.9995 260 180 c 1,25,-1
 260 145 l 1,26,-1
 260 106 l 1,27,28
 350 98.0005 350 98.0005 389 45 c 0,29,30
 428 -7.00005 428 -7.00005 428 -71 c 0,31,32
 428 -149 428 -149 372 -203 c 0,33,34
 316.9995 -258.0005 316.9995 -258.0005 219 -258 c 0,35,36
 114 -258 114 -258 69 -204 c 0,37,38
 24 -148.9995 24 -148.9995 24 -79 c 0,0,1
202 302 m 0,39,40
 277 302 277 302 325 337 c 0,41,42
 373 373 373 373 373 411 c 0,43,44
 373 444 373 444 338 463 c 128,-1,45
 303.0005 482.0005 303.0005 482.0005 249 482 c 0,46,47
 174 482 174 482 126 448 c 0,48,49
 79.00005 413.9995 79.00005 413.9995 79 374 c 0,50,51
 79 339.9995 79 339.9995 114 321 c 0,52,53
 150 301.9995 150 301.9995 202 302 c 0,39,40
202 -165 m 0,54,55
 277 -165 277 -165 325 -130 c 0,56,57
 373 -94 373 -94 373 -56 c 0,58,59
 373 -23 373 -23 338 -4 c 128,-1,60
 303.0005 15.000005 303.0005 15.000005 249 15 c 0,61,62
 174 15 174 15 126 -19 c 0,63,64
 79.00005 -53.00005 79.00005 -53.00005 79 -93 c 0,65,66
 79 -127.9995 79 -127.9995 114 -147 c 0,67,68
 150 -165 150 -165 202 -165 c 0,54,55
EndSplineSet
Validated: 19489
EndChar

StartChar: TotoMA
Encoding: 123542 123542 27
Width: 528
Flags: W
HStem: 459 100<160 424.581>
VStem: 94 80<53 387.558> 94 73<69.4023 458.06> 415 82<53 424.952> 420 77<80.8657 459>
LayerCount: 2
Fore
SplineSet
474 -11 m 1,0,1
 462 1 462 1 443 21 c 2,2,-1
 411 53 l 1,3,4
 413 102 413 102 415 177 c 0,5,6
 418 252 418 252 420 324 c 0,7,8
 421.9995 363 421.9995 363 423 398 c 128,-1,9
 424 433 424 433 425 459 c 1,10,-1
 385 459 l 1,11,-1
 337 459 l 1,12,-1
 241 459 l 1,13,-1
 160 459 l 1,14,15
 161.9995 429 161.9995 429 163 390 c 0,16,17
 165 351 165 351 167 307 c 0,18,19
 170 226 170 226 174 142 c 128,-1,20
 178.0005 58 178.0005 58 180 2 c 1,21,22
 175.9995 5.0000000007e-07 175.9995 5.0000000007e-07 169 -4 c 128,-1,23
 161.9995 -8.000005 161.9995 -8.000005 157 -11 c 1,24,25
 145 1 145 1 126 21 c 2,26,-1
 94 53 l 1,27,-1
 94 177 l 1,28,-1
 94 324 l 1,29,-1
 94 398 l 1,30,-1
 94 459 l 1,31,-1
 54 499 l 1,32,-1
 14 539 l 1,33,34
 15.99995 543.0005 15.99995 543.0005 20 549 c 0,35,36
 24.00005 556.0005 24.00005 556.0005 26 559 c 2,37,-1
 146 559 l 1,38,-1
 287 559 l 1,39,-1
 358 559 l 1,40,-1
 417 559 l 1,41,42
 432 545.0005 432 545.0005 457 521 c 0,43,44
 482.0005 495.9995 482.0005 495.9995 497 482 c 1,45,-1
 497 409 l 1,46,-1
 497 322 l 1,47,-1
 497 149 l 1,48,-1
 497 2 l 1,49,50
 492.9995 5.0000000007e-07 492.9995 5.0000000007e-07 486 -4 c 128,-1,51
 478.9995 -8.000005 478.9995 -8.000005 474 -11 c 1,0,1
EndSplineSet
Validated: 19457
EndChar

StartChar: TotoNA
Encoding: 123543 123543 28
Width: 865
Flags: W
HStem: 1 96<149.728 298.234 549.622 698.546> 336 95<168.869 318 569.766 717.895>
VStem: 51 55<138.529 271.695> 361 55<162.94 294.241> 453 53<140.219 270.656> 762 56<161.469 293.731>
LayerCount: 2
Fore
SplineSet
658 719 m 1,0,1
 662 716 662 716 669 713 c 0,2,3
 676.0005 708.9995 676.0005 708.9995 680 706 c 0,4,5
 681.0005 688 681.0005 688 683 657 c 128,-1,6
 684.9995 625.9995 684.9995 625.9995 686 607 c 1,7,8
 669.0005 596.0005 669.0005 596.0005 647 582 c 128,-1,9
 624.9995 568.0005 624.9995 568.0005 600 552 c 0,10,11
 555 523.0005 555 523.0005 508 492 c 0,12,13
 460 462 460 462 429 441 c 1,14,-1
 418 441 l 1,15,-1
 406 441 l 1,16,17
 404.9995 453 404.9995 453 403 471 c 0,18,19
 400 490.0005 400 490.0005 399 501 c 1,20,21
 457.0005 555 457.0005 555 522 609 c 128,-1,22
 586.9995 663 586.9995 663 658 719 c 1,0,1
639 431 m 0,23,24
 643.0005 431 643.0005 431 648 430 c 0,25,26
 736.0005 428.0005 736.0005 428.0005 776 369 c 0,27,28
 818 307.0005 818 307.0005 818 226 c 0,29,30
 818 134.9995 818 134.9995 770 68 c 128,-1,31
 722 0.99995 722 0.99995 633 1 c 0,32,33
 538.9995 1 538.9995 1 496 62 c 128,-1,34
 452.9995 123.0005 452.9995 123.0005 453 207 c 0,35,36
 453 295.9995 453 295.9995 502 363 c 0,37,38
 551.0005 430.9995 551.0005 430.9995 639 431 c 0,23,24
236 431 m 0,39,40
 330.9995 431 330.9995 431 374 369 c 0,41,42
 416 307.0005 416 307.0005 416 226 c 0,43,44
 416 134.9995 416 134.9995 368 68 c 0,45,46
 318.9995 0.99995 318.9995 0.99995 231 1 c 0,47,48
 136.0005 1 136.0005 1 93 63 c 0,49,50
 51 124.0005 51 124.0005 51 207 c 0,51,52
 51 297 51 297 100 364 c 0,53,54
 148 431.0005 148 431.0005 236 431 c 0,39,40
222 97 m 0,55,56
 285 97 285 97 323 140 c 0,57,58
 360.9995 183.9995 360.9995 183.9995 361 231 c 0,59,60
 361 276 361 276 329 306 c 0,61,62
 296 336 296 336 246 336 c 0,63,64
 183 336 183 336 144 294 c 0,65,66
 106.0005 250.9995 106.0005 250.9995 106 202 c 0,67,68
 106 155.9995 106 155.9995 139 127 c 0,69,70
 172 97 172 97 222 97 c 0,55,56
622 97 m 0,71,72
 685 97 685 97 724 140 c 0,73,74
 761.9995 183.0005 761.9995 183.0005 762 231 c 0,75,76
 762 276 762 276 729 306 c 0,77,78
 697.0005 336 697.0005 336 646 336 c 0,79,80
 583 336 583 336 545 293 c 0,81,82
 506 251 506 251 506 202 c 0,83,84
 506 155.9995 506 155.9995 540 126 c 0,85,86
 573 97.0005 573 97.0005 622 97 c 0,71,72
EndSplineSet
Validated: 19489
EndChar

StartChar: TotoNGA
Encoding: 123544 123544 29
Width: 495
Flags: W
HStem: 2 95<147.549 334.353> 333 98<165.73 350.496>
VStem: 37 55<141.97 264.143> 406 55<163.976 286.517>
LayerCount: 2
Fore
SplineSet
367 713 m 0,0,1
 371.0005 711.0005 371.0005 711.0005 377 707 c 0,2,3
 383 704 383 704 387 701 c 0,4,5
 388.0005 683 388.0005 683 390 652 c 0,6,7
 391.0005 620.9995 391.0005 620.9995 393 602 c 1,8,9
 366 588.0005 366 588.0005 325 565 c 0,10,11
 285 543 285 543 246 521 c 0,12,13
 225 510 225 510 206 499 c 0,14,15
 186.9995 488.9995 186.9995 488.9995 173 481 c 1,16,-1
 161 481 l 1,17,-1
 150 481 l 1,18,19
 148 493 148 493 146 514 c 0,20,21
 144.0005 533.9995 144.0005 533.9995 143 546 c 1,22,23
 192 587 192 587 249 628 c 0,24,25
 306 670 306 670 367 713 c 0,0,1
255 2 m 0,26,27
 142.9995 2 142.9995 2 90 70 c 128,-1,28
 37.00005 137.9995 37.00005 137.9995 37 221 c 0,29,30
 37 305 37 305 92 368 c 0,31,32
 147.9995 431 147.9995 431 244 431 c 0,33,34
 277 431 277 431 305 425 c 0,35,36
 371 410 371 410 408 363 c 0,37,38
 460.9995 295.0005 460.9995 295.0005 461 212 c 0,39,40
 461 128 461 128 406 65 c 128,-1,41
 350.9995 2 350.9995 2 255 2 c 0,26,27
260 333 m 0,42,43
 183.9995 333 183.9995 333 138 292 c 0,44,45
 91.9995 250 91.9995 250 92 200 c 0,46,47
 92 150.9995 92 150.9995 135 124 c 128,-1,48
 178.0005 97 178.0005 97 238 97 c 0,49,50
 314.0005 97 314.0005 97 360 136 c 0,51,52
 406.0005 176.0005 406.0005 176.0005 406 230 c 0,53,54
 406 279.0005 406 279.0005 363 306 c 128,-1,55
 319.9995 333 319.9995 333 260 333 c 0,42,43
EndSplineSet
Validated: 19489
EndChar

StartChar: TotoSA
Encoding: 123545 123545 30
Width: 659
Flags: W
HStem: 1 95<79.7896 177.646 444.221 546.753>
VStem: 2 47<131.762 170.999> 270 127<331.317 524.854>
LayerCount: 2
Fore
SplineSet
328 185 m 1,0,1
 294 107 294 107 247 54 c 128,-1,2
 200 1 200 1 143 1 c 0,3,4
 118 1 118 1 98 10 c 0,5,6
 78 20 78 20 62 35 c 0,7,8
 34 63 34 63 21 101 c 0,9,10
 7 139 7 139 2 164 c 1,11,12
 11 167 11 167 24 171 c 128,-1,13
 37 175 37 175 49 179 c 1,14,15
 56 156 56 156 74 126 c 128,-1,16
 92 96 92 96 126 96 c 0,17,18
 159 96 159 96 189 129 c 0,19,20
 219 163 219 163 244 208 c 0,21,22
 257 233 257 233 268 259 c 0,23,24
 280 284 280 284 288 308 c 1,25,26
 279 346 279 346 274 380 c 0,27,28
 270 413 270 413 270 437 c 0,29,30
 270 480 270 480 279 517 c 0,31,32
 287 554 287 554 295 571 c 0,33,34
 299 573 299 573 306 577 c 128,-1,35
 313 581 313 581 317 583 c 1,36,37
 332 568 332 568 355 546 c 0,38,39
 377 523 377 523 397 503 c 1,40,41
 397 450 397 450 387 388 c 0,42,43
 376 325 376 325 357 264 c 1,44,45
 369 232 369 232 389 193 c 128,-1,46
 409 154 409 154 434 128 c 0,47,48
 448 113 448 113 462 104 c 0,49,50
 477 96 477 96 492 96 c 0,51,52
 509 96 509 96 522 102 c 0,53,54
 536 108 536 108 546 117 c 0,55,56
 565 134 565 134 576 158 c 0,57,58
 586 181 586 181 592 194 c 1,59,-1
 602 194 l 1,60,-1
 612 194 l 1,61,62
 619 182 619 182 631 166 c 0,63,64
 642 149 642 149 652 134 c 1,65,66
 649 124 649 124 636 92 c 0,67,68
 624 60 624 60 595 34 c 0,69,70
 580 19 580 19 560 10 c 128,-1,71
 540 1 540 1 514 1 c 0,72,73
 452 1 452 1 406 56 c 0,74,75
 359 111 359 111 328 185 c 1,0,1
EndSplineSet
Validated: 3073
EndChar

StartChar: TotoCHA
Encoding: 123546 123546 31
Width: 482
Flags: W
VStem: 357 76<129 436>
LayerCount: 2
Fore
SplineSet
5 318 m 1,0,1
 99.00005 370.9995 99.00005 370.9995 188 438 c 128,-1,2
 276.9995 505.0005 276.9995 505.0005 357 569 c 1,3,-1
 369 569 l 1,4,-1
 380 569 l 1,5,6
 390.0005 558.9995 390.0005 558.9995 407 543 c 0,7,8
 423.0005 526.0005 423.0005 526.0005 433 516 c 1,9,-1
 433 439 l 1,10,-1
 433 346 l 1,11,-1
 433 162 l 1,12,-1
 433 6 l 1,13,14
 428.9995 4.000005 428.9995 4.000005 423 0 c 0,15,16
 415.9995 -3 415.9995 -3 410 -7 c 1,17,18
 338 53 338 53 254 110 c 128,-1,19
 170 167 170 167 78 218 c 1,20,21
 64.99995 233 64.99995 233 42 258 c 128,-1,22
 19.00005 283.0005 19.00005 283.0005 5 298 c 1,23,-1
 5 308 l 1,24,-1
 5 318 l 1,0,1
129 274 m 1,25,26
 199.0005 233.9995 199.0005 233.9995 243 205 c 128,-1,27
 286.9995 176.0005 286.9995 176.0005 347 127 c 0,28,29
 349 128 349 128 352 129 c 0,30,31
 355 129 355 129 357 130 c 2,32,-1
 357 177 l 1,33,-1
 357 232 l 1,34,-1
 357 343 l 1,35,-1
 357 436 l 1,36,-1
 353 438 l 2,37,38
 350 438 350 438 347 439 c 0,39,40
 297.9995 398.0005 297.9995 398.0005 242 359 c 128,-1,41
 186.0005 320 186.0005 320 129 284 c 1,42,-1
 129 280 l 1,43,-1
 129 274 l 1,25,26
EndSplineSet
Validated: 19457
EndChar

StartChar: TotoYA
Encoding: 123547 123547 32
Width: 589
Flags: W
HStem: 476 100<164 338 407 487>
LayerCount: 2
Fore
SplineSet
81 218 m 1,0,1
 73.00005 234.0005 73.00005 234.0005 60 262 c 0,2,3
 46.00005 289 46.00005 289 38 306 c 1,4,-1
 44 315 l 2,5,6
 47 321 47 321 51 326 c 1,7,8
 108 297.9995 108 297.9995 154 245 c 0,9,10
 199 192.9995 199 192.9995 225 142 c 1,11,-1
 229 142 l 1,12,-1
 233 142 l 1,13,14
 252.0005 224.9995 252.0005 224.9995 278 309 c 0,15,16
 305 393 305 393 338 476 c 1,17,-1
 251 476 l 1,18,-1
 164 476 l 1,19,-1
 124 516 l 1,20,-1
 84 556 l 2,21,22
 85.99995 559 85.99995 559 90 566 c 0,23,24
 94.00005 572 94.00005 572 96 576 c 1,25,-1
 155 576 l 1,26,-1
 226 576 l 1,27,-1
 367 576 l 1,28,-1
 487 576 l 1,29,-1
 527 536 l 1,30,-1
 567 496 l 1,31,32
 564 492 564 492 560 486 c 0,33,34
 555.9995 478.9995 555.9995 478.9995 554 476 c 2,35,-1
 481 476 l 1,36,-1
 407 476 l 1,37,38
 410 470 410 470 415 461 c 0,39,40
 419 453 419 453 423 446 c 1,41,42
 373.9995 333.0005 373.9995 333.0005 338 219 c 128,-1,43
 302 105 302 105 281 -7 c 0,44,45
 276.9995 -10 276.9995 -10 271 -14 c 128,-1,46
 265 -18.00005 265 -18.00005 261 -20 c 1,47,48
 228 47.00005 228 47.00005 176 117 c 0,49,50
 123.0005 186 123.0005 186 81 218 c 1,0,1
EndSplineSet
Validated: 19457
EndChar

StartChar: TotoWA
Encoding: 123548 123548 33
Width: 612
Flags: W
HStem: 99 110<107.261 186.996> 474 105<213.21 409.643>
VStem: 39 65<209.969 364.437> 517 55<216.402 384.119>
LayerCount: 2
Fore
SplineSet
289 38 m 1,0,-1
 294 48 l 2,1,2
 297 54 297 54 299 60 c 1,3,4
 384.9995 96 384.9995 96 451 159 c 128,-1,5
 517 222 517 222 517 301 c 0,6,7
 517 379 517 379 458 426 c 0,8,9
 398 474 398 474 316 474 c 0,10,11
 235 474 235 474 184 434 c 128,-1,12
 133 393.9995 133 393.9995 114 337 c 0,13,14
 103.9995 307 103.9995 307 104 274 c 0,15,16
 102.9995 239.9995 102.9995 239.9995 112 209 c 1,17,-1
 146 209 l 1,18,-1
 185 209 l 1,19,20
 213.0005 161 213.0005 161 194 130 c 128,-1,21
 174.9995 98.9995 174.9995 98.9995 140 99 c 0,22,23
 105.9995 99 105.9995 99 84 129 c 128,-1,24
 61.99995 159 61.99995 159 51 200 c 0,25,26
 45 223 45 223 42 246 c 0,27,28
 39 270 39 270 39 292 c 0,29,30
 39 331 39 331 48 368 c 0,31,32
 55.99995 405.9995 55.99995 405.9995 73 438 c 0,33,34
 104.00005 499.9995 104.00005 499.9995 161 539 c 0,35,36
 218 579.0005 218 579.0005 297 579 c 0,37,38
 388.0005 579 388.0005 579 448 536 c 0,39,40
 509.0005 492.9995 509.0005 492.9995 539 429 c 0,41,42
 555.9995 394.0005 555.9995 394.0005 564 355 c 0,43,44
 571.9995 317.0005 571.9995 317.0005 572 278 c 0,45,46
 572 171.0005 572 171.0005 525 110 c 128,-1,47
 478.0005 48.99995 478.0005 48.99995 399 1 c 1,48,49
 423 -26 423 -26 462 -71 c 128,-1,50
 501 -116 501 -116 524 -143 c 1,51,52
 522.9995 -162.0005 522.9995 -162.0005 521 -193 c 0,53,54
 519.0005 -224.9995 519.0005 -224.9995 518 -243 c 0,55,56
 514 -246 514 -246 507 -249 c 0,57,58
 499.9995 -253.0005 499.9995 -253.0005 496 -255 c 1,59,60
 482.0005 -235.9995 482.0005 -235.9995 464 -211 c 0,61,62
 447.0005 -185.9995 447.0005 -185.9995 427 -158 c 0,63,64
 389.9995 -105.9995 389.9995 -105.9995 352 -52 c 128,-1,65
 314.0005 2 314.0005 2 289 38 c 1,0,-1
221 -86 m 1,66,-1
 231 -86 l 1,67,-1
 241 -86 l 1,68,69
 260.0005 -110 260.0005 -110 290 -146 c 128,-1,70
 320 -182 320 -182 348 -216 c 0,71,72
 363 -235.0005 363 -235.0005 377 -252 c 0,73,74
 390.9995 -268.0005 390.9995 -268.0005 402 -281 c 1,75,76
 400 -300 400 -300 398 -331 c 128,-1,77
 396 -362 396 -362 394 -381 c 0,78,79
 389.9995 -382.9995 389.9995 -382.9995 384 -387 c 0,80,81
 376.9995 -390 376.9995 -390 372 -393 c 1,82,83
 328 -331 328 -331 288 -269 c 0,84,85
 249 -207.0005 249 -207.0005 213 -146 c 1,86,87
 215 -135 215 -135 217 -116 c 0,88,89
 219 -98 219 -98 221 -86 c 1,66,-1
EndSplineSet
Validated: 19489
EndChar

StartChar: TotoJA
Encoding: 123549 123549 34
Width: 574
Flags: W
HStem: -254 92<121.847 305.692> -234 95<488.027 594.879> 29 92<153.95 312.866> 198 93<124.705 309.47> 482 92<159.738 348.857>
VStem: 34 55<-132.201 -27.4781 321.642 421.616> 383 55<354.212 452.374>
LayerCount: 2
Fore
SplineSet
243 574 m 0,0,1
 348 574 348 574 393 518 c 128,-1,2
 438 462.0005 438 462.0005 438 391 c 0,3,4
 438 311.0005 438 311.0005 383 255 c 0,5,6
 327.0005 198 327.0005 198 229 198 c 0,7,8
 124 198 124 198 79 254 c 128,-1,9
 34 309.9995 34 309.9995 34 383 c 0,10,11
 34 462.0005 34 462.0005 90 518 c 0,12,13
 145.0005 573.9995 145.0005 573.9995 243 574 c 0,0,1
213 291 m 0,14,15
 288 291 288 291 335 329 c 0,16,17
 383 366.0005 383 366.0005 383 406 c 0,18,19
 383 442 383 442 348 462 c 128,-1,20
 313.0005 481.9995 313.0005 481.9995 259 482 c 0,21,22
 184 482 184 482 137 446 c 0,23,24
 89 411.0005 89 411.0005 89 368 c 0,25,26
 89 332 89 332 125 311 c 0,27,28
 159.9995 291.0005 159.9995 291.0005 213 291 c 0,14,15
376 -69 m 1,29,30
 352 -28.99995 352 -28.99995 322 0 c 0,31,32
 290.9995 28.99995 290.9995 28.99995 239 29 c 0,33,34
 176 29 176 29 133 -6 c 0,35,36
 89.0005 -40.99995 89.0005 -40.99995 89 -85 c 0,37,38
 89 -122.0005 89 -122.0005 124 -142 c 128,-1,39
 158.9995 -161.9995 158.9995 -161.9995 213 -162 c 0,40,41
 276 -160.9995 276 -160.9995 319 -133 c 0,42,43
 362.0005 -104.0005 362.0005 -104.0005 376 -69 c 1,29,30
412 -133 m 1,44,45
 395.0005 -185.9995 395.0005 -185.9995 349 -220 c 0,46,47
 304 -254.0005 304 -254.0005 229 -254 c 0,48,49
 124 -254 124 -254 79 -198 c 128,-1,50
 34 -142.0005 34 -142.0005 34 -70 c 0,51,52
 34 9.00005 34 9.00005 86 65 c 128,-1,53
 138.0005 120.9995 138.0005 120.9995 235 121 c 2,54,-1
 237 121 l 2,55,56
 289.0005 121 289.0005 121 322 100 c 0,57,58
 356.9995 79 356.9995 79 381 48 c 0,59,60
 409.9995 10.99995 409.9995 10.99995 430 -32 c 0,61,62
 449.0005 -75.00005 449.0005 -75.00005 474 -104 c 0,63,64
 487.9995 -120.0005 487.9995 -120.0005 504 -129 c 0,65,66
 520.0005 -139.0005 520.0005 -139.0005 542 -139 c 0,67,68
 558.0005 -139 558.0005 -139 571 -133 c 128,-1,69
 584.0005 -127 584.0005 -127 595 -117 c 0,70,71
 614.0005 -100.0005 614.0005 -100.0005 625 -77 c 128,-1,72
 635.9995 -54.00005 635.9995 -54.00005 642 -41 c 1,73,-1
 652 -41 l 1,74,-1
 662 -41 l 1,75,76
 669.0005 -51.99995 669.0005 -51.99995 680 -69 c 0,77,78
 692 -85.99995 692 -85.99995 702 -101 c 1,79,80
 699 -110 699 -110 686 -142 c 0,81,82
 672.0005 -173.9995 672.0005 -173.9995 642 -201 c 0,83,84
 625.0005 -214.9995 625.0005 -214.9995 603 -224 c 0,85,86
 582 -234.0005 582 -234.0005 554 -234 c 0,87,88
 498.9995 -234 498.9995 -234 467 -203 c 0,89,90
 435.9995 -173 435.9995 -173 412 -133 c 1,44,45
EndSplineSet
Validated: 19489
EndChar

StartChar: TotoHA
Encoding: 123550 123550 35
Width: 536
Flags: W
HStem: -12 110<111.913 191.833> 471 105<186.138 362.857>
VStem: 31 65<101.613 365.203> 424 76<24.6428 397.238>
LayerCount: 2
Fore
SplineSet
96 251 m 0,0,1
 96 215 96 215 100 176 c 0,2,3
 104.9995 137 104.9995 137 118 98 c 1,4,-1
 152 98 l 1,5,-1
 191 98 l 1,6,7
 218 51.00005 218 51.00005 199 20 c 0,8,9
 181 -11.999995 181 -11.999995 145 -12 c 0,10,11
 112 -12 112 -12 86 26 c 0,12,13
 60.99995 63.99995 60.99995 63.99995 47 123 c 0,14,15
 39.00005 154.0005 39.00005 154.0005 35 189 c 0,16,17
 30.99995 225 30.99995 225 31 261 c 0,18,19
 31 301.9995 31 301.9995 37 342 c 128,-1,20
 43 382.0005 43 382.0005 56 418 c 0,21,22
 81.00005 485.0005 81.00005 485.0005 133 531 c 0,23,24
 185.9995 576 185.9995 576 274 576 c 0,25,26
 392.0005 576 392.0005 576 446 498 c 0,27,28
 500 418.9995 500 418.9995 500 292 c 2,29,-1
 500 249 l 1,30,-1
 500 197 l 1,31,-1
 500 93 l 1,32,-1
 500 6 l 1,33,34
 495.9995 3 495.9995 3 488 0 c 0,35,36
 480.9995 -4.000005 480.9995 -4.000005 477 -7 c 1,37,-1
 450 20 l 2,38,39
 433.9995 36.99995 433.9995 36.99995 424 47 c 1,40,-1
 424 147 l 1,41,-1
 424 261 l 2,42,43
 424 364.0005 424 364.0005 393 418 c 0,44,45
 361.0005 470.9995 361.0005 470.9995 279 471 c 0,46,47
 184.0005 471 184.0005 471 140 406 c 128,-1,48
 96.0005 341.0005 96.0005 341.0005 96 251 c 0,0,1
EndSplineSet
Validated: 19489
EndChar

StartChar: TotoRA
Encoding: 123551 123551 36
Width: 449
Flags: W
LayerCount: 2
Fore
SplineSet
384 -3 m 1,0,1
 319.9995 54 319.9995 54 243 112 c 0,2,3
 165 170.9995 165 170.9995 74 222 c 1,4,5
 60.99995 237 60.99995 237 38 262 c 128,-1,6
 15.00005 287.0005 15.00005 287.0005 1 302 c 1,7,-1
 1 312 l 1,8,-1
 1 322 l 1,9,10
 95.00005 374.0005 95.00005 374.0005 186 438 c 128,-1,11
 277.0005 502.0005 277.0005 502.0005 347 573 c 1,12,-1
 358 573 l 1,13,-1
 369 573 l 1,14,15
 381 562.0005 381 562.0005 398 545 c 0,16,17
 414.0005 528.0005 414.0005 528.0005 429 513 c 1,18,19
 405 489 405 489 378 465 c 0,20,21
 350 441 350 441 322 419 c 0,22,23
 269.0005 377 269.0005 377 217 344 c 0,24,25
 166 309.9995 166 309.9995 130 288 c 1,26,-1
 130 284 l 1,27,-1
 130 278 l 1,28,29
 197.9995 237.9995 197.9995 237.9995 280 170 c 0,30,31
 362.9995 102.0005 362.9995 102.0005 423 43 c 1,32,33
 415.9995 34 415.9995 34 405 21 c 0,34,35
 394.0005 9 394.0005 9 384 -3 c 1,0,1
EndSplineSet
Validated: 3073
EndChar

StartChar: TotoLA
Encoding: 123552 123552 37
Width: 608
Flags: W
HStem: 96 110<110.469 189.704> 472 105<217.321 412.476>
VStem: 520 55<215.188 380.062>
LayerCount: 2
Fore
SplineSet
292 35 m 1,0,1
 293.9995 39.99995 293.9995 39.99995 297 46 c 128,-1,2
 300 52 300 52 302 58 c 1,3,4
 387.9995 94 387.9995 94 454 157 c 128,-1,5
 520 220 520 220 520 299 c 0,6,7
 520 375.9995 520 375.9995 461 424 c 0,8,9
 401 472 401 472 319 472 c 0,10,11
 275.0005 472 275.0005 472 240 460 c 0,12,13
 205.0005 446.9995 205.0005 446.9995 179 426 c 0,14,15
 131 387 131 387 115 326 c 0,16,17
 98.9995 266 98.9995 266 115 206 c 1,18,-1
 150 206 l 1,19,-1
 188 206 l 1,20,21
 216.0005 159.0005 216.0005 159.0005 197 128 c 0,22,23
 177.9995 96.0005 177.9995 96.0005 143 96 c 0,24,25
 125 96 125 96 110 106 c 0,26,27
 95 115 95 115 84 131 c 0,28,29
 63 159.9995 63 159.9995 52 204 c 0,30,31
 41.99995 249 41.99995 249 42 290 c 0,32,33
 42 362 42 362 72 426 c 0,34,35
 100.99995 490.9995 100.99995 490.9995 156 531 c 0,36,37
 184.9995 553.0005 184.9995 553.0005 221 565 c 0,38,39
 258.0005 577 258.0005 577 300 577 c 0,40,41
 349.0005 577 349.0005 577 389 564 c 128,-1,42
 429.0005 550.9995 429.0005 550.9995 461 528 c 0,43,44
 519.0005 484.9995 519.0005 484.9995 547 417 c 0,45,46
 575.0005 348 575.0005 348 575 275 c 0,47,48
 575 168.9995 575 168.9995 528 108 c 0,49,50
 481.0005 46.00005 481.0005 46.00005 402 -1 c 1,51,52
 426 -28 426 -28 465 -73 c 0,53,54
 504 -119.0005 504 -119.0005 527 -146 c 1,55,56
 525.9995 -164 525.9995 -164 524 -196 c 0,57,58
 522.0005 -227.0005 522.0005 -227.0005 521 -246 c 0,59,60
 516.9995 -247.9995 516.9995 -247.9995 510 -251 c 0,61,62
 502.9995 -255.0005 502.9995 -255.0005 499 -257 c 1,63,64
 485.0005 -237.9995 485.0005 -237.9995 468 -213 c 0,65,66
 450 -187.9995 450 -187.9995 430 -160 c 0,67,68
 394 -107.9995 394 -107.9995 356 -54 c 128,-1,69
 318.0005 0 318.0005 0 292 35 c 1,0,1
EndSplineSet
Validated: 19489
EndChar

StartChar: TotoI
Encoding: 123553 123553 38
Width: 406
Flags: W
HStem: 476 96<90.5957 237.51>
VStem: 308 57<355.365 428.031> 319 57<87.3118 167.087>
LayerCount: 2
Fore
SplineSet
291 -259 m 1,0,1
 273 -238 273 -238 250 -211 c 128,-1,2
 227.0005 -184 227.0005 -184 201 -154 c 0,3,4
 154.0005 -98.0005 154.0005 -98.0005 104 -40 c 0,5,6
 54.99995 18.000005 54.99995 18.000005 22 56 c 1,7,8
 25 60.00005 25 60.00005 28 65 c 0,9,10
 32.00005 71 32.00005 71 35 76 c 1,11,12
 74 65.00005 74 65.00005 111 61 c 0,13,14
 148.0005 56.00005 148.0005 56.00005 181 57 c 0,15,16
 242.0005 58.99995 242.0005 58.99995 281 77 c 0,17,18
 318.9995 95 318.9995 95 319 125 c 0,19,20
 319 158 319 158 272 186 c 0,21,22
 224 214.0005 224 214.0005 145 222 c 1,23,24
 131.0005 237 131.0005 237 108 262 c 0,25,26
 84 287.0005 84 287.0005 70 302 c 0,27,28
 71.99995 305 71.99995 305 75 309 c 0,29,30
 78 313.9995 78 313.9995 80 317 c 0,31,32
 97 316 97 316 122 315 c 0,33,34
 147.0005 313.0005 147.0005 313.0005 169 312 c 0,35,36
 196 313.0005 196 313.0005 228 324 c 128,-1,37
 259.9995 334.9995 259.9995 334.9995 282 352 c 0,38,39
 294 361 294 361 301 371 c 128,-1,40
 308 381 308 381 308 391 c 0,41,42
 308 421 308 421 255 449 c 0,43,44
 202.0005 476 202.0005 476 111 476 c 1,45,46
 97.0005 491 97.0005 491 74 516 c 0,47,48
 50 541.0005 50 541.0005 36 556 c 0,49,50
 37.99995 559 37.99995 559 41 564 c 0,51,52
 44 568.0005 44 568.0005 46 571 c 0,53,54
 67 572.9995 67 572.9995 89 573 c 0,55,56
 105 573 105 573 122 572 c 0,57,58
 161 570.0005 161 570.0005 197 562 c 0,59,60
 266 547 266 547 315 506 c 0,61,62
 364.9995 465.0005 364.9995 465.0005 365 390 c 0,63,64
 365 346.9995 365 346.9995 343 313 c 0,65,66
 320.9995 280 320.9995 280 276 260 c 1,67,68
 331.0005 233 331.0005 233 354 192 c 0,69,70
 376.0005 150 376.0005 150 376 112 c 0,71,72
 376 37 376 37 313 -1 c 0,73,74
 248.9995 -38.99995 248.9995 -38.99995 173 -25 c 1,75,76
 200 -49 200 -49 246 -90 c 0,77,78
 291 -130.9995 291 -130.9995 318 -156 c 1,79,80
 317 -173 317 -173 316 -201 c 0,81,82
 314.0005 -229.0005 314.0005 -229.0005 313 -246 c 0,83,84
 308.9995 -247.9995 308.9995 -247.9995 302 -252 c 128,-1,85
 294.9995 -256.0005 294.9995 -256.0005 291 -259 c 1,0,1
EndSplineSet
Validated: 19489
EndChar

StartChar: TotoIbr
Encoding: 123554 123554 39
Width: 405
Flags: W
HStem: 477 96<91.989 237.206>
VStem: 309 57<356.32 428.445> 320 57<87.8885 168.004>
LayerCount: 2
Fore
SplineSet
292 -258 m 1,0,1
 274 -237 274 -237 251 -210 c 128,-1,2
 228.0005 -183 228.0005 -183 202 -153 c 0,3,4
 155.0005 -97.0005 155.0005 -97.0005 105 -39 c 0,5,6
 55.99995 18 55.99995 18 23 57 c 1,7,-1
 29 66 l 2,8,9
 32 72 32 72 36 77 c 1,10,11
 75 66.00005 75 66.00005 112 61 c 0,12,13
 149.0005 56.99995 149.0005 56.99995 182 58 c 0,14,15
 243.0005 59.00005 243.0005 59.00005 281 78 c 0,16,17
 320 96 320 96 320 126 c 0,18,19
 320 159 320 159 273 187 c 0,20,21
 225 215.0005 225 215.0005 146 223 c 1,22,23
 132.0005 238 132.0005 238 109 263 c 0,24,25
 85 288.0005 85 288.0005 71 303 c 0,26,27
 72.99995 306 72.99995 306 76 310 c 0,28,29
 79 314.9995 79 314.9995 81 318 c 0,30,31
 97.99995 316.9995 97.99995 316.9995 123 315 c 0,32,33
 148 314 148 314 170 313 c 0,34,35
 197 314.0005 197 314.0005 229 325 c 128,-1,36
 260.9995 335.9995 260.9995 335.9995 283 353 c 0,37,38
 295 360.9995 295 360.9995 302 371 c 0,39,40
 309.0005 381.9995 309.0005 381.9995 309 392 c 0,41,42
 309 422 309 422 256 450 c 0,43,44
 202 477 202 477 112 477 c 1,45,46
 98.0005 492 98.0005 492 75 517 c 0,47,48
 51 542.0005 51 542.0005 37 557 c 0,49,50
 39 560 39 560 42 564 c 128,-1,51
 45 568 45 568 47 572 c 0,52,53
 83 575 83 575 122 573 c 128,-1,54
 161 571.0005 161 571.0005 198 563 c 0,55,56
 267 546.9995 267 546.9995 316 507 c 0,57,58
 365.9995 466.0005 365.9995 466.0005 366 391 c 0,59,60
 366 347.9995 366 347.9995 343 314 c 0,61,62
 320.9995 279.9995 320.9995 279.9995 277 261 c 1,63,64
 332.0005 234 332.0005 234 354 192 c 0,65,66
 376.9995 151.0005 376.9995 151.0005 377 113 c 0,67,68
 377 36.99995 377 36.99995 313 0 c 0,69,70
 250 -37.99995 250 -37.99995 174 -24 c 1,71,72
 201 -48 201 -48 246 -90 c 0,73,74
 292.0005 -130.9995 292.0005 -130.9995 319 -155 c 1,75,76
 318 -172 318 -172 317 -200 c 0,77,78
 315.0005 -228.0005 315.0005 -228.0005 314 -245 c 0,79,80
 310 -248 310 -248 303 -252 c 0,81,82
 296 -255 296 -255 292 -258 c 1,0,1
48 -88 m 1,83,-1
 58 -88 l 1,84,-1
 68 -88 l 1,85,86
 87.00005 -113.0005 87.00005 -113.0005 116 -149 c 0,87,88
 146 -186.0005 146 -186.0005 174 -221 c 0,89,90
 189 -240.0005 189 -240.0005 202 -257 c 0,91,92
 215.9995 -275 215.9995 -275 227 -288 c 1,93,94
 225.9995 -306 225.9995 -306 224 -335 c 0,95,96
 222.0005 -365 222.0005 -365 222 -383 c 1,97,98
 217.9995 -384.9995 217.9995 -384.9995 212 -389 c 2,99,-1
 202 -395 l 1,100,101
 157 -333 157 -333 117 -271 c 128,-1,102
 76.99995 -209.0005 76.99995 -209.0005 41 -148 c 1,103,104
 42.00005 -137.0005 42.00005 -137.0005 44 -118 c 0,105,106
 47 -100 47 -100 48 -88 c 1,83,-1
EndSplineSet
Validated: 19489
EndChar

StartChar: TotoIU
Encoding: 123555 123555 40
Width: 573
Flags: W
HStem: 2 106<183.03 373.284> 481 106<194.105 387.214>
VStem: 17 57<192.886 364.25> 497 56<228.67 395.984>
LayerCount: 2
Fore
SplineSet
278 587 m 0,0,1
 327.0005 587 327.0005 587 367 573 c 0,2,3
 407.0005 559.9995 407.0005 559.9995 438 536 c 0,4,5
 496.9995 492.0005 496.9995 492.0005 525 422 c 0,6,7
 553.0005 353 553.0005 353 553 280 c 0,8,9
 553 164.0005 553 164.0005 483 83 c 0,10,11
 414 2 414 2 292 2 c 0,12,13
 242.9995 2 242.9995 2 203 16 c 0,14,15
 162.9995 29.00005 162.9995 29.00005 132 53 c 0,16,17
 73.99995 96.99995 73.99995 96.99995 45 166 c 0,18,19
 16.99995 236.0005 16.99995 236.0005 17 308 c 0,20,21
 17 425 17 425 87 506 c 128,-1,22
 157.0005 587 157.0005 587 278 587 c 0,0,1
268 108 m 0,23,24
 371.0005 108 371.0005 108 434 172 c 128,-1,25
 497 236.0005 497 236.0005 497 315 c 0,26,27
 497 391.0005 497 391.0005 439 436 c 0,28,29
 382 481 382 481 302 481 c 0,30,31
 198.9995 481 198.9995 481 136 419 c 0,32,33
 74.00005 357.9995 74.00005 357.9995 74 274 c 0,34,35
 74 197.9995 74 197.9995 131 153 c 0,36,37
 189.0005 108 189.0005 108 268 108 c 0,23,24
297 364 m 1,38,39
 307.0005 350.9995 307.0005 350.9995 323 330 c 0,40,41
 339.0005 310.0005 339.0005 310.0005 353 291 c 1,42,43
 333.0005 277.9995 333.0005 277.9995 314 262 c 0,44,45
 296 246 296 246 279 227 c 1,46,-1
 271 227 l 1,47,-1
 262 227 l 1,48,49
 253 239 253 239 237 259 c 128,-1,50
 220.9995 278.9995 220.9995 278.9995 212 291 c 1,51,52
 231.0005 313.0005 231.0005 313.0005 252 331 c 128,-1,53
 273 349 273 349 297 364 c 1,38,39
EndSplineSet
Validated: 19489
EndChar

StartChar: TotoIUbr
Encoding: 123556 123556 41
Width: 574
Flags: W
HStem: 1 106<183.187 372.089> 480 106<193.789 390.487>
VStem: 17 56<192.32 362.772> 496 57<227.813 396.558>
LayerCount: 2
Fore
SplineSet
278 586 m 0,0,1
 369.0005 586 369.0005 586 429 542 c 128,-1,2
 489 498.0005 489 498.0005 520 432 c 0,3,4
 536.0005 397.0005 536.0005 397.0005 545 358 c 0,5,6
 553 319 553 319 553 280 c 0,7,8
 553 163 553 163 483 82 c 0,9,10
 436.9995 29.99995 436.9995 29.99995 370 11 c 0,11,12
 334 0.999995 334 0.999995 292 1 c 0,13,14
 242.9995 1 242.9995 1 203 15 c 0,15,16
 162.0005 28.99995 162.0005 28.99995 131 52 c 0,17,18
 72.99995 95.99995 72.99995 95.99995 45 166 c 128,-1,19
 16.99995 236.0005 16.99995 236.0005 17 308 c 0,20,21
 17 423.9995 17 423.9995 87 505 c 0,22,23
 156 586 156 586 278 586 c 0,0,1
268 107 m 0,24,25
 371.0005 107 371.0005 107 433 172 c 0,26,27
 496 236.0005 496 236.0005 496 314 c 0,28,29
 496 390.9995 496 390.9995 439 436 c 0,30,31
 380.9995 479.9995 380.9995 479.9995 301 480 c 0,32,33
 199 480 199 480 136 419 c 0,34,35
 73 357.0005 73 357.0005 73 273 c 0,36,37
 73 196.9995 73 196.9995 131 152 c 0,38,39
 188 107 188 107 268 107 c 0,24,25
296 364 m 1,40,41
 306.9995 350.0005 306.9995 350.0005 323 330 c 0,42,43
 338 309 338 309 352 291 c 1,44,45
 332.0005 277.0005 332.0005 277.0005 314 261 c 0,46,47
 294.9995 244.9995 294.9995 244.9995 279 226 c 1,48,-1
 270 226 l 1,49,-1
 262 226 l 1,50,51
 251.9995 239.0005 251.9995 239.0005 237 259 c 0,52,53
 220.9995 278.9995 220.9995 278.9995 211 291 c 1,54,55
 230.0005 312 230.0005 312 252 330 c 0,56,57
 273 349.0005 273 349.0005 296 364 c 1,40,41
211 -59 m 1,58,-1
 221 -59 l 1,59,-1
 231 -59 l 1,60,61
 262.9995 -78.00005 262.9995 -78.00005 311 -108 c 0,62,63
 359 -136.9995 359 -136.9995 405 -165 c 0,64,65
 429 -180 429 -180 452 -194 c 0,66,67
 474.0005 -207.9995 474.0005 -207.9995 491 -218 c 1,68,69
 489.9995 -237.0005 489.9995 -237.0005 487 -268 c 0,70,71
 485.0005 -299.0005 485.0005 -299.0005 484 -318 c 0,72,73
 479.9995 -319.9995 479.9995 -319.9995 473 -324 c 0,74,75
 467 -327 467 -327 461 -331 c 1,76,77
 390.0005 -277 390.0005 -277 326 -224 c 0,78,79
 261.9995 -170 261.9995 -170 204 -119 c 1,80,81
 205.0005 -108.0005 205.0005 -108.0005 207 -89 c 0,82,83
 210 -69.99995 210 -69.99995 211 -59 c 1,58,-1
EndSplineSet
Validated: 19489
EndChar

StartChar: TotoU
Encoding: 123557 123557 42
Width: 540
Flags: W
HStem: 1 105<178.681 354.038> 478 110<349.004 430.499>
VStem: 42 76<178.967 530> 445 65<211.602 476.812>
LayerCount: 2
Fore
SplineSet
445 326 m 0,0,1
 445 362 445 362 441 401 c 128,-1,2
 437 440 437 440 424 478 c 1,3,-1
 389 478 l 1,4,-1
 351 478 l 1,5,6
 322.9995 526 322.9995 526 342 557 c 128,-1,7
 361.0005 588.0005 361.0005 588.0005 396 588 c 0,8,9
 414 588 414 588 430 577 c 0,10,11
 446.0005 565 446.0005 565 459 545 c 0,12,13
 483 507.0005 483 507.0005 497 445 c 0,14,15
 510.0005 383.0005 510.0005 383.0005 510 315 c 0,16,17
 510 275 510 275 504 235 c 128,-1,18
 498 194.9995 498 194.9995 485 159 c 0,19,20
 459.9995 91.0005 459.9995 91.0005 408 46 c 128,-1,21
 355.9995 1 355.9995 1 267 1 c 0,22,23
 150 1 150 1 96 79 c 128,-1,24
 42 157 42 157 42 284 c 2,25,-1
 42 372 l 1,26,-1
 42 475 l 1,27,-1
 42 527 l 1,28,-1
 42 571 l 1,29,30
 46.00005 572.9995 46.00005 572.9995 53 577 c 128,-1,31
 60.00005 581.0005 60.00005 581.0005 64 583 c 1,32,33
 74.00005 572.9995 74.00005 572.9995 91 557 c 2,34,-1
 118 530 l 1,35,-1
 118 429 l 1,36,-1
 118 316 l 2,37,38
 118 212.0005 118 212.0005 149 159 c 128,-1,39
 180.0005 106.0005 180.0005 106.0005 262 106 c 0,40,41
 356.9995 106 356.9995 106 401 171 c 0,42,43
 444.9995 235.0005 444.9995 235.0005 445 326 c 0,0,1
292 388 m 1,44,45
 302.0005 374.9995 302.0005 374.9995 318 354 c 0,46,47
 334.0005 334.0005 334.0005 334.0005 348 315 c 1,48,49
 327 301.9995 327 301.9995 309 286 c 128,-1,50
 291 270 291 270 274 251 c 1,51,-1
 265 251 l 1,52,-1
 257 251 l 1,53,54
 248 263 248 263 232 283 c 128,-1,55
 215.9995 302.9995 215.9995 302.9995 207 315 c 1,56,57
 226.0005 336 226.0005 336 247 355 c 0,58,59
 268 373 268 373 292 388 c 1,44,45
EndSplineSet
Validated: 19489
EndChar

StartChar: TotoE
Encoding: 123558 123558 43
Width: 531
Flags: W
HStem: 2 98<169.883 347.367> 335 97<173.562 329.852>
VStem: 40 55<142.419 267.381> 429 61<170.558 293.375>
LayerCount: 2
Fore
SplineSet
40 224 m 0,0,1
 40 312.0005 40 312.0005 96 372 c 0,2,3
 153 432 153 432 238 432 c 0,4,5
 283 432 283 432 320 415 c 0,6,7
 356 398.9995 356 398.9995 380 375 c 1,8,9
 351.0005 424.0005 351.0005 424.0005 292 486 c 0,10,11
 233.9995 547.9995 233.9995 547.9995 180 599 c 1,12,13
 181.0005 615.9995 181.0005 615.9995 183 644 c 0,14,15
 186 672.9995 186 672.9995 187 689 c 0,16,17
 191 692 191 692 198 695 c 0,18,19
 204 699 204 699 210 702 c 1,20,21
 327 601.9995 327 601.9995 409 479 c 0,22,23
 490 359 490 359 490 229 c 2,24,-1
 490 222 l 2,25,26
 488.9995 181.0005 488.9995 181.0005 478 148 c 0,27,28
 467.9995 115 467.9995 115 451 90 c 0,29,30
 419.0005 43.99995 419.0005 43.99995 370 23 c 128,-1,31
 320.9995 2 320.9995 2 273 2 c 0,32,33
 234 2 234 2 201 12 c 128,-1,34
 168 22.00005 168 22.00005 141 39 c 0,35,36
 91.9995 70.99995 91.9995 70.99995 66 122 c 0,37,38
 40.00005 171.9995 40.00005 171.9995 40 224 c 0,0,1
243 100 m 0,39,40
 325.9995 100 325.9995 100 377 140 c 0,41,42
 429.0005 180.0005 429.0005 180.0005 429 234 c 0,43,44
 429 283.9995 429 283.9995 387 310 c 0,45,46
 346.0005 335.0005 346.0005 335.0005 281 335 c 0,47,48
 197 335 197 335 146 297 c 128,-1,49
 95 259.0005 95 259.0005 95 201 c 0,50,51
 95 151.9995 95 151.9995 136 126 c 128,-1,52
 176.9995 100.0005 176.9995 100.0005 243 100 c 0,39,40
EndSplineSet
Validated: 19489
EndChar

StartChar: TotoEbr
Encoding: 123559 123559 44
Width: 536
Flags: W
HStem: 2 97<165.008 343.594> 334 97<168.562 325.499>
VStem: 35 55<141.419 266.381> 424 61<168.977 292.375>
LayerCount: 2
Fore
SplineSet
35 223 m 0,0,1
 35 311.0005 35 311.0005 91 371 c 0,2,3
 148 431 148 431 233 431 c 0,4,5
 279.0005 431 279.0005 431 315 415 c 0,6,7
 351 398.0005 351 398.0005 375 375 c 1,8,9
 346.0005 424.0005 346.0005 424.0005 287 486 c 0,10,11
 228.9995 547.9995 228.9995 547.9995 175 599 c 1,12,13
 176.0005 615.9995 176.0005 615.9995 179 644 c 0,14,15
 180.9995 672.0005 180.9995 672.0005 182 689 c 0,16,17
 186.0005 690.9995 186.0005 690.9995 193 695 c 2,18,-1
 205 701 l 1,19,20
 323.0005 602 323.0005 602 405 478 c 0,21,22
 484.9995 358 484.9995 358 485 228 c 2,23,-1
 485 222 l 2,24,25
 483.9995 180 483.9995 180 474 148 c 0,26,27
 463.0005 115 463.0005 115 446 90 c 0,28,29
 414.0005 43.00005 414.0005 43.00005 365 23 c 0,30,31
 344 12.99995 344 12.99995 323 8 c 0,32,33
 294.9995 2 294.9995 2 268 2 c 0,34,35
 229 2 229 2 196 12 c 128,-1,36
 163 22.00005 163 22.00005 137 39 c 0,37,38
 87.0005 70.99995 87.0005 70.99995 61 121 c 128,-1,39
 35.00005 170.9995 35.00005 170.9995 35 223 c 0,0,1
238 99 m 0,40,41
 320.9995 99 320.9995 99 373 139 c 0,42,43
 424 179.0005 424 179.0005 424 234 c 0,44,45
 424 283.9995 424 283.9995 383 309 c 128,-1,46
 342.0005 334.0005 342.0005 334.0005 276 334 c 0,47,48
 192 334 192 334 141 296 c 128,-1,49
 90 258.0005 90 258.0005 90 200 c 0,50,51
 90 150.9995 90 150.9995 131 125 c 128,-1,52
 171.9995 99.0005 171.9995 99.0005 238 99 c 0,40,41
156 -64 m 1,53,-1
 166 -64 l 1,54,-1
 176 -64 l 1,55,56
 192.9995 -74.99995 192.9995 -74.99995 215 -88 c 0,57,58
 237.9995 -101.99995 237.9995 -101.99995 262 -117 c 0,59,60
 308.0005 -145.0005 308.0005 -145.0005 356 -175 c 0,61,62
 404 -203.9995 404 -203.9995 436 -223 c 1,63,64
 434 -242 434 -242 432 -273 c 128,-1,65
 430 -304 430 -304 428 -323 c 0,66,67
 423.9995 -326 423.9995 -326 418 -329 c 0,68,69
 410.9995 -333.0005 410.9995 -333.0005 406 -336 c 1,70,71
 335 -282 335 -282 270 -229 c 0,72,73
 205.9995 -176.0005 205.9995 -176.0005 148 -124 c 1,74,75
 150 -113 150 -113 152 -94 c 128,-1,76
 154 -75 154 -75 156 -64 c 1,53,-1
EndSplineSet
Validated: 19489
EndChar

StartChar: TotoEO
Encoding: 123560 123560 45
Width: 574
Flags: W
HStem: -11 105<185.188 377.738> 469 105<193.913 375.435>
VStem: 488 55<205.797 382.146>
LayerCount: 2
Fore
SplineSet
543 269 m 0,0,1
 543 153.9995 543 153.9995 476 71 c 0,2,3
 410 -11.00005 410 -11.00005 296 -11 c 0,4,5
 218 -11 218 -11 151 27 c 0,6,7
 83.9995 66 83.9995 66 35 132 c 1,8,9
 41 139.0005 41 139.0005 51 149 c 128,-1,10
 61 159 61 159 70 169 c 1,11,12
 119.0005 131.9995 119.0005 131.9995 166 113 c 0,13,14
 214 93.9995 214 93.9995 270 94 c 0,15,16
 376.9995 94 376.9995 94 432 156 c 0,17,18
 487.9995 217.9995 487.9995 217.9995 488 296 c 0,19,20
 488 375.9995 488 375.9995 433 422 c 0,21,22
 377.9995 468.9995 377.9995 468.9995 297 469 c 0,23,24
 244.0005 469 244.0005 469 202 451 c 0,25,26
 161 433 161 433 120 403 c 1,27,-1
 80 443 l 1,28,-1
 40 483 l 1,29,-1
 40 493 l 1,30,-1
 40 505 l 1,31,32
 92.00005 541 92.00005 541 148 557 c 0,33,34
 203.0005 573.9995 203.0005 573.9995 263 574 c 0,35,36
 312.9995 574 312.9995 574 354 560 c 0,37,38
 394.9995 546.9995 394.9995 546.9995 427 524 c 0,39,40
 485.9995 480.9995 485.9995 480.9995 514 412 c 0,41,42
 542.9995 343 542.9995 343 543 269 c 0,0,1
EndSplineSet
Validated: 19489
EndChar

StartChar: TotoEObr
Encoding: 123561 123561 46
Width: 574
Flags: W
HStem: -10 105<179.83 371.141> 470 105<187.913 373.177>
VStem: 482 55<206.797 383.723>
LayerCount: 2
Fore
SplineSet
537 270 m 0,0,1
 537 154.9995 537 154.9995 471 72 c 0,2,3
 424.0005 15 424.0005 15 354 -3 c 0,4,5
 324 -10.000005 324 -10.000005 290 -10 c 0,6,7
 212 -10 212 -10 145 29 c 0,8,9
 77.9995 66.99995 77.9995 66.99995 29 133 c 1,10,11
 35 140.0005 35 140.0005 45 150 c 0,12,13
 55.00005 160.9995 55.00005 160.9995 64 170 c 1,14,15
 113.00005 132.9995 113.00005 132.9995 160 114 c 0,16,17
 208 94.9995 208 94.9995 264 95 c 0,18,19
 370.9995 95 370.9995 95 426 157 c 0,20,21
 481.9995 218.9995 481.9995 218.9995 482 297 c 0,22,23
 482 376.9995 482 376.9995 427 423 c 0,24,25
 371.9995 469.9995 371.9995 469.9995 291 470 c 0,26,27
 238.0005 470 238.0005 470 196 452 c 0,28,29
 155 434 155 434 114 404 c 1,30,-1
 74 444 l 1,31,-1
 34 484 l 1,32,-1
 34 494 l 1,33,-1
 34 506 l 1,34,35
 86.00005 542 86.00005 542 142 558 c 0,36,37
 197.0005 574.9995 197.0005 574.9995 257 575 c 0,38,39
 350 575 350 575 412 532 c 0,40,41
 473.0005 488.9995 473.0005 488.9995 504 424 c 0,42,43
 520.0005 388 520.0005 388 528 349 c 0,44,45
 537 310 537 310 537 270 c 0,0,1
188 -70 m 1,46,-1
 198 -70 l 1,47,-1
 208 -70 l 1,48,49
 239.0005 -89.99995 239.0005 -89.99995 287 -119 c 128,-1,50
 335 -147.9995 335 -147.9995 381 -176 c 0,51,52
 406 -191 406 -191 428 -205 c 0,53,54
 450.9995 -218.9995 450.9995 -218.9995 468 -229 c 1,55,56
 466 -248 466 -248 464 -279 c 128,-1,57
 462 -310 462 -310 460 -329 c 0,58,59
 455.9995 -332 455.9995 -332 450 -335 c 0,60,61
 442.9995 -339.0005 442.9995 -339.0005 438 -342 c 1,62,63
 366 -288 366 -288 302 -235 c 128,-1,64
 237.9995 -182.0005 237.9995 -182.0005 180 -130 c 1,65,66
 182 -119 182 -119 184 -100 c 128,-1,67
 186 -81 186 -81 188 -70 c 1,46,-1
EndSplineSet
Validated: 19489
EndChar

StartChar: TotoO
Encoding: 123562 123562 47
Width: 540
Flags: W
HStem: 144 97<149.286 333.116> 476 98<177.268 373.732>
VStem: 42 55<282.426 406.548> 431 61<310.877 433.339>
LayerCount: 2
Fore
SplineSet
190 -113 m 0,0,1
 188 -97 188 -97 186 -71 c 0,2,3
 184 -46 184 -46 182 -23 c 1,4,5
 236 26.99995 236 26.99995 295 89 c 0,6,7
 353.0005 152 353.0005 152 383 201 c 1,8,9
 359 177 359 177 322 160 c 0,10,11
 286 143.9995 286 143.9995 240 144 c 0,12,13
 154.9995 144 154.9995 144 99 204 c 0,14,15
 42 264 42 264 42 352 c 0,16,17
 42 380 42 380 50 408 c 0,18,19
 57.00005 436.0005 57.00005 436.0005 72 462 c 0,20,21
 100.00005 508.9995 100.00005 508.9995 152 541 c 0,22,23
 203 574 203 574 276 574 c 0,24,25
 301.0005 574 301.0005 574 328 568 c 128,-1,26
 355 562 355 562 380 549 c 0,27,28
 425 526.0005 425 526.0005 458 479 c 0,29,30
 491 431 491 431 492 354 c 2,31,-1
 492 347 l 2,32,33
 492 218 492 218 412 97 c 0,34,35
 329.9995 -26 329.9995 -26 212 -126 c 1,36,37
 207.9995 -124.0005 207.9995 -124.0005 201 -120 c 128,-1,38
 193.9995 -115.9995 193.9995 -115.9995 190 -113 c 0,0,1
283 476 m 0,39,40
 199 476 199 476 148 436 c 128,-1,41
 97 395.9995 97 395.9995 97 342 c 0,42,43
 97 291 97 291 138 266 c 128,-1,44
 178.9995 240.9995 178.9995 240.9995 245 241 c 0,45,46
 329 241 329 241 380 279 c 128,-1,47
 431 316.9995 431 316.9995 431 375 c 0,48,49
 431 424.0005 431 424.0005 390 450 c 128,-1,50
 349.0005 475.9995 349.0005 475.9995 283 476 c 0,39,40
EndSplineSet
Validated: 19489
EndChar

StartChar: TotoAE
Encoding: 123563 123563 48
Width: 574
Flags: W
HStem: 223 100<159.723 406>
VStem: 77 76<17.6428 252 323 513> 436 76<40 223 293 513>
LayerCount: 2
Fore
SplineSet
436 40 m 1,0,-1
 436 131 l 1,1,-1
 436 223 l 1,2,-1
 398 223 l 1,3,-1
 352 223 l 1,4,-1
 260 223 l 1,5,-1
 183 223 l 1,6,7
 177 227.9995 177 227.9995 168 237 c 0,8,9
 157.9995 246 157.9995 246 153 252 c 1,10,-1
 153 214 l 1,11,-1
 153 168 l 1,12,-1
 153 76 l 1,13,-1
 153 -1 l 1,14,15
 148.0005 -2.999995 148.0005 -2.999995 141 -7 c 128,-1,16
 133.9995 -11.000005 133.9995 -11.000005 130 -14 c 1,17,-1
 103 13 l 2,18,19
 86.99995 29.99995 86.99995 29.99995 77 40 c 1,20,-1
 77 118 l 1,21,-1
 77 211 l 1,22,-1
 77 397 l 1,23,-1
 77 554 l 1,24,25
 81.00005 555.9995 81.00005 555.9995 88 560 c 128,-1,26
 95.00005 564.0005 95.00005 564.0005 99 566 c 1,27,28
 109.0005 555.9995 109.0005 555.9995 126 540 c 2,29,-1
 153 513 l 1,30,-1
 153 418 l 1,31,-1
 153 323 l 1,32,-1
 230 323 l 1,33,-1
 322 323 l 1,34,-1
 368 323 l 1,35,-1
 406 323 l 1,36,-1
 421 308 l 2,37,38
 431.0005 299 431.0005 299 436 293 c 1,39,-1
 436 333 l 1,40,-1
 436 380 l 1,41,-1
 436 474 l 1,42,-1
 436 554 l 1,43,44
 440.0005 555.9995 440.0005 555.9995 447 560 c 128,-1,45
 454.0005 564.0005 454.0005 564.0005 459 566 c 1,46,-1
 485 540 l 1,47,-1
 512 513 l 1,48,-1
 512 435 l 1,49,-1
 512 342 l 1,50,-1
 512 156 l 1,51,-1
 512 -1 l 1,52,53
 507.9995 -2.999995 507.9995 -2.999995 501 -7 c 128,-1,54
 493.9995 -11.000005 493.9995 -11.000005 490 -14 c 1,55,-1
 463 13 l 1,56,-1
 436 40 l 1,0,-1
EndSplineSet
Validated: 19457
EndChar

StartChar: TotoAEbr
Encoding: 123564 123564 49
Width: 574
Flags: W
HStem: 222 100<185 430.3>
VStem: 79 76<39 251 322 512> 438 76<17.8535 222 292 512>
LayerCount: 2
Fore
SplineSet
438 39 m 1,0,-1
 438 131 l 1,1,-1
 438 222 l 1,2,-1
 400 222 l 1,3,-1
 354 222 l 1,4,-1
 262 222 l 1,5,-1
 185 222 l 1,6,-1
 170 237 l 2,7,8
 159.9995 246 159.9995 246 155 251 c 1,9,-1
 155 213 l 1,10,-1
 155 167 l 1,11,-1
 155 76 l 1,12,-1
 155 -2 l 1,13,14
 150.0005 -3.999995 150.0005 -3.999995 143 -8 c 128,-1,15
 135.9995 -12.00005 135.9995 -12.00005 132 -14 c 1,16,-1
 105 13 l 1,17,-1
 79 39 l 1,18,-1
 79 117 l 1,19,-1
 79 210 l 1,20,-1
 79 396 l 1,21,-1
 79 553 l 1,22,23
 83 556 83 556 90 560 c 0,24,25
 97.00005 563 97.00005 563 101 566 c 1,26,-1
 128 539 l 1,27,-1
 155 512 l 1,28,-1
 155 417 l 1,29,-1
 155 322 l 1,30,-1
 193 322 l 1,31,-1
 239 322 l 1,32,-1
 330 322 l 1,33,-1
 408 322 l 1,34,35
 414 317.0005 414 317.0005 423 307 c 0,36,37
 433.0005 298 433.0005 298 438 292 c 1,38,-1
 438 332 l 1,39,-1
 438 379 l 1,40,-1
 438 474 l 1,41,-1
 438 553 l 1,42,43
 442 556 442 556 449 560 c 0,44,45
 456.0005 563 456.0005 563 461 566 c 1,46,47
 471.0005 555.9995 471.0005 555.9995 487 539 c 2,48,-1
 514 512 l 1,49,-1
 514 435 l 1,50,-1
 514 341 l 1,51,-1
 514 156 l 1,52,-1
 514 -2 l 1,53,54
 509.9995 -3.999995 509.9995 -3.999995 503 -8 c 128,-1,55
 495.9995 -12.00005 495.9995 -12.00005 492 -14 c 1,56,-1
 465 13 l 2,57,58
 448.0005 29.00005 448.0005 29.00005 438 39 c 1,0,-1
261 53 m 1,59,-1
 271 53 l 1,60,-1
 281 53 l 1,61,62
 302 27.99995 302 27.99995 333 -10 c 0,63,64
 364.0005 -49 364.0005 -49 394 -85 c 0,65,66
 410.0005 -104.99995 410.0005 -104.99995 425 -123 c 0,67,68
 438.9995 -141 438.9995 -141 450 -154 c 1,69,70
 448.9995 -173.0005 448.9995 -173.0005 446 -204 c 0,71,72
 444.0005 -235.0005 444.0005 -235.0005 443 -254 c 1,73,-1
 433 -259 l 2,74,75
 428 -262 428 -262 423 -264 c 1,76,77
 376 -199 376 -199 334 -134 c 0,78,79
 292 -69.99995 292 -69.99995 254 -7 c 1,80,81
 255.0005 3.9999995 255.0005 3.9999995 257 23 c 0,82,83
 260 42.00005 260 42.00005 261 53 c 1,59,-1
EndSplineSet
Validated: 19457
EndChar

StartChar: TotoA
Encoding: 123565 123565 50
Width: 610
Flags: W
HStem: 1 21G<67 106 506.5 530>
LayerCount: 2
Fore
SplineSet
574 35 m 1,0,1
 563.9995 27.99995 563.9995 27.99995 550 19 c 0,2,3
 536.0005 8.99995 536.0005 8.99995 524 1 c 1,4,5
 489.0005 59.00005 489.0005 59.00005 450 135 c 0,6,7
 411 210 411 210 377 284 c 0,8,9
 359 324.0005 359 324.0005 343 362 c 128,-1,10
 326.9995 399.9995 326.9995 399.9995 315 433 c 1,11,-1
 310 433 l 1,12,-1
 305 433 l 1,13,14
 285.9995 383.0005 285.9995 383.0005 254 310 c 0,15,16
 221 236.9995 221 236.9995 182 160 c 0,17,18
 161 119 161 119 139 78 c 0,19,20
 117 38 117 38 95 1 c 1,21,-1
 84 1 l 1,22,-1
 73 1 l 1,23,24
 61 11.999995 61 11.999995 44 29 c 0,25,26
 27.99995 45.99995 27.99995 45.99995 13 61 c 1,27,28
 82 172 82 172 146 301 c 128,-1,29
 210.0005 430 210.0005 430 260 569 c 0,30,31
 264.0005 570.9995 264.0005 570.9995 271 575 c 128,-1,32
 278.0005 579.0005 278.0005 579.0005 282 581 c 1,33,34
 297 567.0005 297 567.0005 323 544 c 0,35,36
 348.0005 521.0005 348.0005 521.0005 363 508 c 1,37,38
 408 371.9995 408 371.9995 464 252 c 0,39,40
 519.9995 133.0005 519.9995 133.0005 574 35 c 1,0,1
EndSplineSet
Validated: 19457
EndChar

StartChar: TotoTONE
Encoding: 123566 123566 51
Width: 0
GlyphClass: 4
Flags: W
HStem: 614 272
VStem: -400 284
LayerCount: 2
Fore
SplineSet
-146 886 m 1,0,1
 -141.9995 884.0005 -141.9995 884.0005 -135 880 c 128,-1,2
 -127.9995 875.9995 -127.9995 875.9995 -123 873 c 1,3,4
 -121.9995 855 -121.9995 855 -120 823 c 0,5,6
 -117 791.9995 -117 791.9995 -116 773 c 1,7,8
 -132.9995 762.9995 -132.9995 762.9995 -155 749 c 0,9,10
 -177.9995 735.9995 -177.9995 735.9995 -202 720 c 0,11,12
 -249 692 -249 692 -296 663 c 0,13,14
 -344 634.0005 -344 634.0005 -376 614 c 1,15,-1
 -386 614 l 1,16,-1
 -396 614 l 1,17,18
 -397.0005 626 -397.0005 626 -400 644 c 0,19,20
 -401.9995 663.0005 -401.9995 663.0005 -403 674 c 1,21,22
 -344.9995 726.0005 -344.9995 726.0005 -281 779 c 128,-1,23
 -216.9995 831.9995 -216.9995 831.9995 -146 886 c 1,0,1
EndSplineSet
Validated: 19457
EndChar

StartChar: TakrABBR
Encoding: 71353 71353 52
Width: 356
Flags: W
LayerCount: 2
Fore
SplineSet
71.330078125 304.93359375 m 5,0,-1
 188 421.606445312 l 5,1,-1
 304.672851562 304.93359375 l 5,2,-1
 188 188.260742188 l 5,3,-1
 71.330078125 304.93359375 l 5,0,-1
EndSplineSet
Validated: 3073
EndChar

StartChar: Osyq1
Encoding: 126209 126209 53
Width: 267
InSpiro: 1
Flags: W
HStem: 0.000976562 21G<121.653 138.095>
VStem: 83.953 79.3115<199.115 615.489> 92.3036 77.6562<15.4688 134.242 137.734 441.959> 100.736 80<13.2749 382.654 446.279 626.477>
LayerCount: 2
Fore
SplineSet
180.736328125 136.185546875 m 0,0,1
 180.736328125 73.833984375 180.736328125 73.833984375 169.959960938 30.3583984375 c 0,2,3
 166.686523438 17.154296875 166.686523438 17.154296875 155.872070312 8.5771484375 c 128,-1,4
 145.05859375 0.0009765625 145.05859375 0.0009765625 131.131835938 0.0009765625 c 0,5,6
 112.173828125 0.0009765625 112.173828125 0.0009765625 99.8037109375 14.9990234375 c 128,-1,7
 87.43359375 29.9970703125 87.43359375 29.9970703125 92.3037109375 49.6435546875 c 0,8,9
 100.736328125 83.66015625 100.736328125 83.66015625 100.736328125 136.185546875 c 0,10,11
 100.736328125 179.116210938 100.736328125 179.116210938 92.5546875 276.877929688 c 0,12,13
 86.134765625 353.5859375 86.134765625 353.5859375 83.953125 396.874023438 c 128,-1,14
 81.771484375 440.162109375 81.771484375 440.162109375 86.1357421875 503.708007812 c 128,-1,15
 90.5 567.25390625 90.5 567.25390625 105.669921875 615.087890625 c 0,16,17
 109.565429688 627.372070312 109.565429688 627.372070312 120.06640625 635.184570312 c 128,-1,18
 130.56640625 642.998046875 130.56640625 642.998046875 143.807617188 642.998046875 c 0,19,20
 163.453125 642.998046875 163.453125 642.998046875 175.87890625 626.978515625 c 128,-1,21
 188.303710938 610.958984375 188.303710938 610.958984375 181.9453125 590.908203125 c 0,22,23
 163.264648438 532.004882812 163.264648438 532.004882812 163.264648438 443.521484375 c 0,24,25
 163.264648438 393.947265625 163.264648438 393.947265625 172 289.633789062 c 128,-1,26
 180.736328125 185.319335938 180.736328125 185.319335938 180.736328125 136.185546875 c 0,0,1
  Spiro
    178.042 78.5532 o
    169.959 30.3584 o
    164.801 18.3109 o
    155.872 8.57743 o
    144.28 2.14509 o
    131.131 0.000976562 o
    113.82 3.75051 o
    99.8033 14.9991 o
    91.7432 31.1593 o
    92.3032 49.6436 o
    98.6277 88.2874 o
    100.736 136.186 o
    98.6904 192.824 o
    92.5542 276.878 o
    87.1943 345.231 o
    83.953 396.874 o
    83.4075 445.226 o
    86.1352 503.708 o
    93.2009 563.326 o
    105.669 615.088 o
    111.216 626.254 o
    120.066 635.185 o
    131.252 641.045 o
    143.807 642.998 o
    161.648 638.993 o
    175.878 626.978 o
    183.608 609.951 o
    181.945 590.908 o
    167.934 524.61 o
    163.264 443.521 o
    165.448 380.263 o
    172 289.633 o
    178.552 199.114 o
    180.736 136.186 o
    0 0 z
  EndSpiro
EndSplineSet
Validated: 3105
EndChar

StartChar: Osyq2
Encoding: 126210 126210 54
Width: 503
Flags: W
HStem: 0.189453 80<202.599 309.006>
VStem: 90 80<115.622 516.45> 104.266 76.6934<97.7999 267.45 355.523 630.907> 338.917 79.8711<111.538 622.71>
LayerCount: 2
Fore
SplineSet
415.5703125 520.06640625 m 1,0,-1
 420.55859375 288.9453125 l 1,1,2
 420.55859375 198.946289062 420.55859375 198.946289062 410.706054688 142.424804688 c 128,-1,3
 400.854492188 85.9033203125 400.854492188 85.9033203125 379.03515625 59.7099609375 c 128,-1,4
 357.215820312 33.515625 357.215820312 33.515625 320.362304688 16.8525390625 c 128,-1,5
 283.508789062 0.189453125 283.508789062 0.189453125 234.924804688 0.189453125 c 0,6,7
 134.591796875 0.189453125 134.591796875 0.189453125 104.265625 127.680664062 c 0,8,9
 90 187.661132812 90 187.661132812 90 270.018554688 c 128,-1,10
 90 352.375976562 90 352.375976562 98.15234375 460.30859375 c 128,-1,11
 106.303710938 568.2421875 106.303710938 568.2421875 106.303710938 593.8984375 c 128,-1,12
 106.303710938 619.5546875 106.303710938 619.5546875 118.025390625 631.276367188 c 128,-1,13
 129.74609375 642.998046875 129.74609375 642.998046875 146.1640625 642.998046875 c 128,-1,14
 162.581054688 642.998046875 162.581054688 642.998046875 174.228515625 631.625976562 c 128,-1,15
 185.875976562 620.25390625 185.875976562 620.25390625 186.456054688 597.553710938 c 128,-1,16
 187.03515625 574.853515625 187.03515625 574.853515625 178.517578125 462.073242188 c 128,-1,17
 170 349.29296875 170 349.29296875 170 273.200195312 c 128,-1,18
 170 197.107421875 170 197.107421875 180.958984375 151.029296875 c 128,-1,19
 191.918945312 104.951171875 191.918945312 104.951171875 205.025390625 92.5703125 c 128,-1,20
 218.131835938 80.189453125 218.131835938 80.189453125 242.18359375 80.189453125 c 128,-1,21
 266.235351562 80.189453125 266.235351562 80.189453125 286.89453125 89.5302734375 c 128,-1,22
 307.5546875 98.87109375 307.5546875 98.87109375 313.225585938 105.6796875 c 0,23,24
 340.55859375 138.494140625 340.55859375 138.494140625 340.55859375 288.9453125 c 1,25,-1
 335.5703125 520.06640625 l 1,26,27
 335.5703125 572.94921875 335.5703125 572.94921875 338.916992188 595.120117188 c 128,-1,28
 342.264648438 617.291992188 342.264648438 617.291992188 353.479492188 627.026367188 c 128,-1,29
 364.6953125 636.76171875 364.6953125 636.76171875 381.165039062 636.76171875 c 128,-1,30
 397.635742188 636.76171875 397.635742188 636.76171875 409.821289062 623.137695312 c 128,-1,31
 422.005859375 609.513671875 422.005859375 609.513671875 418.788085938 588.19921875 c 128,-1,32
 415.5703125 566.884765625 415.5703125 566.884765625 415.5703125 520.06640625 c 1,0,-1
79 268.2734375 m 1024,33,34
EndSplineSet
Validated: 3105
EndChar

StartChar: Osyq3
Encoding: 126211 126211 55
Width: 691
Flags: W
HStem: 0.411133 79.6689<187.415 432.447>
VStem: 77 80<114.067 219.443> 139.931 79.915<350.971 626.453> 429.374 81.1006<374.476 634.025>
LayerCount: 2
Fore
SplineSet
219.845703125 566.345703125 m 2,0,-1
 219.961914062 522.810546875 l 1,1,-1
 222.919921875 408.3671875 l 2,2,3
 222.919921875 376.974609375 222.919921875 376.974609375 220.053710938 350.130859375 c 1,4,5
 228.784179688 343.00390625 228.784179688 343.00390625 245.571289062 326.684570312 c 0,6,7
 274.4609375 298.598632812 274.4609375 298.598632812 284.413085938 295.493164062 c 0,8,9
 299.977539062 292.721679688 299.977539062 292.721679688 323.291015625 292.721679688 c 128,-1,10
 346.60546875 292.721679688 346.60546875 292.721679688 368.11328125 309.741210938 c 0,11,12
 417.328125 348.68359375 417.328125 348.68359375 426.036132812 480.060546875 c 0,13,14
 428.465820312 516.715820312 428.465820312 516.715820312 429.374023438 552.784179688 c 128,-1,15
 430.282226562 588.852539062 430.282226562 588.852539062 430.772460938 602.736328125 c 128,-1,16
 431.26171875 616.620117188 431.26171875 616.620117188 442.879882812 627.859375 c 128,-1,17
 454.498046875 639.098632812 454.498046875 639.098632812 471.140625 639.098632812 c 128,-1,18
 487.782226562 639.098632812 487.782226562 639.098632812 499.212890625 627.090820312 c 128,-1,19
 510.643554688 615.083007812 510.643554688 615.083007812 510.474609375 601.592773438 c 0,20,21
 508.595703125 451.19140625 508.595703125 451.19140625 492.560546875 381.840820312 c 0,22,23
 471.15625 289.27734375 471.15625 289.27734375 415.291992188 245.072265625 c 128,-1,24
 359.426757812 200.8671875 359.426757812 200.8671875 270.319335938 216.733398438 c 0,25,26
 249.041992188 220.521484375 249.041992188 220.521484375 231.953125 233.01953125 c 128,-1,27
 214.86328125 245.518554688 214.86328125 245.518554688 196.606445312 262.776367188 c 1,28,29
 193.124023438 253.942382812 193.124023438 253.942382812 181.951171875 226.91796875 c 0,30,31
 157 166.564453125 157 166.564453125 157 146.250976562 c 128,-1,32
 157 125.9375 157 125.9375 161.813476562 120.924804688 c 0,33,34
 201.038085938 80.080078125 201.038085938 80.080078125 284.989257812 80.080078125 c 0,35,36
 336.022460938 80.080078125 336.022460938 80.080078125 376.857421875 89.2890625 c 128,-1,37
 417.692382812 98.498046875 417.692382812 98.498046875 430.16015625 101.361328125 c 128,-1,38
 442.626953125 104.224609375 442.626953125 104.224609375 468.375 111.611328125 c 128,-1,39
 494.123046875 118.997070312 494.123046875 118.997070312 502.430664062 121.462890625 c 128,-1,40
 510.737304688 123.927734375 510.737304688 123.927734375 538.102539062 132.362304688 c 128,-1,41
 565.467773438 140.797851562 565.467773438 140.797851562 569.338867188 141.98046875 c 0,42,43
 589.340820312 148.09375 589.340820312 148.09375 605.185546875 135.673828125 c 128,-1,44
 621.03125 123.25390625 621.03125 123.25390625 621.03125 106.810546875 c 0,45,46
 621.03125 74.1103515625 621.03125 74.1103515625 592.723632812 65.458984375 c 0,47,48
 584.7734375 63.029296875 584.7734375 63.029296875 556.102539062 54.1103515625 c 128,-1,49
 527.431640625 45.1923828125 527.431640625 45.1923828125 505.061523438 38.5791015625 c 128,-1,50
 482.692382812 31.966796875 482.692382812 31.966796875 437.977539062 20.90234375 c 128,-1,51
 393.26171875 9.8388671875 393.26171875 9.8388671875 363.719726562 6.01171875 c 128,-1,52
 334.176757812 2.1845703125 334.176757812 2.1845703125 292.692382812 0.4111328125 c 128,-1,53
 251.208007812 -1.361328125 251.208007812 -1.361328125 221.041015625 5.00390625 c 0,54,55
 147.299804688 20.564453125 147.299804688 20.564453125 104.114257812 65.5322265625 c 0,56,57
 77 93.7646484375 77 93.7646484375 77 129.92578125 c 128,-1,58
 77 166.086914062 77 166.086914062 86.1552734375 196.428710938 c 128,-1,59
 95.310546875 226.770507812 95.310546875 226.770507812 115.083007812 274.59765625 c 128,-1,60
 134.783203125 322.25390625 134.783203125 322.25390625 138.451171875 342.59765625 c 128,-1,61
 142.118164062 362.940429688 142.118164062 362.940429688 142.72265625 392.793945312 c 128,-1,62
 143.327148438 422.647460938 143.327148438 422.647460938 141.64453125 463.3125 c 128,-1,63
 139.961914062 503.9765625 139.961914062 503.9765625 139.961914062 522.810546875 c 2,64,-1
 140.161132812 542.298828125 l 2,65,66
 140.161132812 546.215820312 140.161132812 546.215820312 139.930664062 560.591796875 c 128,-1,67
 139.700195312 574.967773438 139.700195312 574.967773438 139.954101562 579.944335938 c 0,68,69
 143.173828125 642.999023438 143.173828125 642.999023438 184.4296875 642.999023438 c 0,70,71
 204.092773438 642.999023438 204.092773438 642.999023438 216.518554688 626.954101562 c 128,-1,72
 228.944335938 610.909179688 228.944335938 610.909179688 224.39453125 596.641601562 c 128,-1,73
 219.845703125 582.374023438 219.845703125 582.374023438 219.845703125 566.345703125 c 2,0,-1
EndSplineSet
Validated: 3105
EndChar

StartChar: Osyq4
Encoding: 126212 126212 56
Width: 850
Flags: W
VStem: 443.991 79.5748<252.182 378.954> 459.603 81.8105<494.617 629.157> 688.173 79.7508<114.912 583.522> 697.662 79.7441<365.33 629.919>
LayerCount: 2
Fore
SplineSet
462.072345147 581.301551355 m 1,0,-1
 461.479492188 601.24609375 l 2,1,2
 461.479492188 617.803222656 461.479492188 617.803222656 473.200927734 629.524658203 c 128,-1,3
 484.922363281 641.24609375 484.922363281 641.24609375 501.165841282 641.24609375 c 128,-1,4
 517.409319283 641.24609375 517.409319283 641.24609375 528.958066761 630.303074558 c 128,-1,5
 540.50681424 619.360055365 540.50681424 619.360055365 541.413085938 603.569335938 c 0,6,7
 544.152865931 555.821239228 544.152865931 555.821239228 533.859147809 468.212207699 c 128,-1,8
 523.565429688 380.60317617 523.565429688 380.60317617 523.565429688 344.841806765 c 128,-1,9
 523.565429688 309.080437361 523.565429688 309.080437361 541.45996213 261.154309841 c 128,-1,10
 559.354494572 213.228182321 559.354494572 213.228182321 595.478515625 166.873046875 c 128,-1,11
 631.476144726 120.679740915 631.476144726 120.679740915 673.30859375 96.1767578125 c 1,12,13
 683.720995735 176.167339748 683.720995735 176.167339748 688.17303308 359.626231458 c 128,-1,14
 692.625070426 543.085123167 692.625070426 543.085123167 697.662109375 606.21875 c 0,15,16
 698.897911834 621.707082062 698.897911834 621.707082062 710.37238512 632.353541031 c 128,-1,17
 721.846858406 643 721.846858406 643 738.354095773 643 c 128,-1,18
 754.86133314 643 754.86133314 643 766.845837403 630.31649903 c 128,-1,19
 778.830341665 617.632998059 778.830341665 617.632998059 777.40625 599.78125 c 0,20,21
 773.74779326 553.926167468 773.74779326 553.926167468 767.923861294 338.027478232 c 128,-1,22
 762.099929328 122.128788995 762.099929328 122.128788995 743.884765625 32.041015625 c 0,23,24
 740.620007029 15.8960925839 740.620007029 15.8960925839 726.500358023 6.34380281415 c 128,-1,25
 712.380709018 -3.20848695556 712.380709018 -3.20848695556 694.869140625 1.212890625 c 0,26,27
 605.603903678 23.7491352448 605.603903678 23.7491352448 532.34375 117.758789062 c 0,28,29
 488.661795994 173.812522401 488.661795994 173.812522401 466.736847372 232.533170446 c 128,-1,30
 444.81189875 291.253818492 444.81189875 291.253818492 443.990619032 322.554033096 c 128,-1,31
 443.169339314 353.8542477 443.169339314 353.8542477 444.805106936 380.158530202 c 1,32,33
 407.796899547 350.930111744 407.796899547 350.930111744 367.65234375 344.8203125 c 1,34,35
 341.981448565 217.0831431 341.981448565 217.0831431 198.75354961 110.802680546 c 0,36,37
 178.736714626 95.9494396868 178.736714626 95.9494396868 157.038576236 80.8858526559 c 128,-1,38
 135.340437847 65.822265625 135.340437847 65.822265625 120.802787283 65.822265625 c 128,-1,39
 106.265136719 65.822265625 106.265136719 65.822265625 94.5437011719 77.5437011719 c 128,-1,40
 82.822265625 89.2651367188 82.822265625 89.2651367188 82.822265625 108.003716037 c 128,-1,41
 82.822265625 126.742295355 82.822265625 126.742295355 100.049804688 138.703125 c 0,42,43
 222.835500444 223.944528378 222.835500444 223.944528378 261.092954768 288.493439254 c 0,44,45
 279.133807015 318.932405579 279.133807015 318.932405579 287.374023438 352.755859375 c 1,46,47
 251.37901519 365.16861634 251.37901519 365.16861634 225.992045765 387.77857576 c 128,-1,48
 200.60507634 410.38853518 200.60507634 410.38853518 188.91015625 433.248046875 c 0,49,50
 168.258396896 473.619030823 168.258396896 473.619030823 184.838867188 509.373046875 c 0,51,52
 194.555818976 530.325295915 194.555818976 530.325295915 217.255673803 545.323292489 c 128,-1,53
 239.955528629 560.321289062 239.955528629 560.321289062 265.729492188 560.321289062 c 0,54,55
 306.431411504 560.321289062 306.431411504 560.321289062 335.16796875 522.03515625 c 0,56,57
 362.710256817 485.338615296 362.710256817 485.338615296 371.243164062 428.169921875 c 1,58,59
 403.89895636 441.52028801 403.89895636 441.52028801 431.329689552 483.386068582 c 128,-1,60
 458.760422743 525.251849154 458.760422743 525.251849154 459.602539062 567.924804688 c 0,61,62
 459.743864587 575.080253881 459.743864587 575.080253881 462.072345147 581.301551355 c 1,0,-1
EndSplineSet
Validated: 3105
EndChar

StartChar: Osyq5
Encoding: 126213 126213 57
Width: 943
Flags: W
HStem: 0.0302734 79.9092<80.7946 350.356> 34.3281 80.2246<519.203 755.861>
LayerCount: 2
Fore
SplineSet
639.077148438 381.166015625 m 128,-1,1
 644.364257812 382.34765625 644.364257812 382.34765625 655.833984375 382.347167969 c 128,-1,2
 667.303710938 382.346679688 667.303710938 382.346679688 678.612304688 372.293945312 c 128,-1,3
 689.920898438 362.241210938 689.920898438 362.241210938 692.423339844 342.564941406 c 128,-1,4
 694.92578125 322.888671875 694.92578125 322.888671875 713.426757812 287.8828125 c 128,-1,5
 731.927734375 252.876953125 731.927734375 252.876953125 741.921875 240.502441406 c 128,-1,6
 751.916015625 228.127929688 751.916015625 228.127929688 756.197265625 223.08984375 c 128,-1,7
 760.479492188 218.051757812 760.479492188 218.051757812 766.818359375 210.484375 c 128,-1,8
 773.15625 202.91796875 773.15625 202.91796875 780.84375 193.604492188 c 0,9,10
 855.042913405 103.700106291 855.042913405 103.700106291 860.5390625 71.490234375 c 0,11,12
 865.358640204 43.2366712584 865.358640204 43.2366712584 843.181640625 27.0263671875 c 0,13,14
 809.805163858 2.62888824673 809.805163858 2.62888824673 695.419671773 18.6440339671 c 128,-1,15
 581.034179688 34.6591796875 581.034179688 34.6591796875 561.47265625 34.328125 c 0,16,17
 480.741210938 32.962890625 480.741210938 32.962890625 320.979492188 17.9267578125 c 0,18,19
 130.839515481 0.0302734375 130.839515481 0.0302734375 111.412921803 0.0302734375 c 128,-1,20
 91.986328125 0.0302734375 91.986328125 0.0302734375 80.431640625 11 c 0,21,22
 67.9697265625 22.8300245639 67.9697265625 22.8300245639 67.9697265625 39.3915747819 c 128,-1,23
 67.9697265625 55.953125 67.9697265625 55.953125 78.9384765625 67.5078125 c 128,-1,24
 89.9072265625 79.0625 89.9072265625 79.0625 105.724609375 79.939453125 c 0,25,26
 156.5625 82.755859375 156.5625 82.755859375 264.001953125 92.921875 c 128,-1,27
 371.44140625 103.086914062 371.44140625 103.086914062 403.322265625 105.69140625 c 1,28,29
 433.046789023 134.762643419 433.046789023 134.762643419 454.221148418 159.63522796 c 128,-1,30
 475.395507812 184.5078125 475.395507812 184.5078125 503.522460938 220.5546875 c 128,-1,31
 531.649414062 256.6015625 531.649414062 256.6015625 554.696289062 286.375976562 c 0,32,33
 615.56071497 365.010473003 615.56071497 365.010473003 626.412109375 373.357421875 c 0,34,35
 626.763671875 373.627929688 626.763671875 373.627929688 628.515625 375.626953125 c 128,-1,36
 630.266601562 377.625976562 630.266601562 377.625976562 632.028320312 378.805664062 c 128,-1,0
 633.791015625 379.984375 633.791015625 379.984375 639.077148438 381.166015625 c 128,-1,1
636.212890625 260.86328125 m 1,37,38
 631.39453125 254.668945312 631.39453125 254.668945312 613.212890625 231.227539062 c 0,39,40
 551.878893751 152.14269215 551.878893751 152.14269215 519.203125 112.95703125 c 1,41,42
 548.182617188 114.114257812 548.182617188 114.114257812 574.1015625 114.552734375 c 128,-1,43
 600.020507812 114.991210938 600.020507812 114.991210938 669.5703125 105.643554688 c 128,-1,44
 739.12109375 96.2958984375 739.12109375 96.2958984375 756.4140625 95.18359375 c 1,45,46
 755.659179688 96.203125 755.659179688 96.203125 753.708007812 98.923828125 c 128,-1,47
 751.756835938 101.645507812 751.756835938 101.645507812 745.605957031 109.705078125 c 128,-1,48
 739.455078125 117.764648438 739.455078125 117.764648438 726.483398438 133.653320312 c 128,-1,49
 713.510742188 149.541015625 713.510742188 149.541015625 702.435546875 162.6640625 c 0,50,51
 658.079070406 215.222243506 658.079070406 215.222243506 636.212890625 260.86328125 c 1,37,38
EndSplineSet
Validated: 3105
EndChar

StartChar: Osyq6
Encoding: 126214 126214 58
Width: 917
Flags: W
HStem: 0.477539 80<169.24 529.174>
LayerCount: 2
Fore
SplineSet
834.12109375 186.244140625 m 0,0,1
 834.12109375 167.139648438 834.12109375 167.139648438 819.223632812 155.109375 c 0,2,3
 723.262695312 77.623046875 723.262695312 77.623046875 600.956054688 39.0498046875 c 128,-1,4
 478.649414062 0.4775390625 478.649414062 0.4775390625 349.10546875 0.4775390625 c 0,5,6
 214.692382812 0.4775390625 214.692382812 0.4775390625 94.408203125 40.3916015625 c 0,7,8
 82.31640625 44.404296875 82.31640625 44.404296875 74.658203125 54.8359375 c 128,-1,9
 67 65.267578125 67 65.267578125 67 78.3662109375 c 0,10,11
 67 98.16015625 67 98.16015625 83.23828125 110.587890625 c 128,-1,12
 99.4765625 123.015625 99.4765625 123.015625 119.591796875 116.340820312 c 0,13,14
 227.668945312 80.4775390625 227.668945312 80.4775390625 349.10546875 80.4775390625 c 0,15,16
 465.7890625 80.4775390625 465.7890625 80.4775390625 575.509765625 115.099609375 c 128,-1,17
 685.231445312 149.721679688 685.231445312 149.721679688 769.018554688 217.37890625 c 0,18,19
 779.998046875 226.244140625 779.998046875 226.244140625 794.12109375 226.244140625 c 0,20,21
 810.677734375 226.244140625 810.677734375 226.244140625 822.399414062 214.522460938 c 128,-1,22
 834.12109375 202.801757812 834.12109375 202.801757812 834.12109375 186.244140625 c 0,0,1
EndSplineSet
Validated: 19489
EndChar

StartChar: Osyq7
Encoding: 126215 126215 59
Width: 828
Flags: W
HStem: 0 21G<642.349 658.79> 12.2783 79.9414<95.0339 253.789>
VStem: 288.23 164.616<438.873 509.495> 409.446 80.0273<219.714 326.92> 613.241 77.3418<15.7236 194.544> 626.852 80<17.6558 391.868 494.2 628.796>
LayerCount: 2
Fore
SplineSet
706.8515625 197.8671875 m 0,0,1
 706.8515625 91.1628029872 706.8515625 91.1628029872 690.583007812 29.7451171875 c 0,2,3
 687.145850969 16.7680360063 687.145850969 16.7680360063 676.40711257 8.38401800317 c 128,-1,4
 665.668374171 0 665.668374171 0 651.912109375 0 c 0,5,6
 632.78667442 0 632.78667442 0 620.396650057 15.2460814877 c 128,-1,7
 608.006625694 30.4921629754 608.006625694 30.4921629754 613.241210938 50.2548828125 c 0,8,9
 626.8515625 101.640687587 626.8515625 101.640687587 626.8515625 197.8671875 c 0,10,11
 626.8515625 238.752474698 626.8515625 238.752474698 623.28403641 327.977749978 c 0,12,13
 621.946489961 361.430329469 621.946489961 361.430329469 621.242445043 391.868387629 c 1,14,15
 607.996818766 380.02255464 607.996818766 380.02255464 593.009765625 369.190429688 c 0,16,17
 543.142487126 333.147650409 543.142487126 333.147650409 489.473632812 320.998046875 c 1,18,19
 488.213284536 150.357145721 488.213284536 150.357145721 352.178710938 70.265625 c 0,20,21
 262.65925638 17.5615015489 262.65925638 17.5615015489 124.030273438 12.2783203125 c 0,22,23
 106.821308404 11.6222835237 106.821308404 11.6222835237 94.6523534205 23.4728848404 c 128,-1,24
 82.4833984375 35.3234861572 82.4833984375 35.3234861572 82.4833984375 52.2490234375 c 0,25,26
 82.4833984375 68.3887749774 82.4833984375 68.3887749774 93.6848411677 79.998273359 c 128,-1,27
 104.886283898 91.6077717405 104.886283898 91.6077717405 120.936523438 92.2197265625 c 0,28,29
 239.457825529 96.7361522758 239.457825529 96.7361522758 311.676757812 139.255859375 c 0,30,31
 363.812795299 169.95177117 363.812795299 169.95177117 387.979492188 219.705078125 c 0,32,33
 410.749607379 266.585388676 410.749607379 266.585388676 409.446289062 328.686523438 c 1,34,35
 372.652194313 342.12578541 372.652194313 342.12578541 341.807617188 367.053710938 c 0,36,37
 316.45830862 387.542327574 316.45830862 387.542327574 302.658203125 410.36328125 c 0,38,39
 288.23046875 434.221776172 288.23046875 434.221776172 288.23046875 458.041015625 c 0,40,41
 288.23046875 487.55246135 288.23046875 487.55246135 309.228515625 509.5390625 c 0,42,43
 323.820549767 524.817259285 323.820549767 524.817259285 347.560546875 534.330078125 c 0,44,45
 363.548142585 540.736328125 363.548142585 540.736328125 379.388671875 540.736328125 c 0,46,47
 424.933904062 540.736328125 424.933904062 540.736328125 452.846679688 493.412109375 c 0,48,49
 472.604099614 459.915356061 472.604099614 459.915356061 482.516601562 401.865234375 c 1,50,51
 524.340237133 414.410397328 524.340237133 414.410397328 561.321049334 446.052851435 c 128,-1,52
 598.301861534 477.695305542 598.301861534 477.695305542 616.94921875 514.489257812 c 0,53,54
 619.133792848 518.799896403 619.133792848 518.799896403 621.836684273 522.264263711 c 0,55,56
 624.175843177 568.714592352 624.175843177 568.714592352 630.762695312 609.426757812 c 0,57,58
 633.087936379 623.798695143 633.087936379 623.798695143 644.261290862 633.399347571 c 128,-1,59
 655.434645344 643 655.434645344 643 670.248046875 643 c 0,60,61
 688.365204299 643 688.365204299 643 700.576616386 629.227357216 c 128,-1,62
 712.788028472 615.454714432 712.788028472 615.454714432 709.733398438 596.573242188 c 0,63,64
 700.642578125 540.380551962 700.642578125 540.380551962 700.642578125 455.501953125 c 0,65,66
 700.642578125 413.68371582 700.642578125 413.68371582 703.747070312 326.645385742 c 128,-1,67
 706.8515625 239.607055664 706.8515625 239.607055664 706.8515625 197.8671875 c 0,0,1
EndSplineSet
Validated: 3105
EndChar

StartChar: Osyq8
Encoding: 126216 126216 60
Width: 918
Flags: W
HStem: -0.00390625 21G<490.545 504.804> 405.443 80<76.0987 261.779> 563.9 78.1992<738.541 813.884>
VStem: 261.953 80<248.508 421.285> 442.092 81.2913<127.434 326.574>
LayerCount: 2
Fore
SplineSet
81.2734375 420.020507812 m 128,-1,1
 71 431.395507812 71 431.395507812 71 447.88671875 c 128,-1,2
 71 464.377929688 71 464.377929688 84.052734375 476.448242188 c 128,-1,3
 97.1064453125 488.518554688 97.1064453125 488.518554688 111.286132812 486.980957031 c 128,-1,4
 125.465820312 485.443359375 125.465820312 485.443359375 148.736816406 485.443359375 c 128,-1,5
 172.0078125 485.443359375 172.0078125 485.443359375 218.779785156 494.047851562 c 128,-1,6
 265.551757812 502.65234375 265.551757812 502.65234375 285.263671875 510.44140625 c 128,-1,7
 304.975585938 518.23046875 304.975585938 518.23046875 318.066894531 518.23046875 c 128,-1,8
 331.158203125 518.23046875 331.158203125 518.23046875 343.462890625 503.8359375 c 128,-1,9
 355.767578125 489.442382812 355.767578125 489.442382812 351.7890625 470.129882812 c 0,10,11
 341.953125 422.390625 341.953125 422.390625 341.953125 376.645507812 c 0,12,13
 341.953125 223.560546875 341.953125 223.560546875 444.848632812 126.13671875 c 1,14,15
 442.147142253 161.212763673 442.147142253 161.212763673 442.091921162 192 c 4,16,17
 441.98411353 252.105640672 441.98411353 252.105640672 451.962402344 295.864746094 c 0,18,19
 467.051757812 362.038085938 467.051757812 362.038085938 503.71484375 422.577148438 c 128,-1,20
 540.376953125 483.1171875 540.376953125 483.1171875 591.979492188 533.13671875 c 0,21,22
 682.59765625 620.97265625 682.59765625 620.97265625 780.405273438 642.099609375 c 0,23,24
 799.801757812 646.2890625 799.801757812 646.2890625 814.33984375 633.967773438 c 128,-1,25
 828.877929688 621.646484375 828.877929688 621.646484375 828.877929688 605.197753906 c 128,-1,26
 828.877929688 588.749023438 828.877929688 588.749023438 819.931640625 577.796875 c 128,-1,27
 810.985351562 566.845703125 810.985351562 566.845703125 797.350585938 563.900390625 c 0,28,29
 721.802734375 547.583007812 721.802734375 547.583007812 647.642578125 475.698242188 c 0,30,31
 604.373046875 433.755859375 604.373046875 433.755859375 573.157226562 382.157226562 c 128,-1,32
 541.942382812 330.559570312 541.942382812 330.559570312 531.256835938 283.698242188 c 0,33,34
 523.210930025 248.41563342 523.210930025 248.41563342 523.383174909 193 c 0,35,36
 523.574786784 131.353504964 523.574786784 131.353504964 533.936523438 44.7919921875 c 0,37,38
 536.137695312 26.404296875 536.137695312 26.404296875 524.03515625 13.2001953125 c 128,-1,39
 511.93359375 -0.00390625 511.93359375 -0.00390625 497.674804688 -0.00390625 c 128,-1,40
 483.416015625 -0.00390625 483.416015625 -0.00390625 474.124023438 5.4111328125 c 0,41,42
 355.69921875 74.4267578125 355.69921875 74.4267578125 301.741210938 190.001953125 c 0,43,44
 261.953125 275.227539062 261.953125 275.227539062 261.953125 376.645507812 c 0,45,46
 261.953125 399.059570312 261.953125 399.059570312 263.9453125 421.852539062 c 1,47,48
 194.370117188 405.443359375 194.370117188 405.443359375 157.725585938 405.443359375 c 128,-1,49
 121.081054688 405.443359375 121.081054688 405.443359375 106.314453125 407.044433594 c 128,-1,0
 91.5478515625 408.645507812 91.5478515625 408.645507812 81.2734375 420.020507812 c 128,-1,1
EndSplineSet
Validated: 19489
EndChar

StartChar: Osyq9
Encoding: 126217 126217 61
Width: 706
Flags: W
HStem: 3.10645 80<105.344 281.052>
VStem: 515.64 79.8086<283.628 630.805>
LayerCount: 2
Fore
SplineSet
514.51171875 541.53515625 m 2,0,1
 514.51171875 588.885742188 514.51171875 588.885742188 518.316894531 608.058105469 c 128,-1,2
 522.122070312 627.23046875 522.122070312 627.23046875 533.147460938 636.384765625 c 128,-1,3
 544.171875 645.5390625 544.171875 645.5390625 560.624511719 645.5390625 c 128,-1,4
 577.077148438 645.5390625 577.077148438 645.5390625 589.3671875 631.251953125 c 128,-1,5
 601.658203125 616.96484375 601.658203125 616.96484375 598.084960938 598.963867188 c 128,-1,6
 594.51171875 580.962890625 594.51171875 580.962890625 594.51171875 553.542480469 c 128,-1,7
 594.51171875 526.122070312 594.51171875 526.122070312 595.196289062 477.619140625 c 128,-1,8
 595.881835938 429.116210938 595.881835938 429.116210938 595.448242188 407.434570312 c 0,9,10
 590.789264868 174.464717975 590.789264868 174.464717975 449.0859375 157.1484375 c 1,11,12
 436.77734375 115.602539062 436.77734375 115.602539062 398.415039062 81.4208984375 c 128,-1,13
 360.052734375 47.2392578125 360.052734375 47.2392578125 296.802734375 25.1728515625 c 128,-1,14
 233.551757812 3.1064453125 233.551757812 3.1064453125 174.272815607 3.1064453125 c 128,-1,15
 114.993873402 3.1064453125 114.993873402 3.1064453125 100.479492188 20.1552734375 c 0,16,17
 91 31.2890625 91 31.2890625 91 47.7509765625 c 128,-1,18
 91 64.212890625 91 64.212890625 104.909179688 76.447265625 c 128,-1,19
 118.818359375 88.681640625 118.818359375 88.681640625 135.060058594 85.8940429688 c 128,-1,20
 151.301757812 83.1064453125 151.301757812 83.1064453125 168.165039062 83.1064453125 c 0,21,22
 221.133789062 83.1064453125 221.133789062 83.1064453125 284.056738286 105.720067123 c 128,-1,23
 346.979687509 128.333688934 346.979687509 128.333688934 367.90234375 168.493164062 c 1,24,25
 323.112304688 184.259765625 323.112304688 184.259765625 287.299316406 213.948730469 c 128,-1,26
 251.486328125 243.637695312 251.486328125 243.637695312 251.486328125 284.560546875 c 0,27,28
 251.486328125 306.130859375 251.486328125 306.130859375 261.819335938 323.2734375 c 128,-1,29
 272.15234375 340.416015625 272.15234375 340.416015625 288.580078125 348.802734375 c 0,30,31
 326.350221 368.085147262 326.350221 368.085147262 375.796875 336.459960938 c 0,32,33
 429.378412584 302.196144826 429.378412584 302.196144826 448.313476562 238.064453125 c 1,34,35
 459.854492188 240.80078125 459.854492188 240.80078125 469.059570312 247.520507812 c 0,36,37
 515.639648438 281.522460938 515.639648438 281.522460938 515.639648438 443.640625 c 1,38,-1
 514.51171875 541.53515625 l 2,0,1
EndSplineSet
Validated: 3105
EndChar

StartChar: Osyq10
Encoding: 126218 126218 62
Width: 1194
Flags: W
HStem: -0.0947266 79.9112<450.934 633.552> 170.864 80<96.8007 284.461> 466.469 80.1895<862.534 1013.23>
VStem: 329.434 80<121.932 203.552> 735.125 80.3438<268.678 423.976>
LayerCount: 2
Fore
SplineSet
329.43359375 188.325195312 m 0,0,1
 329.43359375 196.087890625 329.43359375 196.087890625 330.040039062 203.873046875 c 1,2,3
 245.010742188 170.864257812 245.010742188 170.864257812 159.287109375 170.864257812 c 0,4,5
 137.184570312 170.864257812 137.184570312 170.864257812 120.051269531 173.145019531 c 128,-1,6
 102.91796875 175.42578125 102.91796875 175.42578125 92.958984375 186.709960938 c 128,-1,7
 83 197.993164062 83 197.993164062 83 214.471679688 c 128,-1,8
 83 230.950195312 83 230.950195312 96.3818359375 243.088867188 c 128,-1,9
 109.762695312 255.228515625 109.762695312 255.228515625 126.152832031 253.046386719 c 128,-1,10
 142.54296875 250.864257812 142.54296875 250.864257812 159.287109375 250.864257812 c 0,11,12
 228.842773438 250.864257812 228.842773438 250.864257812 292.433105469 275.153808594 c 128,-1,13
 356.0234375 299.443359375 356.0234375 299.443359375 385.287109375 329.868164062 c 0,14,15
 397.098632812 342.150390625 397.098632812 342.150390625 413.885253906 342.150390625 c 128,-1,16
 430.671875 342.150390625 430.671875 342.150390625 442.393554688 330.428710938 c 128,-1,17
 454.115234375 318.70703125 454.115234375 318.70703125 454.115234375 302.860839844 c 128,-1,18
 454.115234375 287.014648438 454.115234375 287.014648438 444.090820312 275.676757812 c 0,19,20
 409.43359375 236.471679688 409.43359375 236.471679688 409.43359375 192.572265625 c 128,-1,21
 409.43359375 148.672851562 409.43359375 148.672851562 432.854492188 119.264648438 c 0,22,23
 463.797128893 80.4109942663 463.797128893 80.4109942663 518 79.8164628307 c 0,24,25
 590.721415162 79.0188082697 590.721415162 79.0188082697 710.125976562 129.770507812 c 4,26,27
 743.189453125 143.825195312 743.189453125 143.825195312 775.239789983 158.614655287 c 128,-1,28
 807.290126841 173.404115262 807.290126841 173.404115262 814.499817661 176.708481133 c 1,29,30
 783.907880402 200.111094296 783.907880402 200.111094296 759.93782692 242.121953398 c 128,-1,31
 735.967773438 284.1328125 735.967773438 284.1328125 735.125 342.857421875 c 0,32,33
 733.38701273 463.958683179 733.38701273 463.958683179 824.4765625 516.033203125 c 0,34,35
 877.333007812 547.893554688 877.333007812 547.893554688 944.73046875 546.658203125 c 128,-1,36
 1012.12792969 545.422851562 1012.12792969 545.422851562 1062.06933594 508.041992188 c 0,37,38
 1078.13378906 496.017578125 1078.13378906 496.017578125 1078.13378906 477.73046875 c 128,-1,39
 1078.13378906 459.443359375 1078.13378906 459.443359375 1066.41210938 447.721679688 c 128,-1,40
 1054.69140625 436 1054.69140625 436 1039.76074219 436 c 128,-1,41
 1024.83007812 436 1024.83007812 436 1014.19824219 443.958007812 c 0,42,43
 984.124023438 466.46875 984.124023438 466.46875 941.547851562 466.46875 c 128,-1,44
 898.971679688 466.46875 898.971679688 466.46875 869.443359375 449.588378906 c 128,-1,45
 839.915039062 432.708007812 839.915039062 432.708007812 831.333007812 415.678710938 c 0,46,47
 815.108398438 384.04296875 815.108398438 384.04296875 815.46875 344.819335938 c 128,-1,48
 815.829101562 305.596679688 815.829101562 305.596679688 833.2109375 275.131835938 c 0,49,50
 857.415039062 232.711914062 857.415039062 232.711914062 908.065429688 218.889648438 c 0,51,52
 908.875743369 218.668547595 908.875743369 218.668547595 960.354473815 239.800142079 c 128,-1,53
 1011.83320426 260.931736562 1011.83320426 260.931736562 1037.88291072 274.15678625 c 128,-1,54
 1063.93261719 287.381835938 1063.93261719 287.381835938 1082.76367188 275.15234375 c 128,-1,55
 1101.59472656 262.922851562 1101.59472656 262.922851562 1101.59472656 239.849609375 c 128,-1,56
 1101.59472656 216.776367188 1101.59472656 216.776367188 1079.66308594 205.641601562 c 0,57,58
 1037.81933594 184.397460938 1037.81933594 184.397460938 967.793945312 155.717773438 c 128,-1,59
 897.768554688 127.038085938 897.768554688 127.038085938 834.997558594 98.0727539062 c 128,-1,60
 772.2265625 69.107421875 772.2265625 69.107421875 740.21875 55.3564453125 c 128,-1,61
 708.2109375 41.6044921875 708.2109375 41.6044921875 652.692382812 24.3193359375 c 0,62,63
 574.274965793 -0.0947265625 574.274965793 -0.0947265625 521.12109375 -0.0947265625 c 0,64,65
 439.6484375 -0.0947265625 439.6484375 -0.0947265625 384.541015625 53.677734375 c 128,-1,66
 329.43359375 107.450195312 329.43359375 107.450195312 329.43359375 188.325195312 c 0,0,1
EndSplineSet
Validated: 3105
EndChar

StartChar: Osyq20
Encoding: 126219 126219 63
Width: 1446
Flags: W
HStem: 108.147 80<539.226 698.022> 325.873 78.8574<83.3343 209.206> 466.469 80.1897<1105.88 1256.58>
VStem: 978.475 80.344<269.006 423.976>
LayerCount: 2
Fore
SplineSet
825.0390625 280.846679688 m 128,-1,1
 836.760742188 269.125 836.760742188 269.125 836.760742188 255.326171875 c 128,-1,2
 836.760742188 241.526367188 836.760742188 241.526367188 831.12109375 232.08984375 c 0,3,4
 795.490234375 172.475585938 795.490234375 172.475585938 737.846679688 140.311523438 c 128,-1,5
 680.203125 108.147460938 680.203125 108.147460938 615.874023438 108.147460938 c 128,-1,6
 551.545898438 108.147460938 551.545898438 108.147460938 497.486328125 141.0234375 c 0,7,8
 423.873046875 185.791015625 423.873046875 185.791015625 396.482421875 274.440429688 c 0,9,10
 379.216796875 330.323242188 379.216796875 330.323242188 392.196289062 404.451171875 c 1,11,12
 296.767578125 356.778320312 296.767578125 356.778320312 115.76953125 325.873046875 c 0,13,14
 96.7978515625 322.633789062 96.7978515625 322.633789062 82.8984375 334.864257812 c 128,-1,15
 69 347.095703125 69 347.095703125 69 363.55859375 c 128,-1,16
 69 380.021484375 69 380.021484375 78.490234375 391.159179688 c 128,-1,17
 87.98046875 402.296875 87.98046875 402.296875 102.23046875 404.73046875 c 0,18,19
 214.209960938 423.850585938 214.209960938 423.850585938 294.20703125 450.083984375 c 128,-1,20
 374.205078125 476.317382812 374.205078125 476.317382812 435.825195312 527.194335938 c 0,21,22
 446.896484375 536.336914062 446.896484375 536.336914062 464.385742188 536.336914062 c 128,-1,23
 481.875 536.336914062 481.875 536.336914062 494.260742188 518.895507812 c 128,-1,24
 506.645507812 501.454101562 506.645507812 501.454101562 498.268554688 481.124023438 c 0,25,26
 466.686523438 404.475585938 466.686523438 404.475585938 466.686523438 343.971679688 c 0,27,28
 466.686523438 318.276367188 466.686523438 318.276367188 472.93359375 298.057617188 c 0,29,30
 491.375 238.372070312 491.375 238.372070312 538.969726562 209.426757812 c 0,31,32
 573.958984375 188.147460938 573.958984375 188.147460938 616.702148438 188.147460938 c 128,-1,33
 659.484375 188.147460938 659.484375 188.147460938 698.625976562 209.989257812 c 128,-1,34
 737.766601562 231.831054688 737.766601562 231.831054688 762.400390625 273.046875 c 0,35,36
 774.068359375 292.568359375 774.068359375 292.568359375 793.693359375 292.568359375 c 128,-1,0
 813.318359375 292.568359375 813.318359375 292.568359375 825.0390625 280.846679688 c 128,-1,1
1326.11425781 275.15234375 m 128,-1,38
 1344.9453125 262.922851562 1344.9453125 262.922851562 1344.9453125 239.849609375 c 128,-1,39
 1344.9453125 216.776367188 1344.9453125 216.776367188 1323.01367188 205.641601562 c 0,40,41
 1198.45117188 142.40234375 1198.45117188 142.40234375 888.78125 34.310546875 c 0,42,43
 819.685546875 10.1923828125 819.685546875 10.1923828125 800.084960938 3.28515625 c 128,-1,44
 780.484375 -3.6220703125 780.484375 -3.6220703125 763.9453125 8.8046875 c 128,-1,45
 747.40625 21.23046875 747.40625 21.23046875 747.40625 37.6845703125 c 0,46,47
 747.40625 69.55859375 747.40625 69.55859375 774.123046875 78.974609375 c 0,48,49
 792.229492188 85.35546875 792.229492188 85.35546875 861.493164062 109.543945312 c 0,50,51
 980.760742188 151.196289062 980.760742188 151.196289062 1054.62207031 179.234375 c 1,52,53
 1026.18164062 201.999023438 1026.18164062 201.999023438 1002.75 243.065429688 c 128,-1,54
 979.318359375 284.1328125 979.318359375 284.1328125 978.475585938 342.857421875 c 0,55,56
 976.737304688 463.958007812 976.737304688 463.958007812 1067.82714844 516.033203125 c 0,57,58
 1120.68359375 547.893554688 1120.68359375 547.893554688 1188.08105469 546.658203125 c 128,-1,59
 1255.47851562 545.422851562 1255.47851562 545.422851562 1305.41992188 508.041992188 c 0,60,61
 1321.484375 496.017578125 1321.484375 496.017578125 1321.484375 477.73046875 c 128,-1,62
 1321.484375 459.442382812 1321.484375 459.442382812 1309.76269531 447.721679688 c 128,-1,63
 1298.04101562 436 1298.04101562 436 1283.11132812 436 c 128,-1,64
 1268.18066406 436 1268.18066406 436 1257.54882812 443.958007812 c 0,65,66
 1227.47460938 466.46875 1227.47460938 466.46875 1184.8984375 466.46875 c 128,-1,67
 1142.32226562 466.46875 1142.32226562 466.46875 1112.79394531 449.587890625 c 128,-1,68
 1083.265625 432.708007812 1083.265625 432.708007812 1074.68359375 415.678710938 c 0,69,70
 1058.45898438 384.04296875 1058.45898438 384.04296875 1058.81933594 344.819335938 c 128,-1,71
 1059.1796875 305.596679688 1059.1796875 305.596679688 1076.56152344 275.131835938 c 0,72,73
 1100.765625 232.711914062 1100.765625 232.711914062 1151.41601562 218.889648438 c 0,74,75
 1152.2265625 218.66796875 1152.2265625 218.66796875 1203.70507812 239.799804688 c 128,-1,76
 1255.18359375 260.931640625 1255.18359375 260.931640625 1281.23339844 274.157226562 c 128,-1,37
 1307.28320312 287.381835938 1307.28320312 287.381835938 1326.11425781 275.15234375 c 128,-1,38
EndSplineSet
Validated: 3105
EndChar

StartChar: Osyq30
Encoding: 126220 126220 64
Width: 1336
Flags: W
HStem: 0.0410156 79.8877<898.371 1051.93>
VStem: 419.523 80<165.675 393.44> 757.953 79.6074<190.595 286.535> 1155.67 79.9941<206.515 360.085>
LayerCount: 2
Fore
SplineSet
499.5234375 375.030273438 m 1,0,-1
 493.48828125 271 l 1,1,2
 493.48828125 236.333984375 493.48828125 236.333984375 501.64453125 211.642578125 c 0,3,4
 523.282226562 146.143554688 523.282226562 146.143554688 561.014648438 113.275390625 c 0,5,6
 638.438345412 45.8307301152 638.438345412 45.8307301152 709.166015625 116.801757812 c 0,7,8
 740.021484375 147.764648438 740.021484375 147.764648438 752.866210938 189.286132812 c 1,9,10
 746.083984375 231.22265625 746.083984375 231.22265625 757.953125 268.059570312 c 0,11,12
 761.889648438 280.27734375 761.889648438 280.27734375 772.366210938 288.036132812 c 128,-1,13
 782.84375 295.795898438 782.84375 295.795898438 796.578613281 295.795898438 c 128,-1,14
 810.313476562 295.795898438 810.313476562 295.795898438 821.275390625 286.819335938 c 128,-1,15
 832.23828125 277.842773438 832.23828125 277.842773438 837.560546875 252.902832031 c 128,-1,16
 842.8828125 227.962890625 842.8828125 227.962890625 835.26171875 188.276367188 c 1,17,18
 847.5546875 146.809570312 847.5546875 146.809570312 883.503417969 113.369140625 c 128,-1,19
 919.452148438 79.9287109375 919.452148438 79.9287109375 961.783203125 79.9287109375 c 0,20,21
 1056.88769531 79.9287109375 1056.88769531 79.9287109375 1105.60205078 150.485351562 c 128,-1,22
 1154.31640625 221.041992188 1154.31640625 221.041992188 1155.66503906 332.767578125 c 0,23,24
 1155.86328125 349.1640625 1155.86328125 349.1640625 1167.54980469 360.719726562 c 128,-1,25
 1179.23730469 372.275390625 1179.23730469 372.275390625 1195.82275391 372.275390625 c 128,-1,26
 1212.40820312 372.275390625 1212.40820312 372.275390625 1224.03320312 360.456054688 c 128,-1,27
 1235.65917969 348.63671875 1235.65917969 348.63671875 1235.65917969 331.783203125 c 0,28,29
 1234.01660156 195.689453125 1234.01660156 195.689453125 1174.5859375 109.607421875 c 0,30,31
 1138.1796875 56.8779296875 1138.1796875 56.8779296875 1083.53515625 28.8681640625 c 128,-1,32
 1028.890625 0.859375 1028.890625 0.859375 970.923828125 0.041015625 c 128,-1,33
 912.95703125 -0.77734375 912.95703125 -0.77734375 868.271484375 26.1982421875 c 128,-1,34
 823.584960938 53.173828125 823.584960938 53.173828125 793.975585938 93.7197265625 c 1,35,36
 765.928710938 54.2841796875 765.928710938 54.2841796875 724.493164062 27.3154296875 c 128,-1,37
 683.057617188 0.34765625 683.057617188 0.34765625 636.481445312 0.34765625 c 0,38,39
 568.411132812 0.34765625 568.411132812 0.34765625 511.202148438 50.572265625 c 128,-1,40
 453.994140625 100.796875 453.994140625 100.796875 425.662109375 186.560546875 c 0,41,42
 408.734375 237.8046875 408.734375 237.8046875 416.944335938 333.078125 c 0,43,44
 419.5234375 363.028320312 419.5234375 363.028320312 419.5234375 375.160644531 c 128,-1,45
 419.5234375 387.29296875 419.5234375 387.29296875 417.813476562 394.053710938 c 1,46,47
 355.234083008 383.200989453 355.234083008 383.200989453 184.263671875 296.0078125 c 0,48,49
 130.301757812 268.48828125 130.301757812 268.48828125 119.029296875 261.187988281 c 128,-1,50
 107.756835938 253.887695312 107.756835938 253.887695312 93.5698242188 253.887695312 c 128,-1,51
 79.3828125 253.887695312 79.3828125 253.887695312 67.6611328125 265.609375 c 128,-1,52
 55.939453125 277.331054688 55.939453125 277.331054688 55.939453125 296.483398438 c 128,-1,53
 55.939453125 315.635742188 55.939453125 315.635742188 74.236328125 327.485351562 c 0,54,55
 125.538085938 360.71484375 125.538085938 360.71484375 221.460449219 403.689941406 c 128,-1,56
 317.3828125 446.665039062 317.3828125 446.665039062 348.844238281 457.264648438 c 0,57,58
 401.326325548 474.946289062 401.326325548 474.946289062 421.672928399 474.946289062 c 128,-1,59
 442.01953125 474.946289062 442.01953125 474.946289062 454.556640625 468.108398438 c 0,60,61
 499.5234375 443.583007812 499.5234375 443.583007812 499.5234375 375.030273438 c 1,0,-1
EndSplineSet
Validated: 3105
EndChar

StartChar: Osyq40
Encoding: 126221 126221 65
Width: 1615
Flags: W
HStem: 0 80<557.926 844.334> 298.086 79.7969<73.1293 336.852>
VStem: 390.928 80.1895<176.191 333.836> 1204.34 80.1689<253.764 387.259> 1222.22 79.9014<516.225 629.929> 1448.45 80.5547<111.87 588.03> 1458.37 79.874<362.185 638.625>
LayerCount: 2
Fore
SplineSet
949.884765625 406.693359375 m 1,0,1
 943.715820312 402.399414062 943.715820312 402.399414062 958.342773438 385.0546875 c 128,-1,2
 972.96875 367.7109375 972.96875 367.7109375 993.220703125 362.087890625 c 1,3,4
 988.319335938 380.154296875 988.319335938 380.154296875 971.4609375 393.184570312 c 128,-1,5
 954.603515625 406.21484375 954.603515625 406.21484375 949.884765625 406.693359375 c 1,0,1
1471.06933594 632.338867188 m 128,-1,7
 1482.52929688 643.000976562 1482.52929688 643.000976562 1499.09179688 643.000976562 c 128,-1,8
 1515.65429688 643.000976562 1515.65429688 643.000976562 1526.95019531 630.858398438 c 128,-1,9
 1538.24707031 618.716796875 1538.24707031 618.716796875 1538.24707031 610.06640625 c 128,-1,10
 1538.24707031 601.416992188 1538.24707031 601.416992188 1536.51953125 579.7734375 c 128,-1,11
 1534.79296875 558.130859375 1534.79296875 558.130859375 1529 341.125 c 128,-1,12
 1523.20703125 124.119140625 1523.20703125 124.119140625 1504.59570312 32.072265625 c 0,13,14
 1501.79785156 18.244140625 1501.79785156 18.244140625 1490.79492188 9.1240234375 c 128,-1,15
 1479.79101562 0.00390625 1479.79101562 0.00390625 1470.09765625 0.00390625 c 128,-1,16
 1460.40429688 0.00390625 1460.40429688 0.00390625 1455.59765625 1.216796875 c 0,17,18
 1355.40722656 26.51171875 1355.40722656 26.51171875 1281.12597656 133.717773438 c 128,-1,19
 1206.84472656 240.923828125 1206.84472656 240.923828125 1204.33984375 336.427734375 c 2,20,-1
 1204.33007812 336.912109375 l 2,21,22
 1204.02539062 358.484375 1204.02539062 358.484375 1205.93261719 388.185546875 c 1,23,24
 1136.78417969 312.561523438 1136.78417969 312.561523438 1067.14257812 289.310546875 c 1,25,26
 1026.33691406 113.85546875 1026.33691406 113.85546875 927.31640625 51.859375 c 0,27,28
 877.786132812 20.84765625 877.786132812 20.84765625 813.767578125 10.423828125 c 128,-1,29
 749.749023438 0 749.749023438 0 650.6875 0 c 128,-1,30
 551.625 0 551.625 0 490.521484375 50.18359375 c 128,-1,31
 429.41796875 100.3671875 429.41796875 100.3671875 407.040039062 176.17578125 c 128,-1,32
 384.663085938 251.985351562 384.663085938 251.985351562 390.927734375 333.8359375 c 1,33,34
 354.244140625 318.1171875 354.244140625 318.1171875 303.794921875 307.9765625 c 0,35,36
 204.487304688 288.013671875 204.487304688 288.013671875 105.42578125 298.0859375 c 0,37,38
 90.2265625 299.630859375 90.2265625 299.630859375 79.8486328125 311.013671875 c 128,-1,39
 69.470703125 322.396484375 69.470703125 322.396484375 69.470703125 331.14453125 c 128,-1,40
 69.470703125 339.892578125 69.470703125 339.892578125 70.3466796875 348.509765625 c 128,-1,41
 71.22265625 357.126953125 71.22265625 357.126953125 82.60546875 367.504882812 c 128,-1,42
 93.98828125 377.8828125 93.98828125 377.8828125 102.736328125 377.8828125 c 128,-1,43
 111.484375 377.8828125 111.484375 377.8828125 113.51953125 377.67578125 c 0,44,45
 200.557617188 368.825195312 200.557617188 368.825195312 288.029296875 386.408203125 c 0,46,47
 333.674804688 395.583007812 333.674804688 395.583007812 368.532226562 412.934570312 c 128,-1,48
 403.389648438 430.287109375 403.389648438 430.287109375 416.015625 449.484375 c 128,-1,49
 428.640625 468.681640625 428.640625 468.681640625 447.697265625 468.681640625 c 128,-1,50
 466.75390625 468.681640625 466.75390625 468.681640625 478.4765625 456.958984375 c 128,-1,51
 490.19921875 445.236328125 490.19921875 445.236328125 490.19921875 433.590820312 c 128,-1,52
 490.19921875 421.944335938 490.19921875 421.944335938 488.021484375 415.634765625 c 0,53,54
 474.123046875 375.475585938 474.123046875 375.475585938 471.1171875 318.856445312 c 128,-1,55
 468.111328125 262.237304688 468.111328125 262.237304688 482.359375 203.595703125 c 0,56,57
 518.841796875 80 518.841796875 80 653.12890625 80 c 0,58,59
 821.508789062 80 821.508789062 80 884.86328125 119.666015625 c 0,60,61
 950.828125 160.966796875 950.828125 160.966796875 983.220703125 283.16796875 c 1,62,63
 929.975585938 294.599609375 929.975585938 294.599609375 891.685546875 340.00390625 c 0,64,65
 868.697265625 367.262695312 868.697265625 367.262695312 868.067382812 401.817382812 c 128,-1,66
 867.438476562 436.37109375 867.438476562 436.37109375 889.548828125 460.021484375 c 128,-1,67
 911.567382812 483.736328125 911.567382812 483.736328125 948.359375 483.7265625 c 128,-1,68
 985.150390625 483.716796875 985.150390625 483.716796875 1020.90332031 456.08203125 c 128,-1,69
 1056.65625 428.447265625 1056.65625 428.447265625 1068.81640625 377.724609375 c 1,70,71
 1121.70117188 407.352539062 1121.70117188 407.352539062 1164.703125 464.58984375 c 128,-1,72
 1207.70605469 521.828125 1207.70605469 521.828125 1221.65332031 556.10546875 c 1,73,74
 1223.18945312 582.7109375 1223.18945312 582.7109375 1222.70605469 591.1328125 c 128,-1,75
 1222.22363281 599.553710938 1222.22363281 599.553710938 1222.22363281 608.365234375 c 128,-1,76
 1222.22363281 617.177734375 1222.22363281 617.177734375 1233.16601562 628.7265625 c 0,77,78
 1245.00097656 641.215820312 1245.00097656 641.215820312 1261.56054688 641.215820312 c 128,-1,79
 1278.12109375 641.215820312 1278.12109375 641.215820312 1289.66992188 630.272460938 c 128,-1,80
 1301.21875 619.328125 1301.21875 619.328125 1302.125 603.537109375 c 0,81,82
 1304.97070312 553.926757812 1304.97070312 553.926757812 1294.41113281 463.91015625 c 128,-1,83
 1283.8515625 373.89453125 1283.8515625 373.89453125 1284.50878906 340.69140625 c 128,-1,84
 1285.16503906 307.48828125 1285.16503906 307.48828125 1301.23339844 264.731445312 c 128,-1,85
 1317.30175781 221.974609375 1317.30175781 221.974609375 1343.671875 183.916015625 c 0,86,87
 1383.70703125 126.135742188 1383.70703125 126.135742188 1433.91992188 96.4375 c 1,88,89
 1443.86230469 173.807617188 1443.86230469 173.807617188 1448.4453125 356.50390625 c 128,-1,90
 1453.02929688 539.201171875 1453.02929688 539.201171875 1458.37304688 606.181640625 c 0,91,6
 1459.609375 621.676757812 1459.609375 621.676757812 1471.06933594 632.338867188 c 128,-1,7
EndSplineSet
Validated: 3105
EndChar

StartChar: Osyq50
Encoding: 126222 126222 66
Width: 1580
Flags: W
HStem: -0.0810547 85.958<563.695 822.078> 31.4414 80.4766<1096.6 1335.7> 192.758 79.9941<76.7036 302.4>
LayerCount: 2
Fore
SplineSet
1031.99804688 430.322265625 m 0,0,1
 1042.85351562 453.143554688 1042.85351562 453.143554688 1069.5546875 453.143554688 c 128,-1,2
 1096.25585938 453.143554688 1096.25585938 453.143554688 1105.76953125 426.666015625 c 0,3,4
 1123.3671875 377.657226562 1123.3671875 377.657226562 1164.45996094 336.033203125 c 128,-1,5
 1205.55175781 294.409179688 1205.55175781 294.409179688 1246.42089844 266.774414062 c 128,-1,6
 1287.2890625 239.139648438 1287.2890625 239.139648438 1324.15625 215.65625 c 128,-1,7
 1361.02441406 192.172851562 1361.02441406 192.172851562 1383.56933594 177.254882812 c 0,8,9
 1445.09667969 136.540039062 1445.09667969 136.540039062 1482.67382812 94.86328125 c 0,10,11
 1493 83.4033203125 1493 83.4033203125 1493 67.462890625 c 128,-1,12
 1493 51.5224609375 1493 51.5224609375 1481.27734375 39.7998046875 c 128,-1,13
 1469.55566406 28.078125 1469.55566406 28.078125 1452.99609375 28.078125 c 0,14,15
 1451.11132812 28.078125 1451.11132812 28.078125 1438.20605469 29.2783203125 c 128,-1,16
 1425.30078125 30.478515625 1425.30078125 30.478515625 1395.01757812 31.373046875 c 128,-1,17
 1364.734375 32.267578125 1364.734375 32.267578125 1324.03027344 31.44140625 c 128,-1,18
 1283.32519531 30.615234375 1283.32519531 30.615234375 1250.78808594 29.66796875 c 128,-1,19
 1218.25 28.720703125 1218.25 28.720703125 1163.81738281 25.83984375 c 128,-1,20
 1109.38378906 22.9580078125 1109.38378906 22.9580078125 1079.33691406 21.263671875 c 128,-1,21
 1049.29003906 19.5693359375 1049.29003906 19.5693359375 985.874023438 15.7275390625 c 0,22,23
 714.9921875 -0.681640625 714.9921875 -0.681640625 633.9765625 -0.0810546875 c 128,-1,24
 552.9609375 0.5205078125 552.9609375 0.5205078125 507.19140625 6.6337890625 c 128,-1,25
 461.422851562 12.74609375 461.422851562 12.74609375 438.247070312 30.6611328125 c 128,-1,26
 415.071289062 48.5751953125 415.071289062 48.5751953125 406.276367188 76.923828125 c 128,-1,27
 397.481445312 105.271484375 397.481445312 105.271484375 402.299804688 142.252929688 c 0,28,29
 407.740234375 184.017578125 407.740234375 184.017578125 445.177734375 251.822265625 c 1,30,31
 277.514648438 189.752929688 277.514648438 189.752929688 103.69140625 192.7578125 c 0,32,33
 87.3603515625 193.040039062 87.3603515625 193.040039062 75.8720703125 204.706054688 c 128,-1,34
 64.3828125 216.373046875 64.3828125 216.373046875 64.52734375 233.073242188 c 128,-1,35
 64.6708984375 249.7734375 64.6708984375 249.7734375 76.337890625 261.262695312 c 128,-1,36
 88.0048828125 272.751953125 88.0048828125 272.751953125 104.370117188 272.751953125 c 0,37,38
 211.520507812 270.905273438 211.520507812 270.905273438 332.407226562 301.275390625 c 128,-1,39
 453.293945312 331.64453125 453.293945312 331.64453125 539.087890625 385.818359375 c 0,40,41
 548.814453125 391.952148438 548.814453125 391.952148438 562.890625 391.952148438 c 128,-1,42
 576.966796875 391.952148438 576.966796875 391.952148438 588.688476562 380.229492188 c 128,-1,43
 600.411132812 368.506835938 600.411132812 368.506835938 600.411132812 353.456054688 c 128,-1,44
 600.411132812 338.40625 600.411132812 338.40625 592.1953125 327.669921875 c 0,45,46
 489.704101562 193.900390625 489.704101562 193.900390625 480.65625 124.447265625 c 0,47,48
 477.643554688 101.321289062 477.643554688 101.321289062 487.3359375 93.830078125 c 1,49,-1
 523.728515625 85.13671875 l 1,50,51
 600.15625 74.9287109375 600.15625 74.9287109375 813.041015625 85.876953125 c 1,52,53
 814.88671875 91.0751953125 814.88671875 91.0751953125 862.635742188 159.473632812 c 128,-1,54
 910.385742188 227.872070312 910.385742188 227.872070312 932.786132812 260.836914062 c 0,55,56
 994.822265625 352.127929688 994.822265625 352.127929688 1031.99804688 430.322265625 c 0,0,1
1068.3046875 327.037109375 m 1,57,58
 1028.14648438 255.928710938 1028.14648438 255.928710938 972.868164062 177.086914062 c 128,-1,59
 917.590820312 98.24609375 917.590820312 98.24609375 912.8984375 91.51171875 c 1,60,61
 1244.31933594 111.379882812 1244.31933594 111.379882812 1335.70117188 111.91796875 c 1,62,63
 1318.96484375 123.23828125 1318.96484375 123.23828125 1281.30859375 147.655273438 c 128,-1,64
 1243.65234375 172.073242188 1243.65234375 172.073242188 1223.828125 185.478515625 c 0,65,66
 1115.97558594 258.40625 1115.97558594 258.40625 1068.3046875 327.037109375 c 1,57,58
EndSplineSet
Validated: 3105
EndChar

StartChar: Osyq60
Encoding: 126223 126223 67
Width: 1480
Flags: W
HStem: 0.00292969 80<505.9 809.839>
VStem: 411.305 80<96.1802 225.35>
LayerCount: 2
Fore
SplineSet
455.750976562 293.278320312 m 1,0,1
 406.748046875 275.376953125 406.748046875 275.376953125 370.869140625 265.30078125 c 128,-1,2
 334.990234375 255.223632812 334.990234375 255.223632812 318.907226562 250.653320312 c 128,-1,3
 302.823242188 246.083984375 302.823242188 246.083984375 269.573242188 238.068359375 c 128,-1,4
 236.32421875 230.053710938 236.32421875 230.053710938 226.376953125 227.646484375 c 128,-1,5
 216.4296875 225.23828125 216.4296875 225.23828125 177.022460938 216.18359375 c 128,-1,6
 137.615234375 207.127929688 137.615234375 207.127929688 132.3125 205.900390625 c 0,7,8
 112.7890625 201.381835938 112.7890625 201.381835938 98.029296875 213.727539062 c 128,-1,9
 83.26953125 226.073242188 83.26953125 226.073242188 83.26953125 242.51953125 c 128,-1,10
 83.26953125 258.965820312 83.26953125 258.965820312 92.03515625 269.850585938 c 128,-1,11
 100.80078125 280.736328125 100.80078125 280.736328125 114.2265625 283.84375 c 0,12,13
 222.670898438 308.944335938 222.670898438 308.944335938 264.748046875 319.204101562 c 128,-1,14
 306.825195312 329.463867188 306.825195312 329.463867188 387.48828125 355.3671875 c 128,-1,15
 468.15234375 381.270507812 468.15234375 381.270507812 501.120117188 397.703125 c 128,-1,16
 534.088867188 414.135742188 534.088867188 414.135742188 548.8125 414.135742188 c 128,-1,17
 563.53515625 414.135742188 563.53515625 414.135742188 575.9609375 397.5625 c 128,-1,18
 588.38671875 380.990234375 588.38671875 380.990234375 582.067382812 363.155273438 c 128,-1,19
 575.748046875 345.3203125 575.748046875 345.3203125 547.7265625 295.345703125 c 0,20,21
 491.3046875 194.71875 491.3046875 194.71875 491.3046875 143.48828125 c 0,22,23
 491.3046875 123.744140625 491.3046875 123.744140625 497.322265625 111.486328125 c 0,24,25
 512.779296875 80.0029296875 512.779296875 80.0029296875 613.017578125 80.0029296875 c 0,26,27
 748.439453125 80.0029296875 748.439453125 80.0029296875 987.462890625 140.614257812 c 0,28,29
 1100.87792969 169.374023438 1100.87792969 169.374023438 1206.30957031 203.74609375 c 128,-1,30
 1311.7421875 238.119140625 1311.7421875 238.119140625 1339.0078125 251.076171875 c 128,-1,31
 1366.2734375 264.034179688 1366.2734375 264.034179688 1384.63671875 251.739257812 c 128,-1,32
 1403 239.444335938 1403 239.444335938 1403 216.173828125 c 128,-1,33
 1403 192.903320312 1403 192.903320312 1380.1328125 182.037109375 c 0,34,35
 1338.62890625 162.313476562 1338.62890625 162.313476562 1232.79101562 127.875976562 c 128,-1,36
 1126.95410156 93.4384765625 1126.95410156 93.4384765625 1007.16015625 63.0615234375 c 0,37,38
 758.485351562 0.0029296875 758.485351562 0.0029296875 613.017578125 0.0029296875 c 0,39,40
 462.926757812 0.0029296875 462.926757812 0.0029296875 426.791015625 73.603515625 c 0,41,42
 411.3046875 105.147460938 411.3046875 105.147460938 411.3046875 143.48828125 c 0,43,44
 411.3046875 205.958984375 411.3046875 205.958984375 455.750976562 293.278320312 c 1,0,1
EndSplineSet
Validated: 3105
EndChar

StartChar: Osyq70
Encoding: 126224 126224 68
Width: 1098
Flags: W
HStem: -0.0605469 80.0605<471.175 655.007> 303.863 164.853<666.916 745.457>
VStem: 314.925 79.9512<153.962 295.292> 745.633 79.8252<157.972 305.873> 906.049 79.9443<429.044 550.087> 928.357 79.3613<13.9563 346.541>
LayerCount: 2
Fore
SplineSet
911.3828125 347.138671875 m 1,0,1
 874.6640625 321.873046875 874.6640625 321.873046875 825.458007812 310.670898438 c 1,2,3
 827.922851562 241.001953125 827.922851562 241.001953125 817.397460938 189.748046875 c 128,-1,4
 806.872070312 138.493164062 806.872070312 138.493164062 790.631835938 113.930664062 c 0,5,6
 757.607421875 63.9814453125 757.607421875 63.9814453125 695.642578125 32.3076171875 c 128,-1,7
 633.677734375 0.6337890625 633.677734375 0.6337890625 552.180664062 -0.060546875 c 128,-1,8
 470.682617188 -0.7548828125 470.682617188 -0.7548828125 404.37890625 49.685546875 c 0,9,10
 362.404296875 81.6181640625 362.404296875 81.6181640625 338.665039062 130.4609375 c 128,-1,11
 314.924804688 179.303710938 314.924804688 179.303710938 314.924804688 239.169921875 c 0,12,13
 314.924804688 254.740234375 314.924804688 254.740234375 318.5859375 296.59375 c 1,14,15
 261.267578125 265.58203125 261.267578125 265.58203125 137.7421875 242.646484375 c 0,16,17
 119.684570312 239.293945312 119.684570312 239.293945312 106.233398438 236.565429688 c 128,-1,18
 92.78125 233.836914062 92.78125 233.836914062 78.4306640625 246.134765625 c 128,-1,19
 64.080078125 258.432617188 64.080078125 258.432617188 64.080078125 274.884765625 c 128,-1,20
 64.080078125 291.336914062 64.080078125 291.336914062 73.1826171875 302.34375 c 128,-1,21
 82.2841796875 313.349609375 82.2841796875 313.349609375 93.2861328125 315.58203125 c 128,-1,22
 104.288085938 317.813476562 104.288085938 317.813476562 128.19921875 322.25390625 c 128,-1,23
 152.111328125 326.694335938 152.111328125 326.694335938 170.762695312 330.6328125 c 128,-1,24
 189.4140625 334.571289062 189.4140625 334.571289062 220.383789062 343.502929688 c 128,-1,25
 251.353515625 352.434570312 251.353515625 352.434570312 271.016601562 361.95703125 c 0,26,27
 321.340820312 386.328125 321.340820312 386.328125 331.70703125 419.88671875 c 0,28,29
 335.536132812 432.279296875 335.536132812 432.279296875 346.07421875 440.1796875 c 128,-1,30
 356.61328125 448.080078125 356.61328125 448.080078125 372.095703125 448.080078125 c 128,-1,31
 387.578125 448.080078125 387.578125 448.080078125 399.66015625 434.971679688 c 128,-1,32
 411.743164062 421.862304688 411.743164062 421.862304688 409.680664062 403.560546875 c 0,33,34
 394.884765625 272.237304688 394.884765625 272.237304688 394.875976562 238 c 0,35,36
 394.854492188 157.4375 394.854492188 157.4375 452.750976562 113.392578125 c 0,37,38
 496.643554688 80 496.643554688 80 554.903320312 80 c 128,-1,39
 613.163085938 80 613.163085938 80 657.825195312 102.829101562 c 128,-1,40
 702.48828125 125.658203125 702.48828125 125.658203125 723.850585938 157.969726562 c 0,41,42
 731.596679688 169.688476562 731.596679688 169.688476562 739.418945312 207.780273438 c 128,-1,43
 747.241210938 245.872070312 747.241210938 245.872070312 745.6328125 303.86328125 c 1,44,45
 686.452148438 307.25390625 686.452148438 307.25390625 658.415039062 331.653320312 c 128,-1,46
 630.377929688 356.053710938 630.377929688 356.053710938 630.377929688 384.584960938 c 128,-1,47
 630.377929688 413.1171875 630.377929688 413.1171875 651.66015625 440.916992188 c 128,-1,48
 672.94140625 468.715820312 672.94140625 468.715820312 707.334960938 468.715820312 c 128,-1,49
 741.728515625 468.715820312 741.728515625 468.715820312 768.405273438 446.7109375 c 128,-1,50
 795.081054688 424.705078125 795.081054688 424.705078125 809.733398438 389.241210938 c 1,51,52
 858.575195312 400.791992188 858.575195312 400.791992188 881.654296875 425.883789062 c 128,-1,53
 904.733398438 450.974609375 904.733398438 450.974609375 906.048828125 482.060546875 c 0,54,55
 906.756835938 498.762695312 906.756835938 498.762695312 909.375976562 521.060546875 c 128,-1,56
 911.995117188 543.358398438 911.995117188 543.358398438 923.336914062 553.516601562 c 128,-1,57
 934.678710938 563.673828125 934.678710938 563.673828125 951.165039062 563.673828125 c 128,-1,58
 967.651367188 563.673828125 967.651367188 563.673828125 979.747070312 550.501953125 c 128,-1,59
 991.84375 537.329101562 991.84375 537.329101562 988.918945312 512.42578125 c 128,-1,60
 985.993164062 487.521484375 985.993164062 487.521484375 985.993164062 448.29296875 c 128,-1,61
 985.993164062 409.063476562 985.993164062 409.063476562 1000 261.216796875 c 0,62,63
 1007.72753906 179.649414062 1007.72753906 179.649414062 1007.71875 119 c 0,64,65
 1007.71191406 69.71875 1007.71191406 69.71875 1002.59667969 34.25 c 0,66,67
 1000.49023438 19.6376953125 1000.49023438 19.6376953125 989.249023438 9.818359375 c 128,-1,68
 978.0078125 -0.0009765625 978.0078125 -0.0009765625 961.534179688 -0.0009765625 c 128,-1,69
 945.060546875 -0.0009765625 945.060546875 -0.0009765625 932.892578125 13.5302734375 c 128,-1,70
 920.724609375 27.0625 920.724609375 27.0625 924.541015625 53.53125 c 128,-1,71
 928.357421875 80 928.357421875 80 928.357421875 123.134765625 c 128,-1,72
 928.357421875 166.26953125 928.357421875 166.26953125 920.600585938 247.383789062 c 128,-1,73
 912.842773438 328.498046875 912.842773438 328.498046875 911.3828125 347.138671875 c 1,0,1
EndSplineSet
Validated: 3105
EndChar

StartChar: Osyq80
Encoding: 126225 126225 69
Width: 1052
Flags: W
HStem: 0.908203 79.8848<490.78 710.426>
VStem: 315.156 75.749<181.394 322.661> 877 80<220.57 395.525>
LayerCount: 2
Fore
SplineSet
909.788085938 464.084960938 m 0,0,1
 957 384.436523438 957 384.436523438 957 300.464355469 c 128,-1,2
 957 216.4921875 957 216.4921875 903.614746094 148.578613281 c 128,-1,3
 850.229492188 80.6650390625 850.229492188 80.6650390625 767.731445312 40.7861328125 c 128,-1,4
 685.234375 0.908203125 685.234375 0.908203125 581.409667969 0.908203125 c 128,-1,5
 477.584960938 0.908203125 477.584960938 0.908203125 404.280273438 62.66015625 c 128,-1,6
 330.975585938 124.411132812 330.975585938 124.411132812 314.334960938 230.58203125 c 0,7,8
 307.137695312 276.501953125 307.137695312 276.501953125 315.15625 324.036132812 c 1,9,10
 250.844361072 300.5363561 250.844361072 300.5363561 125.087890625 287.299804688 c 0,11,12
 109.525390625 285.661132812 109.525390625 285.661132812 97.2602539062 284.219238281 c 128,-1,13
 84.9951171875 282.77734375 84.9951171875 282.77734375 71.8203125 294.873046875 c 128,-1,14
 58.64453125 306.96875 58.64453125 306.96875 58.64453125 323.455566406 c 128,-1,15
 58.64453125 339.942382812 58.64453125 339.942382812 68.8017578125 351.283203125 c 128,-1,16
 78.958984375 362.625 78.958984375 362.625 90.708984375 364.005859375 c 128,-1,17
 102.458984375 365.38671875 102.458984375 365.38671875 133.655669722 368.743329671 c 128,-1,18
 164.852355068 372.099940592 164.852355068 372.099940592 199.295898438 377.334960938 c 0,19,20
 327.624669258 396.839450325 327.624669258 396.839450325 355.726074219 448.302246094 c 0,21,22
 364.841796875 464.99609375 364.841796875 464.99609375 386.970214844 464.99609375 c 128,-1,23
 409.098632812 464.99609375 409.098632812 464.99609375 421.4921875 447.680664062 c 128,-1,24
 433.885742188 430.364257812 433.885742188 430.364257812 425.686523438 410.048828125 c 0,25,26
 390.905273438 323.875 390.905273438 323.875 390.905273438 274.35546875 c 0,27,28
 390.905273438 258.759765625 390.905273438 258.759765625 393.368164062 243.046875 c 0,29,30
 418.078338871 85.3835760188 418.078338871 85.3835760188 592.07421875 80.79296875 c 0,31,32
 666.546875 78.828125 666.546875 78.828125 733.737792969 113.103515625 c 128,-1,33
 800.928710938 147.37890625 800.928710938 147.37890625 838.964355469 195.765625 c 128,-1,34
 877 244.15234375 877 244.15234375 877 303.329589844 c 128,-1,35
 877 362.506835938 877 362.506835938 840.918945312 423.377929688 c 0,36,37
 835.353515625 432.766601562 835.353515625 432.766601562 835.353515625 446.52734375 c 128,-1,38
 835.353515625 460.288085938 835.353515625 460.288085938 847.075195312 472.009765625 c 128,-1,39
 858.796875 483.731445312 858.796875 483.731445312 878.469726562 483.731445312 c 128,-1,40
 898.142578125 483.731445312 898.142578125 483.731445312 909.788085938 464.084960938 c 0,0,1
EndSplineSet
Validated: 19489
EndChar

StartChar: Osyq90
Encoding: 126226 126226 70
Width: 1168
Flags: W
HStem: 0.404297 80<443.662 705.522> 254.555 79.998<71.1867 255.789> 283.649 172.55<759.194 838.175>
VStem: 303.509 80<143.656 288.332> 838.705 80.167<191.276 283.649> 982.857 76.0367<530.314 627.623>
LayerCount: 2
Fore
SplineSet
988.750976562 628.090820312 m 128,-1,1
 1001.11132812 642.994140625 1001.11132812 642.994140625 1017.55566406 642.994140625 c 128,-1,2
 1034.00097656 642.994140625 1034.00097656 642.994140625 1044.84277344 634.342773438 c 128,-1,3
 1055.68554688 625.692382812 1055.68554688 625.692382812 1058.89355469 612.399414062 c 0,4,5
 1070.02929688 566.266601562 1070.02929688 566.266601562 1066.88964844 523.450195312 c 0,6,7
 1057.23046875 391.653320312 1057.23046875 391.653320312 970.40625 326.555664062 c 0,8,9
 946.154296875 308.374023438 946.154296875 308.374023438 918.026367188 297.63671875 c 1,10,11
 918.872070312 286.336914062 918.872070312 286.336914062 918.872070312 275.270507812 c 0,12,13
 918.872070312 153.408203125 918.872070312 153.408203125 824.287109375 77.5302734375 c 0,14,15
 757.22265625 23.7294921875 757.22265625 23.7294921875 658.068359375 7.5634765625 c 0,16,17
 614.154296875 0.404296875 614.154296875 0.404296875 563.194335938 0.404296875 c 128,-1,18
 512.234375 0.404296875 512.234375 0.404296875 495.180664062 2.314453125 c 0,19,20
 407.288085938 12.1640625 407.288085938 12.1640625 355.3984375 75.3076171875 c 128,-1,21
 303.508789062 138.452148438 303.508789062 138.452148438 303.508789062 232.923828125 c 0,22,23
 303.508789062 261.379882812 303.508789062 261.379882812 308.557617188 289.111328125 c 1,24,25
 211.150390625 255.479492188 211.150390625 255.479492188 99.3359375 254.5546875 c 0,26,27
 82.6328125 254.416992188 82.6328125 254.416992188 70.81640625 266.166992188 c 128,-1,28
 59 277.916015625 59 277.916015625 59 294.553710938 c 128,-1,29
 59 311.020507812 59 311.020507812 70.6083984375 322.71875 c 128,-1,30
 82.2158203125 334.416015625 82.2158203125 334.416015625 98.6640625 334.552734375 c 0,31,32
 179.116210938 335.215820312 179.116210938 335.215820312 255.8046875 356.530273438 c 128,-1,33
 332.4921875 377.845703125 332.4921875 377.845703125 364.146484375 411.561523438 c 0,34,35
 379.76171875 429.850585938 379.76171875 429.850585938 397.3203125 429.850585938 c 128,-1,36
 414.87890625 429.850585938 414.87890625 429.850585938 426.600585938 418.12890625 c 128,-1,37
 438.322265625 406.407226562 438.322265625 406.407226562 438.322265625 390.879882812 c 128,-1,38
 438.322265625 375.352539062 438.322265625 375.352539062 432.526367188 368.4140625 c 128,-1,39
 426.731445312 361.4765625 426.731445312 361.4765625 424.284179688 358.78125 c 0,40,41
 405.868164062 336.590820312 405.868164062 336.590820312 394.688476562 302.647460938 c 128,-1,42
 383.508789062 268.704101562 383.508789062 268.704101562 383.508789062 224.139648438 c 128,-1,43
 383.508789062 179.576171875 383.508789062 179.576171875 406.630859375 141.071289062 c 0,44,45
 437.745117188 89.2578125 437.745117188 89.2578125 504.172851562 81.814453125 c 0,46,47
 516.747070312 80.404296875 516.747070312 80.404296875 562.178710938 80.404296875 c 0,48,49
 700.041992188 80.404296875 700.041992188 80.404296875 771.1328125 137.434570312 c 128,-1,50
 842.22265625 194.463867188 842.22265625 194.463867188 838.705078125 283.649414062 c 1,51,52
 775.899414062 284.840820312 775.899414062 284.840820312 742.490234375 319.015625 c 128,-1,53
 709.080078125 353.190429688 709.080078125 353.190429688 723.639648438 397.591796875 c 0,54,55
 732.0703125 423.3046875 732.0703125 423.3046875 753.653320312 439.751953125 c 128,-1,56
 775.236328125 456.19921875 775.236328125 456.19921875 806.091796875 456.19921875 c 128,-1,57
 836.946289062 456.19921875 836.946289062 456.19921875 862.23828125 438.252929688 c 128,-1,58
 887.53125 420.306640625 887.53125 420.306640625 897.190429688 392.9296875 c 0,59,60
 899.83203125 385.44140625 899.83203125 385.44140625 902.147460938 378.043945312 c 1,61,62
 978.829101562 416.438476562 978.829101562 416.438476562 987.106445312 529.370117188 c 0,63,64
 989.322265625 559.61328125 989.322265625 559.61328125 982.856445312 586.400390625 c 128,-1,0
 976.391601562 613.188476562 976.391601562 613.188476562 988.750976562 628.090820312 c 128,-1,1
EndSplineSet
Validated: 3105
EndChar

StartChar: Osyq100
Encoding: 126227 126227 71
Width: 490
Flags: W
VStem: 89 91.7393<80.5401 144.127 324.94 600.456> 100.207 79.7393<521.315 630.342> 285.235 102.82<86.7878 147.434>
LayerCount: 2
Fore
SplineSet
285.235351562 86.0263671875 m 1,0,1
 268.83984375 117.836914062 268.83984375 117.836914062 287.500976562 148.388671875 c 0,2,3
 300.487304688 169.650390625 300.487304688 169.650390625 321.556640625 169.650390625 c 128,-1,4
 342.625 169.650390625 342.625 169.650390625 356.69140625 161.665039062 c 0,5,6
 388.055664062 143.858398438 388.055664062 143.858398438 388.055664062 102.974609375 c 0,7,8
 388.055664062 49.2451171875 388.055664062 49.2451171875 343.313476562 20.2412109375 c 0,9,10
 320.72265625 5.59765625 320.72265625 5.59765625 272.334960938 5.59765625 c 128,-1,11
 223.948242188 5.59765625 223.948242188 5.59765625 213.076171875 2.828125 c 128,-1,12
 202.204101562 0.0595703125 202.204101562 0.0595703125 177.052734375 0.0595703125 c 0,13,14
 113.659179688 0.0595703125 113.659179688 0.0595703125 105.950195312 42.0185546875 c 0,15,16
 93.736328125 108.495117188 93.736328125 108.495117188 89 220.409179688 c 0,17,18
 87.4296875 257.514648438 87.4296875 257.514648438 88.8583984375 324.940429688 c 128,-1,19
 90.287109375 392.3671875 90.287109375 392.3671875 91.1552734375 416.971679688 c 128,-1,20
 92.0234375 441.576171875 92.0234375 441.576171875 95.83203125 518.9140625 c 128,-1,21
 99.6396484375 596.250976562 99.6396484375 596.250976562 100.20703125 608.529296875 c 128,-1,22
 100.774414062 620.807617188 100.774414062 620.807617188 112.358398438 631.900390625 c 128,-1,23
 123.943359375 642.993164062 123.943359375 642.993164062 140.470703125 642.993164062 c 128,-1,24
 156.998046875 642.993164062 156.998046875 642.993164062 168.875 630.7265625 c 128,-1,25
 180.751953125 618.4609375 180.751953125 618.4609375 179.946289062 601.006835938 c 128,-1,26
 179.140625 583.552734375 179.140625 583.552734375 177.065429688 543.502929688 c 0,27,28
 160.237304688 218.767578125 160.237304688 218.767578125 180.739257812 80.1259765625 c 1,29,30
 193.954101562 80.56640625 193.954101562 80.56640625 205.25390625 83.3583984375 c 128,-1,31
 216.5546875 86.150390625 216.5546875 86.150390625 241.107421875 86.150390625 c 2,32,-1
 285.235351562 86.0263671875 l 1,0,1
EndSplineSet
Validated: 3105
EndChar

StartChar: Osyq200
Encoding: 126228 126228 72
Width: 930
Flags: W
HStem: -9.11035 76.541<107.918 313.226> 0.373047 80.3564<629.044 701.428> 562.991 80<485.992 547.685>
VStem: 364.99 80.0102<137.396 496.67> 530.648 80<98.8096 440.357> 552.747 80<248.964 553.737> 699.403 116.237<82.0653 133.323>
LayerCount: 2
Fore
SplineSet
160.1953125 71.7890625 m 2,0,-1
 225.42578125 70.4091796875 l 1,1,2
 295.299804688 70.4091796875 295.299804688 70.4091796875 317.219726562 91.6259765625 c 128,-1,3
 339.138671875 112.84375 339.138671875 112.84375 349.854492188 159.419921875 c 128,-1,4
 360.569335938 205.995117188 360.569335938 205.995117188 364.990234375 314.135742188 c 128,-1,5
 369.412109375 422.275390625 369.412109375 422.275390625 380.924804688 483.854492188 c 128,-1,6
 392.438476562 545.434570312 392.438476562 545.434570312 423.381835938 592.467773438 c 0,7,8
 456.620117188 642.991210938 456.620117188 642.991210938 521.25390625 642.991210938 c 0,9,10
 553.256835938 642.991210938 553.256835938 642.991210938 581.551757812 625.889648438 c 128,-1,11
 609.846679688 608.7890625 609.846679688 608.7890625 621.296875 576.86328125 c 128,-1,12
 632.747070312 544.936523438 632.747070312 544.936523438 632.747070312 496.546875 c 128,-1,13
 632.747070312 448.15625 632.747070312 448.15625 621.698242188 343.29296875 c 128,-1,14
 610.6484375 238.4296875 610.6484375 238.4296875 610.6484375 195.948242188 c 0,15,16
 610.6484375 123.375976562 610.6484375 123.375976562 628.24609375 102.953125 c 128,-1,17
 645.842773438 82.5302734375 645.842773438 82.5302734375 658.6328125 80.7294921875 c 1,18,-1
 671.04296875 80.373046875 l 2,19,20
 684.20703125 80.373046875 684.20703125 80.373046875 702.079101562 81.59765625 c 1,21,22
 695.170898438 96.5673828125 695.170898438 96.5673828125 699.404296875 110.814453125 c 128,-1,23
 703.637695312 125.0625 703.637695312 125.0625 722.359375 137.498046875 c 128,-1,24
 741.081054688 149.934570312 741.081054688 149.934570312 763.662109375 149.934570312 c 128,-1,25
 786.244140625 149.934570312 786.244140625 149.934570312 800.942382812 133.827148438 c 128,-1,26
 815.640625 117.720703125 815.640625 117.720703125 815.640625 97.0810546875 c 0,27,28
 815.640625 49.072265625 815.640625 49.072265625 774.260742188 17.5341796875 c 0,29,30
 751.748046875 0.373046875 751.748046875 0.373046875 671.04296875 0.373046875 c 0,31,32
 655.4921875 0.373046875 655.4921875 0.373046875 647.396484375 1.5146484375 c 0,33,34
 604.911132812 7.4970703125 604.911132812 7.4970703125 567.341796875 51.1025390625 c 0,35,36
 530.6484375 93.6904296875 530.6484375 93.6904296875 530.6484375 194.338867188 c 0,37,38
 530.6484375 244.171875 530.6484375 244.171875 541.698242188 349.083984375 c 128,-1,39
 552.747070312 453.995117188 552.747070312 453.995117188 552.747070312 492.487304688 c 128,-1,40
 552.747070312 530.979492188 552.747070312 530.979492188 547.006835938 546.985351562 c 128,-1,41
 541.266601562 562.991210938 541.266601562 562.991210938 520.504882812 562.991210938 c 128,-1,42
 499.743164062 562.991210938 499.743164062 562.991210938 490.262695312 548.581054688 c 0,43,44
 458.123046875 499.7265625 458.123046875 499.7265625 450.115234375 402.998046875 c 0,45,46
 447.30078125 369.006835938 447.30078125 369.006835938 445.000976562 312.749023438 c 128,-1,47
 442.701171875 256.491210938 442.701171875 256.491210938 440.091796875 225.647460938 c 128,-1,48
 437.482421875 194.803710938 437.482421875 194.803710938 430.288085938 153.89453125 c 0,49,50
 416.6953125 76.59765625 416.6953125 76.59765625 372.174804688 33.5029296875 c 128,-1,51
 327.654296875 -9.5908203125 327.654296875 -9.5908203125 225.42578125 -9.5908203125 c 1,52,-1
 160.1953125 -8.2109375 l 2,53,54
 148.586914062 -8.2109375 148.586914062 -8.2109375 143.251953125 -9.1103515625 c 0,55,56
 123.255859375 -15.2041015625 123.255859375 -15.2041015625 107.423828125 -2.78515625 c 128,-1,57
 91.5908203125 9.634765625 91.5908203125 9.634765625 91.5908203125 26.078125 c 0,58,59
 91.5908203125 58.794921875 91.5908203125 58.794921875 119.9296875 67.4306640625 c 0,60,61
 134.233398438 71.7890625 134.233398438 71.7890625 160.1953125 71.7890625 c 2,0,-1
EndSplineSet
Validated: 3105
EndChar

StartChar: Osyq300
Encoding: 126229 126229 73
Width: 793
Flags: W
HStem: -9.6582 80<226.847 338.194 417.495 527.889> 1.61914 82.7838<443.691 531.058>
VStem: 85.9209 80<134.879 567.211> 94.8301 79.3155<269.894 638.672> 314.211 80<94.9473 224.219> 371.429 73.1556<411.107 484.65> 628.042 80<308.61 413.378>
LayerCount: 2
Fore
SplineSet
501.206054688 1.619140625 m 1,0,-1
 440.016601562 -5.828125 l 1,1,2
 431.477539062 -5.828125 431.477539062 -5.828125 423.319335938 -4.3154296875 c 0,3,4
 369.896484375 -9.658203125 369.896484375 -9.658203125 332.422851562 -9.658203125 c 0,5,6
 189.08203125 -9.658203125 189.08203125 -9.658203125 132.084960938 70.5625 c 0,7,8
 85.9208984375 135.537109375 85.9208984375 135.537109375 85.9208984375 268.280273438 c 0,9,10
 85.9208984375 319.978515625 85.9208984375 319.978515625 90.2685546875 364.99609375 c 128,-1,11
 94.6162109375 410.012695312 94.6162109375 410.012695312 94.830078125 439.943359375 c 128,-1,12
 95.0439453125 469.874023438 95.0439453125 469.874023438 94.1533203125 508.856445312 c 128,-1,13
 93.26171875 547.837890625 93.26171875 547.837890625 93.26171875 570.06640625 c 128,-1,14
 93.26171875 592.293945312 93.26171875 592.293945312 94.7783203125 607.28125 c 128,-1,15
 96.2958984375 622.26953125 96.2958984375 622.26953125 107.696289062 632.635742188 c 128,-1,16
 119.095703125 643.002929688 119.095703125 643.002929688 135.590820312 643.002929688 c 128,-1,17
 152.0859375 643.002929688 152.0859375 643.002929688 164.135742188 630.043945312 c 128,-1,18
 176.184570312 617.084960938 176.184570312 617.084960938 174.723632812 602.642578125 c 128,-1,19
 173.26171875 588.201171875 173.26171875 588.201171875 173.26171875 567.8515625 c 128,-1,20
 173.26171875 547.501953125 173.26171875 547.501953125 174.145507812 506.645507812 c 0,21,22
 176.008789062 420.521484375 176.008789062 420.521484375 170.96484375 368.294921875 c 128,-1,23
 165.920898438 316.067382812 165.920898438 316.067382812 165.920898438 268.280273438 c 0,24,25
 165.920898438 161.049804688 165.920898438 161.049804688 198.145507812 115.696289062 c 128,-1,26
 230.369140625 70.341796875 230.369140625 70.341796875 332.422851562 70.341796875 c 0,27,28
 335.25390625 70.341796875 335.25390625 70.341796875 338.194335938 70.376953125 c 1,29,30
 314.2109375 119.556640625 314.2109375 119.556640625 314.2109375 193.543945312 c 0,31,32
 314.2109375 313.673828125 314.2109375 313.673828125 371.428710938 474.9140625 c 0,33,34
 375.61328125 486.708007812 375.61328125 486.708007812 385.936523438 494.12890625 c 128,-1,35
 396.258789062 501.549804688 396.258789062 501.549804688 412.645507812 501.549804688 c 128,-1,36
 429.032226562 501.549804688 429.032226562 501.549804688 441.459960938 485.165039062 c 128,-1,37
 453.88671875 468.779296875 453.88671875 468.779296875 444.583984375 441.5546875 c 128,-1,38
 435.28125 414.330078125 435.28125 414.330078125 430.240234375 383.64453125 c 128,-1,39
 425.198242188 352.958984375 425.198242188 352.958984375 430.41015625 323.619140625 c 128,-1,40
 435.62109375 294.279296875 435.62109375 294.279296875 454.407226562 279.961914062 c 0,41,42
 479.525390625 263.884765625 479.525390625 263.884765625 510.630859375 265.712890625 c 128,-1,43
 541.737304688 267.540039062 541.737304688 267.540039062 568.846679688 281.565429688 c 0,44,45
 628.041992188 312.193359375 628.041992188 312.193359375 628.041992188 358.8359375 c 0,46,47
 628.041992188 389.90625 628.041992188 389.90625 597.908203125 424.201171875 c 0,48,49
 587.963867188 435.51953125 587.963867188 435.51953125 587.963867188 451.331054688 c 128,-1,50
 587.963867188 467.142578125 587.963867188 467.142578125 599.685546875 478.86328125 c 128,-1,51
 611.40625 490.584960938 611.40625 490.584960938 628.731445312 490.584960938 c 128,-1,52
 646.055664062 490.584960938 646.055664062 490.584960938 658.01953125 476.96875 c 0,53,54
 708.041992188 420.037109375 708.041992188 420.037109375 708.041992188 363.966796875 c 128,-1,55
 708.041992188 307.895507812 708.041992188 307.895507812 677.166015625 269.15234375 c 128,-1,56
 646.290039062 230.408203125 646.290039062 230.408203125 600.900390625 207.946289062 c 128,-1,57
 555.509765625 185.484375 555.509765625 185.484375 496.63671875 185.484375 c 128,-1,58
 437.762695312 185.484375 437.762695312 185.484375 395.474609375 225.192382812 c 1,59,60
 394.2109375 208.553710938 394.2109375 208.553710938 394.2109375 193.543945312 c 0,61,62
 394.2109375 105.318359375 394.2109375 105.318359375 432.359375 77.078125 c 1,63,64
 463.104492188 80.4970703125 463.104492188 80.4970703125 490.540039062 84.4033203125 c 128,-1,65
 517.974609375 88.30859375 517.974609375 88.30859375 531.483398438 76.146484375 c 128,-1,66
 544.9921875 63.9833984375 544.9921875 63.9833984375 544.9921875 47.5087890625 c 0,67,68
 544.9921875 28.84765625 544.9921875 28.84765625 531.377929688 15.2333984375 c 128,-1,69
 517.763671875 1.619140625 517.763671875 1.619140625 501.206054688 1.619140625 c 1,0,-1
EndSplineSet
Validated: 3105
EndChar

